<?xml version="1.0" encoding="utf-8"?>
<!-- Generator: Adobe Illustrator 24.0.1, SVG Export Plug-In . SVG Version: 6.00 Build 0)  -->
<svg version="1.1" id="Layer_1" xmlns="http://www.w3.org/2000/svg" xmlns:xlink="http://www.w3.org/1999/xlink" x="0px" y="0px"
	 viewBox="0 0 1000 1000" style="enable-background:new 0 0 1000 1000;" xml:space="preserve">
<style type="text/css">
	.st0{fill:#E42125;}
	.st1{fill:#FFFFFF;}
	.st2{fill:#1F1B1C;}
</style>
<g>
	<path class="st0" d="M500.2,38c62.4,0,122.8,12.2,179.8,36.3c55,23.3,104.4,56.6,146.8,99s75.7,91.8,99,146.8
		c24.1,56.9,36.3,117.4,36.3,179.8s-12.2,122.8-36.3,179.8c-23.3,55-56.6,104.4-99,146.8c-42.4,42.4-91.8,75.7-146.8,99
		c-56.9,24.1-117.4,36.3-179.8,36.3s-122.8-12.2-179.8-36.3c-55-23.3-104.4-56.6-146.8-99c-42.4-42.4-75.7-91.8-99-146.8
		c-24.1-56.9-36.3-117.4-36.3-179.8S50.6,377,74.7,320.1c23.3-55,56.6-104.4,99-146.8s91.8-75.7,146.8-99
		C377.4,50.2,437.9,38,500.2,38 M500.2,0C224.2,0,0.4,223.8,0.4,499.8s223.8,499.8,499.8,499.8s499.8-223.8,499.8-499.8
		S776.3,0,500.2,0L500.2,0z"/>
</g>
<path class="st0" d="M500.2,499.8H77.4c0,233.5,189.3,422.8,422.8,422.8l0,0V499.8z"/>
<path class="st1" d="M253.4,732c-20.3,0-36.8-6.8-49.4-13.1c-16.5-8.2-25.2-7.6-35.7,2.8c-11.8,11.6-22.2,10.4-27.4,8.6
	c-9-3.1-15.1-12.1-16.8-24.7c-2-14.8-1.7-29.9-1.5-44.4c0-2.2,0.1-4.3,0.1-6.5c0.3-17.3,1.1-34.9,1.9-51.9c0.2-3.6,0.3-7.2,0.5-10.8
	c0.1-1.2,0.1-2.4,0.1-3.7c0.1-5.7,0.1-12.1,3.1-18.1c1.5-3.1,9.7-18.6,21.7-19.1c9.4-0.4,21,5,27.5,12.8c5,6.1,6.8,13.8,8.3,20.5
	c0.4,1.8,0.8,3.5,1.2,5.1c8.6,31.7,22.7,55.2,43,71.9c7.1,5.8,15.7,10.3,25.7,15.5c2.2,1.2,4.5,2.3,6.9,3.6
	c5.9,3.1,12.8,4.1,19.4,2.6l0,0l22,47l-40.6,1.4C260,731.8,256.6,732,253.4,732z"/>
<path class="st0" d="M500.2,499.8h422.8C923.1,266.3,733.8,77,500.2,77l0,0V499.8z"/>
<path class="st2" d="M185.6,693.4c10,0,19.4,3.6,27.4,7.7c15.3,7.6,27.9,11.1,40.8,11l2-12.6c-3.1-1.7-6.2-3.3-9.2-4.8
	c-10.5-5.5-20.5-10.6-29.2-17.8c-23.6-19.4-39.8-46.2-49.6-82.1c-0.5-2-1-4-1.4-5.9c-1.1-4.8-2.2-9.8-4.2-12.2
	c-2.4-2.8-7.2-5.2-10.2-5.6c-1.4,1.2-4,4.4-5.7,7.9c-1,2-1,6-1,9.6c0,1.4,0,2.9-0.1,4.4c-0.2,3.7-0.3,7.3-0.5,10.9
	c-0.8,16.8-1.6,34.2-1.9,51.2c0,2.2-0.1,4.4-0.1,6.5c-0.3,13.8-0.5,28,1.3,41.4c0.9,6.3,3,8.3,3.5,8.5c0.4,0.2,2.9-0.1,6.9-4
	C165,697,175.6,693.4,185.6,693.4z M151,571C151,571,151,571,151,571C151,571,151,571,151,571z"/>
<g>
	<g>
		<path class="st2" d="M292.2,721.6c-0.1-9.2-0.2-18.6-0.3-29.8c8.4-3.9,17.3-7.4,25.5-12c16.9-9.5,27.9-23.2,28-43.6
			c0.1-21.3-13.5-33.3-30.1-42.1c-14.5-7.7-30.2-13.1-45.4-19.6c-32.1-13.6-62.8-29.2-90.5-50.9c-29.6-23.2-43.3-53.1-42-90.3
			c0.1-3.5,0.2-6.9,0.3-10.4c4.3-82.3,61.3-138.1,144.3-141.3c1.6-0.1,3.3,0.8,6.3,1.7c0.1,9,0.2,18.3,0.3,28.1
			c-7.3,4.3-14.3,7.8-20.5,12.3c-28.9,20.9-31.1,56.4-1.5,76.1c23.5,15.6,50.6,26.3,77,37.1c32.7,13.4,62.8,30.5,84.3,58.8
			c44.3,58.2,31.1,143.4-28.5,190.8C367,712.2,329.6,724.6,292.2,721.6"/>
		<path class="st2" d="M314.3,312.9c0.2-11.1,0.4-20.4,0.7-32.7c13.6,2.7,25.4,4.4,36.8,7.3c11.7,3,23.4,6.5,34.7,10.8
			c10.4,4,18.2,3,24.5-6.9c4.5-7,11.7-13.1,19.3-8c5.5,3.7,10.5,12.3,10.7,18.8c0.9,34.6,0.7,69.3-0.1,103.9
			c-0.3,14.2-8.3,22.7-19.3,23.6c-13.4,1-17.6-8.4-21.2-18.7c-5.1-14.7-8.7-30.2-16.1-43.5C369.4,340.8,346.3,322.9,314.3,312.9"/>
	</g>
	<path class="st1" d="M303.6,732c-4.1,0-8.1-0.2-12.2-0.5l-9.1-0.7l-0.2-16.9c-0.1-6.8-0.2-14-0.2-22.1l-0.1-6.4l5.8-2.7
		c2.7-1.3,5.5-2.5,8.2-3.7c5.9-2.6,11.4-5,16.7-8c15.5-8.7,22.8-19.8,22.9-34.9c0.1-14-7.3-24-24.7-33.2
		c-9.6-5.1-19.6-9.1-30.3-13.3c-4.7-1.9-9.6-3.8-14.4-5.9c-39.4-16.7-68-32.8-92.8-52.2c-31.8-25-47.2-58.2-45.8-98.5
		c0-1.1,0.1-2.3,0.1-3.5c0.1-2.3,0.1-4.7,0.2-7.1c2.2-42.9,18-79.9,45.6-106.9c27.6-27,65-42.2,108.3-43.9c2.9-0.1,5.2,0.7,7.1,1.3
		c0.7,0.2,1.4,0.5,2.2,0.7l7.2,2l0.2,17.6c0.1,5.9,0.1,11.9,0.2,18l0.1,5.8l-5,3c-2.4,1.4-4.8,2.8-7.1,4.1c-4.6,2.6-8.9,5-12.7,7.8
		c-12,8.7-18.8,20.5-18.5,32.3c0.2,10.6,6.2,20.3,16.8,27.3c21.3,14.2,46.5,24.4,70.7,34.3l4.5,1.8c27.9,11.4,63.2,28.8,88.5,62
		c23,30.3,32.5,68.3,26.7,107c-5.8,38.4-26,73.1-56.9,97.7C374.4,719.1,339.3,732,303.6,732z M302.1,712c0.5,0,0.9,0,1.4,0
		c31.2,0,62-11.5,89.7-33.5c55.5-44.1,67.5-123.4,26.8-176.9c-17.5-22.9-42.2-40.1-80.2-55.6l-4.5-1.8
		c-25.2-10.3-51.2-20.9-74.2-36.2c-16.2-10.8-25.3-26.2-25.7-43.6c-0.4-18.5,9.4-36.3,26.8-48.9c4.7-3.4,9.7-6.2,14.6-9
		c0.6-0.3,1.2-0.7,1.8-1c0-4.1-0.1-8.2-0.1-12.2l0-1.7c-75.6,4.6-126.7,55.9-130.6,131.6c-0.1,2.2-0.2,4.3-0.2,6.6
		c0,1.2-0.1,2.4-0.1,3.7c-1.2,34.1,11.2,60.9,38.1,82.1c23.3,18.3,50.5,33.6,88.2,49.6c4.6,1.9,9.4,3.8,14,5.7
		c10.7,4.3,21.7,8.7,32.3,14.3c8.8,4.7,35.6,18.9,35.4,51c-0.1,22.4-11.3,40-33.1,52.3c-6.1,3.4-12.3,6.2-18.4,8.8
		c-0.7,0.3-1.3,0.6-2,0.9C302,703,302.1,707.6,302.1,712z"/>
	<path class="st1" d="M419.6,439.8c-19.7,0-25.6-17.1-28.6-25.5c-1.5-4.3-2.8-8.6-4.1-12.8c-3.3-10.5-6.4-20.5-11.3-29.2
		c-13.7-24.3-34.7-40.6-64.3-49.9l-7.2-2.2l1.1-52.1l11.6,2.3c4.3,0.8,8.4,1.6,12.4,2.3c8.6,1.6,16.8,3,24.9,5.1
		c13.4,3.4,25.1,7,35.8,11.2c7.8,3,9.7,1.5,12.5-2.9c3.5-5.5,9.5-12.3,18-14.1c5.3-1.1,10.6,0,15.3,3.2c8.3,5.5,14.8,17.1,15.1,26.9
		c0.8,31.7,0.8,65.8-0.1,104.4c-0.4,18.6-11.9,32-28.5,33.3C421.5,439.8,420.5,439.8,419.6,439.8z M324.5,305.8
		c31,11.2,53.5,29.8,68.6,56.8c5.9,10.5,9.5,21.9,12.9,33c1.3,4.2,2.6,8.2,3.9,12.2c4,11.5,6.1,12.4,10.9,12
		c8.5-0.7,10-8.9,10.1-13.8c0.9-38.2,0.9-72.1,0.1-103.4c-0.1-3.2-3.3-8.9-6.2-10.8c-0.1-0.1-0.2-0.1-0.3-0.2
		c-0.7,0.2-2.7,1.5-5.1,5.3c-8.4,13.2-20.7,16.9-36.5,10.8c-10-3.9-21-7.3-33.6-10.5c-7.5-1.9-15.3-3.3-23.6-4.8
		c-0.3-0.1-0.7-0.1-1-0.2L324.5,305.8z"/>
</g>
<g>
	<g>
		<path class="st2" d="M697.3,726.4c-64.4-6.6-108.4-36.1-138.3-85.7c-47-77.9-53.1-159.8-22-245.3c18.5-51,51-88,100-110.9
			c18.4-8.6,37.7-12.3,60.7-12.2c0.5,12,0.9,22.9,1.3,34.8c-20.4,11.2-27.9,29.7-28.1,51.9c-0.8,93.8-1.7,187.6-2.4,281.4
			c-0.2,17.9,4.5,32.8,18.1,46.8C694,695,693.3,710.7,697.3,726.4"/>
		<path class="st2" d="M719,727.7c-0.8-13.6-1.4-23.8-2-35.2c24.7-9.8,28.2-30.1,27.7-53.3c-0.6-26.9-0.2-53.8,0.6-80.7
			c0.4-12.8-2-22.5-16.6-24.8c-3.4-0.5-7.7-1.1-9.6-3.4c-4.1-4.8-9.9-11-9.4-16.2c0.5-5.2,6.8-11.4,12.1-14.4
			c4.8-2.7,11.8-2.3,17.8-2.2c40.8,0.8,81.6,2,122.4,2.9c10.8,0.2,21.2,0.7,25.8,13c4.4,11.7-0.3,20.6-9.9,26.8
			c-9.8,6.4-9.2,16-9.3,25.5c-0.4,29.5,0,59-1.2,88.5c-0.3,7.7-3.4,18.1-9,22.5C818.5,708.2,773.7,726.9,719,727.7"/>
		<path class="st2" d="M722.7,310c-0.2-13.6-0.4-23.8-0.6-35.9c7.4,0.4,13.3-0.1,18.8,1.3c22.7,5.9,45.4,11.9,67.7,18.9
			c11,3.5,19.6,4,27.7-6.2c6-7.7,15.9-14.3,24.8-7.5c5.6,4.2,9.1,14.5,9.2,22.2c0.8,41.7,0.3,83.3-0.1,125
			c-0.1,10.1-3.5,19.1-15.1,21.3c-11.2,2.1-18.5-3.6-22.5-13.4c-3-7.2-4.8-14.9-7.6-22.2c-5.5-14.6-9.9-29.9-17.2-43.5
			C790,337,763.6,314.5,722.7,310"/>
	</g>
	<path class="st1" d="M710.4,737.8l-14.2-1.5c-65.5-6.7-113.2-36.3-145.8-90.5c-24-39.8-38-81.5-41.7-124.1
		c-3.6-41.8,2.7-85.5,18.8-129.8c19.8-54.7,54.2-92.8,105.2-116.5c19.2-8.9,39.5-13.1,63.8-13.1c0.4,0,0.8,0,1.2,0l9.6,0.1l0.4,9.6
		c0.2,5.9,0.4,11.4,0.7,17c0.2,5.8,0.4,11.7,0.7,17.8l0.2,6.2l-5.4,3c-15.5,8.6-22.8,22.3-23,43.3l-0.2,27.2
		c-0.7,83.3-1.5,169.5-2.2,254.2c-0.2,16.7,4.4,28.5,15.3,39.7c7.3,7.5,8.9,18.1,10.6,29.4c0.7,4.7,1.5,9.6,2.7,14.4L710.4,737.8z
		 M688,282.5c-17.6,0.9-32.6,4.4-46.9,11.1c-45.9,21.4-76.9,55.8-94.8,105.2c-30.7,84.7-23.8,162.1,21.2,236.8
		c26.9,44.7,65.4,70.7,117.3,79.2c-0.1-0.7-0.2-1.4-0.3-2c-1.2-7.7-2.4-15.6-5.2-18.4c-14.5-14.9-21.2-32-21-53.8
		c0.7-84.7,1.4-170.9,2.2-254.2l0.2-27.2c0.2-25.7,9.6-45,27.9-57.3c-0.2-4-0.3-8-0.5-11.9C688.2,287.3,688.1,284.9,688,282.5z"/>
	<path class="st1" d="M709.5,737.8l-0.8-14.3c-0.6-11.3-1.2-20.4-1.7-30.4l-0.4-7.2l6.7-2.7c16.4-6.5,22-17.9,21.4-43.8
		c-0.5-23.4-0.4-49.2,0.6-81.2c0.4-12.7-2.2-13.7-8.1-14.6l-0.5-0.1c-4.4-0.7-11-1.7-15.2-6.7l-1.1-1.2c-5.1-6-11.5-13.4-10.7-22.3
		c1-10.4,11.3-18.8,17.2-22.2c6.9-3.8,15-3.6,21.6-3.5l1.3,0c21.5,0.4,43.3,1,64.5,1.5c19,0.5,38.6,1,57.9,1.4
		c10.4,0.2,27.9,0.6,34.9,19.5c5.7,15.1,0.6,29.2-13.8,38.7c-4.3,2.8-4.7,6.3-4.8,15.4l0,1.8c-0.1,9.3-0.2,18.7-0.2,27.9
		c-0.1,20-0.2,40.6-1,61c-0.4,9.5-4,23-12.8,29.9c-44.2,34.9-91.7,52.2-145.3,53L709.5,737.8z M727.3,698.7c0.3,6,0.7,12,1.1,18.6
		c45.2-2.5,85.7-18.4,123.7-48.4c2.2-1.8,4.9-8.6,5.2-15.1c0.9-20,0.9-40.4,1-60.2c0-9.2,0.1-18.7,0.2-28l0-1.8
		c0.1-9.7,0.2-23.1,13.9-32c8.2-5.3,7.7-10.3,6-14.9c-1.9-5.1-4.7-6.2-16.6-6.5c-19.3-0.4-39-0.9-58-1.4
		c-21.1-0.5-42.9-1.1-64.4-1.5l-1.4,0c-3.9-0.1-9.2-0.2-11.3,0.9c-3.1,1.7-6,4.7-6.9,6.3c0.9,2,4.1,5.8,5.8,7.7l0.4,0.5
		c1,0.3,2.8,0.6,3.8,0.7l0.5,0.1c25.9,4.1,25.2,27.3,25,34.9c-0.9,31.6-1.1,57.1-0.6,80.2C755.2,661.3,752.1,685.5,727.3,698.7z
		 M726.7,523.9L726.7,523.9C726.7,523.9,726.7,523.9,726.7,523.9z"/>
</g>
<path class="st1" d="M850.6,459.5c-12.2,0-21.9-7-27.2-20c-1.9-4.5-3.3-9-4.7-13.4c-1-3.2-1.9-6.2-3-9.1c-1.5-4.1-3-8.3-4.4-12.3
	c-3.7-10.7-7.3-20.8-12.2-30c-17.8-33.1-41.7-56-76-59.8l-30,1c-0.1-7.5,11.1-19.6,11-26c-0.1-5.1-0.9-10.6-1-16l4-12
	c0,0,20.1,2.3,22.1,2.3c4.9,0.1,9.5,0.2,14.3,1.4c21.9,5.7,45.3,11.9,68.2,19c10.1,3.2,12.9,2.1,16.8-2.8
	c11.4-14.5,27-18.2,38.7-9.2c8.8,6.7,13,20.2,13.1,29.9c0.7,39.7,0.3,80.1,0,119.1l-0.1,6.1c-0.2,23.2-14.7,29.4-23.3,31
	C854.8,459.3,852.6,459.5,850.6,459.5z M732.6,301.3c17.8,3.2,33.7,9.9,47.3,20c14.4,10.7,26.8,25.5,36.8,44.1
	c5.7,10.6,9.6,21.9,13.5,32.8c1.4,3.9,2.8,8,4.3,11.9c1.3,3.4,2.3,6.8,3.4,10.1c1.3,4.1,2.5,8,4,11.7c3.4,8.2,7.7,8.1,11.5,7.4
	c2.9-0.5,6.9-1.3,7-11.6l0.1-6.1c0.4-38.9,0.7-79.1,0-118.6c-0.1-5.8-3-12.6-5.3-14.4c-3.9-3-10.2,4.8-10.9,5.7
	c-12,15.3-26.2,13.4-38.5,9.5c-22.4-7-45.5-13.1-67.2-18.7c-1.7-0.4-3.8-0.6-6.1-0.7c0,1.7,0.1,3.3,0.1,5
	C732.4,293.2,732.5,297.1,732.6,301.3z"/>
</svg>
