<?xml version="1.0" encoding="utf-8"?>
<!-- Generator: Adobe Illustrator 24.0.1, SVG Export Plug-In . SVG Version: 6.00 Build 0)  -->
<svg version="1.1" id="Layer_1" xmlns="http://www.w3.org/2000/svg" xmlns:xlink="http://www.w3.org/1999/xlink" x="0px" y="0px"
	 viewBox="0 0 78.2 78.2" style="enable-background:new 0 0 78.2 78.2;" xml:space="preserve">
<style type="text/css">
	.st0{fill:#FFFFFF;}
</style>
<path class="st0" d="M39.1,0C17.5,0,0,17.5,0,39.1s17.5,39.1,39.1,39.1s39.1-17.5,39.1-39.1S60.7,0,39.1,0z M66.5,39.1
	c0,0,0,8.9-1.1,13.2c-0.6,2.4-2.5,4.2-4.8,4.8c-4.3,1.1-21.5,1.1-21.5,1.1s-17.2,0-21.5-1.2c-2.4-0.6-4.2-2.5-4.8-4.8
	C11.7,47.9,11.7,39,11.7,39s0-8.9,1.1-13.2c0.6-2.4,2.5-4.3,4.8-4.9c4.3-1.1,21.5-1.1,21.5-1.1s17.2,0,21.5,1.2
	c2.4,0.6,4.2,2.5,4.8,4.8C66.6,30.2,66.5,39.1,66.5,39.1z"/>
<path class="st0" d="M33.6,47.3l14.3-8.2l-14.3-8.2V47.3z"/>
</svg>
