<?xml version="1.0" encoding="utf-8"?>
<!-- Generator: Adobe Illustrator 24.0.1, SVG Export Plug-In . SVG Version: 6.00 Build 0)  -->
<svg version="1.1" id="Layer_1" xmlns="http://www.w3.org/2000/svg" xmlns:xlink="http://www.w3.org/1999/xlink" x="0px" y="0px"
	 viewBox="0 0 78.2 78.2" style="enable-background:new 0 0 78.2 78.2;" xml:space="preserve">
<style type="text/css">
	.st0{fill:#FFFFFF;}
</style>
<path class="st0" d="M39.1,46.9c4.3,0,7.8-3.5,7.8-7.8c0-1.7-0.6-3.3-1.5-4.6c-1.4-2-3.7-3.3-6.4-3.3c-2.6,0-4.9,1.3-6.3,3.3
	c-0.9,1.3-1.5,2.9-1.5,4.6C31.3,43.4,34.8,46.9,39.1,46.9L39.1,46.9z"/>
<path class="st0" d="M56.2,29.5V22h-1h-6.6v7.5H56.2z"/>
<path class="st0" d="M39.1,0C17.5,0,0,17.5,0,39.1s17.5,39.1,39.1,39.1s39.1-17.5,39.1-39.1S60.7,0,39.1,0L39.1,0z M61.4,34.5v18.2
	c0,4.7-3.9,8.6-8.6,8.6H25.5c-4.7,0-8.6-3.9-8.6-8.6V25.4c0-4.7,3.9-8.6,8.6-8.6h27.3c4.7,0,8.6,3.9,8.6,8.6V34.5z"/>
<path class="st0" d="M51.3,39c0,6.7-5.5,12.2-12.2,12.2S26.9,45.7,26.9,39c0-1.6,0.3-3.2,0.9-4.6h-6.6v18.2c0,2.4,1.9,4.3,4.3,4.3
	h27.3c2.4,0,4.3-1.9,4.3-4.3V34.4h-6.6C51,35.9,51.3,37.4,51.3,39L51.3,39z"/>
</svg>
