<?xml version="1.0" encoding="utf-8"?>
<!-- Generator: Adobe Illustrator 24.0.1, SVG Export Plug-In . SVG Version: 6.00 Build 0)  -->
<svg version="1.1" id="Layer_1" xmlns="http://www.w3.org/2000/svg" xmlns:xlink="http://www.w3.org/1999/xlink" x="0px" y="0px"
	 viewBox="0 0 78.2 78.2" style="enable-background:new 0 0 78.2 78.2;" xml:space="preserve">
<style type="text/css">
	.st0{fill-rule:evenodd;clip-rule:evenodd;fill:#FFFFFF;}
</style>
<path class="st0" d="M39.1,0C17.5,0,0,17.5,0,39.1s17.5,39.1,39.1,39.1s39.1-17.5,39.1-39.1S60.7,0,39.1,0L39.1,0z M58.9,43.3
	c1.8,1.8,3.8,3.5,5.4,5.4c0.7,0.9,1.4,1.8,1.9,2.8c0.7,1.4,0.1,3-1.2,3.1h-8c-2.1,0.2-3.7-0.7-5.1-2.1c-1.1-1.1-2.1-2.3-3.2-3.5
	c-0.4-0.5-0.9-0.9-1.4-1.3c-1.1-0.7-2-0.5-2.7,0.6c-0.6,1.2-0.8,2.4-0.8,3.7c-0.1,1.9-0.7,2.4-2.6,2.5c-4.1,0.2-7.9-0.4-11.5-2.5
	c-3.1-1.8-5.6-4.3-7.7-7.2c-4.1-5.6-7.3-11.8-10.2-18.1c-0.6-1.4-0.2-2.2,1.4-2.2c2.6-0.1,5.2,0,7.8,0c1.1,0,1.8,0.6,2.2,1.6
	c1.4,3.5,3.1,6.8,5.3,9.9c0.6,0.8,1.2,1.6,2,2.2c0.9,0.6,1.6,0.4,2.1-0.6c0.3-0.7,0.4-1.4,0.5-2.1c0.2-2.4,0.2-4.8-0.1-7.2
	c-0.2-1.5-1.1-2.5-2.6-2.8c-0.8-0.1-0.7-0.4-0.3-0.9c0.6-0.8,1.3-1.2,2.5-1.2h9.1c1.4,0.3,1.7,0.9,1.9,2.4v10.1
	c0,0.6,0.3,2.2,1.3,2.6c0.8,0.3,1.3-0.4,1.8-0.9c2.2-2.3,3.7-5,5.1-7.8c0.6-1.2,1.1-2.5,1.7-3.8c0.4-1,1-1.4,2-1.4h8.7
	c0.3,0,0.5,0,0.8,0c1.5,0.3,1.9,0.9,1.4,2.3c-0.7,2.3-2.1,4.1-3.5,6c-1.5,2-3,4-4.4,6C57.2,40.7,57.3,41.7,58.9,43.3L58.9,43.3z"/>
</svg>
