<?xml version="1.0" encoding="utf-8"?>
<!-- Generator: Adobe Illustrator 24.0.1, SVG Export Plug-In . SVG Version: 6.00 Build 0)  -->
<svg version="1.1" id="Isolation_Mode" xmlns="http://www.w3.org/2000/svg" xmlns:xlink="http://www.w3.org/1999/xlink" x="0px"
	 y="0px" viewBox="0 0 450.7 450.7" style="enable-background:new 0 0 450.7 450.7;" xml:space="preserve">
<style type="text/css">
	.st0{fill:#E41924;}
</style>
<path class="st0" d="M268.6,225.3L441.7,52.2c11.9-11.9,11.9-31.3,0-43.3C429.8-3,410.4-3,398.4,9L225.3,182.1L52.2,9
	C40.3-3,20.9-3,9,9C-3,20.9-3,40.3,9,52.2l173.1,173.1L9,398.4C-3,410.4-3,429.8,9,441.7c11.9,11.9,31.3,11.9,43.3,0l173.1-173.1
	l173.1,173.1c11.9,11.9,31.3,11.9,43.3,0s11.9-31.3,0-43.3L268.6,225.3z"/>
</svg>
