<svg version="1.1" id="Layer_1" xmlns="http://www.w3.org/2000/svg" x="0" y="0" viewBox="0 0 787.9 876.3" xml:space="preserve"><style>.st1{fill:#1f1b1c}.st2{fill:#fff}</style><path d="M776.9 407.1C776.9 185.6 605 6 393 6S9.1 185.6 9.1 407.1c0 200.8 141.2 367.2 325.5 396.5l-17.1 10.8c-.8.5-1.5 1.1-2.5 1.8 1 .8 1.7 1.4 2.5 1.9 7.4 4.7 14.9 9.3 22.3 14.2 2.2 1.5 3.9 1.6 6.1 0 2.9-2.1 6-3.9 9.2-5.9 3.5 10.5 10.8 17.2 20.8 21.8-1.9 1.3-3.4 2.4-5.2 3.7 9.3 5.9 18.2 11.5 27.2 17.3 3.9-2.6 7.6-5 11.3-7.4 12.3-7.8 24.5-15.6 36.8-23.4 10.5-6.6 21-13.1 31.5-19.7.9-.6 1.8-1.2 3-2.1-7.6-4.9-14.8-9.6-21.9-14.2 180.9-32.6 318.3-197.2 318.3-395.3zM425 841.4c-6.7 4.3-14 6.7-22.1 7-7.8.3-15.4-.8-22.7-3.5-5.1-1.8-9.6-4.6-13.4-8.4-7.8-7.6-9.8-16.6-6.6-26.9.3-1 .7-1.9 1.1-2.8 5.2.4 10.5.8 15.8 1-.6 2-1.1 4.1-1.3 6.4-.3 3.4-.3 7 .2 10.4 1.9 11.5 11 19.8 24.2 20.8 6.6.5 13-.4 18.8-4 2-1.3 3.7-2.9 5.8-4.6 1 .6 2 1.2 3.4 2-1.3 1-2.2 1.9-3.2 2.6zm18.8-35c-6.9 4.3-13.8 8.6-20.8 12.9l-29.1 18c-1.1.7-2.1 1.4-3.6.6-3.8-2.2-6.8-5-8.6-9.1-2.3-5.4-2.3-11-1.3-16.6.2-1.3.9-2.1 2-2.8.7-.4 1.3-.8 2-1.2 2.8.1 5.7.1 8.5.1 8.5 0 17-.3 25.4-.9.1.1.2.2.2.4h12.4c.1-.4.1-.9.2-1.5 5.4-.6 10.7-1.2 16.1-2-1.1.7-2.2 1.4-3.4 2.1z" fill="#e52225"/><path d="M354.8 31.1l2.3 17c.1.5-.1 1.1-.6 1.6s-1 .8-1.7.9c-1 .1-1.7-.1-2.2-.6-.4-.6-1-1.8-1.5-3.6-.6-1.8-1.4-3.6-2.4-5.4-1.1-1.8-2.6-3.1-4.6-4.1l-.6-4.2 11.3-1.6zM321.2 36.8l.7 4.2c-1.6 1.5-2.7 3.3-3.2 5.3s-.7 4-.7 5.9-.1 3.2-.4 3.9c-.3.7-.9 1.1-1.9 1.3-.7.1-1.3 0-1.9-.3-.6-.3-.9-.8-1-1.3l-3-17 11.4-2z"/><path class="st1" d="M586.4 435.9h134.9v129.7H586.4z"/><path class="st1" d="M643.4 467.3c2.5-1.8 12.7-10.3 15.4-12.6 5.8-3.1 12.8-6.5 14-6.8 2 0 16.9-.3 16.9-.3h1.9l5.3-11.4-6-23.5-24-20.6-25.7-5-4.2 8.9v.7c.4 11 .9 15.1 1.6 16.8-.2 2-1.6 8.5-3.1 14l-17.4 22.8-.2.4c-3 5.6-6.6 11.9-7.5 13.1-1.1.6-4.6 1.8-6.9 2.7-7 2.6-8.6 3.1-9.2 4.8-.4.7-2 3-3.3 4.9-4.5 6.6-5.3 7.9-5.6 8.9 0 .2-.1.5-.3.8-1 2.9-1.8 5.9-.8 8.4.9 2.2 4.1 4 10.4 7 .7.3 1.3.6 1.5.7.3.2 1.3.8 9 3l1.3.4 1.2-.8c3.1-2.1 10.5-7.3 11.8-8.5.8-.8 4-3.9 6.1-5.9 1.4 1.2 3.2 2.5 4.7 3.3 1.6.8 10.3 7.7 12.5 10.1-.1 2.1.1 6.7 1.3 17.5.2 1.4.8 3.1 2 6.1 1.3 3.2 3 7.6 3.2 10.3.2 3.7 1.2 7.9 1.8 10.6.3 1.1.5 2 .5 2.2s-.1.7-.3 1.2L609.6 533l.4 1.2c-1.5-.6-3.6-1.3-4.4-1.6-.9-.3-2.9-.7-6.7-1.6-2.2-.5-4.7-1-7.1-1.6-3.9-.9-8.2-.7-11-.4-3.2-14.6-7.9-35.7-8.1-37.2 0-.4.4-1.4.9-2.4 1.9-2.3 4.2-5.3 4.6-6.7.4-.8 2.7-4.1 3.7-5.4.6-.8 1-1.4 1.3-1.8 1-1.5 1-3.9.3-12.5-.1-1.1-.2-1.9-.2-2.3 0-1.6-.8-2.9-1.4-3.9-.2-.3-.5-.8-.5-1-.4-1.2-1-2.9-11.3-5.5l-1.4-.4-1.2.9c-2.8 2.2-6.5 4.8-7.6 5.2-1.9.8-7.2 1.7-10.4.4-4.8-1.9-14.4-2-15.5-2h-.9l-22.7 15.1-6.1 28.5 8.1 30.5c-4 4.3-8.6 8.8-9.8 9.5-1.2.6-7.2 1.8-13.5 3 .2-2.1.3-4.8-.1-8.4-.7-7 2-57.3 3.6-83.9l7.8-8.1 11.6-13.8 1.3-11.4c4.9-6.7 10.5-14 11.6-14.9 1.5-1.1 5.3-7.3 11.3-18.4l7.5-19.8c4.8-8.2 19.8-34.1 20.7-37.7.5-1.9 4.3-11.3 7.7-19.5.5 6.5.8 23.7.8 39.5l-8 19.7 14.2 13.2 54.4 17-2.5-5.9s-7-16.5-7.8-18.7c-.5-1.2-1.4-2.5-2.5-4s-2.8-3.8-3-4.9c-.2-1.2.2-1.6.1-1.5l1.2-.9v-20.3l-6.6-27.3-19.2-87.7-8-20.3-1.1-.5c-4.4-2-19-8.5-22.2-9-2.7-.4-17.3-4.6-18.7-5.1-.6-.2-1.9-.6-17.3.3l-52 4.4-89.9 9.2-73.3 8.3c-33.2 3.7-84.2 9-88.5 8.7-3.6-.3-12 1.6-24.4 4.6-7.4 1.7-15 3.5-17.9 3.7-6.2.4-8.8 2.6-10.2 3.9-.1.1-.3.2-.4.3-3 1.4-7.5 9.8-7.5 11.9 0 1.3.4 30.2.4 34.1-5.7 22.6-15.3 59.1-17.3 63.1-1.4 1.8-2.4 7-5 54.2-.4 6.5-.7 12.7-.8 13.8-.2.9 0 1.9.6 2.7 2.1 2.9 11 3.1 11.1 3.1.7 0 1.9 0 21.2-7.6l15.8-11.9 18.3-16.9-1.1-2.1c-.1-.2-1.3-2.3-2.7-4.7 1.5-4.6 1.7-17.1-12.4-56.5l-.4-1.1c-.5-1.5-.7-4-.6-6.6l39.4 57.3 62.6 73.5c2.1 7 4.2 14.6 4.4 15.6 0 1.9 0 3.1 15.8 11.2l9.5 21.4-.2 37.3-14.1-20.4-15.8-10-16.7 3.5-16.3 4.2c.4-.5.8-.9 1.1-1.3 2.1-2.8 4.4-17.5 4.4-20.6 0-3.8-1.5-9-1.7-9.6l-.5-1.5-1.5-.5c-2-.6-4.3-1.5-5-2-.7-1.4-2.3-6.6-2.5-7.8 0-1.8-1.1-3.7-7.2-11.1-2-2.4-5.9-8.4-5.9-8.4l-.6-1-1.1-.3c-3.8-1-8.5-2.4-9.3-2.8-.8-.5-2.1-1.4-17.2-.8l-22.3 5.9-15 19.1 1.3 32.1-3.8 10.8 15.4 25.6 10.4 18.4-2.8 3.9-8.1 9.2-10.3-2.8.4 2.4c-3.5 1.1-11 2.8-14 1.8-1.5-.5-3.3-1.1-16.5 9.8l-.5.4-6.9 14.1-15.6 10.2 3.3-13.6 10.8-15.4 18.4-7.4 7.1-8.8 6.9-2.6.8-4c.7-1.1 1.9-3.4 1.9-5.5 0-2.2-1.1-5.4-1.3-6l-2.2-4.5-1.8-7.4-2.9-6.3-4.6-7.8-8.8-3.9-14.4.9-12.7 4.5-19.5 24.7-6 25.6-.8 5.3-1.4 4.2-2.2 5-21 51.8 41.1 57.3 6.5-6.5 33.3-15.4 7.8-10.1 14.8 24.6V695l-10.8 31 2.7 1.1c7.1 2.9 14.7 5.9 22.5 9.1 25.1 16.9 75.7 46.4 140.8 57.2l6.2 1.1 62.2-39 57.6 36.9 10-1.5s108.9-16 194-104.5l-.9-2.7 2.8-1.5-27.5-83c7.4 1.1 15.7 2.3 16.5 2.5.5.2 1.3.4 27.3 1.6h.6l16.8-6.5-.3-18.4-7.3-32.3L677 526l-8.3-18-2.3-9.9 4-6.8-6.7-13.3-10.1-5.7-10.7-.7c.1-.5.2-1.1.3-1.6-.4-.5-.1-2.1.2-2.7zM441.1 354.9c-1.4-.9-1.6-2.1-1.6-3.6.2-4.6.5-9.3.2-13.9-.3-6.1-2.5-11.6-6.6-16.3-1.9-2.2-3.5-4.7-5.3-6.9-1.6-2-3.2-3.9-5.5-5.3-2.2-1.3-4.2-3.1-6.2-4.7-2.7-2.2-6-3-9.2-4-2.4-.7-5-.8-7.6-1.2-2.7-.4-5.2.3-7.4 1.7-3.8 2.4-7.9 4.7-11.1 7.8-6.3 6.1-12.4 12.6-15.3 21.1-2.1 6.1-3.5 12.5-3.2 19.1.1 1 0 2 .2 2.9.6 4-.3 7.4-2.8 10.6-2 2.4-1.5 5.4-.6 8.1.6 1.9 1.6 3.8 2.7 5.5 2.1 3.3 3.8 3.9 7.7 2.8.4-.1.8-.2 1.2-.2 3.1 3.4 4.1 7.7 5.4 11.8.9 2.8 1.5 5.7 2.4 8.5 1.1 3.5 1.3 7 1.1 10.6-.1 1-.2 2-.5 2.9-1 2.8-2.5 4-5.4 3.5-2.8-.4-5.6-.7-8.1-2.8-4.5-3.9-9.7-5-15.5-2.9-.8.3-1.7.2-2.6.3-.5.1-1.2.1-1.6.4-5.7 4.2-11.4 1.1-17.1.1-.5-.1-.9-.6-1.3-.9-.3-.3-.5-.8-.9-1-5.2-2.6-8.4-7.6-13.5-10.4-3.8-2.1-7.2-5-10.2-8.4-6.6-7.5-13.5-14.7-20.4-21.9-1.3-1.4-3-2.5-4.8-3.3-2.9-1.3-4.7-3.6-5.8-6.3-3.1-7.6-8.1-13.9-13.3-19.9-6.9-8-14.1-15.6-21.1-23.4-4-4.4-8.3-8.6-12-13.3-5.5-7-10.6-14.3-15.8-21.5-.1-.1 0-.4-.1-.8 2.4-.3 4.6.6 6.8 1.5 2.1.8 4 2.1 6.2 2.9 5.3 1.9 10.7 2.6 16.3 1.8 6.9-1 13.7-2 20.6-3 5.9-.8 11.9-1.4 17.8-2.2 6.8-.9 13.6-1.6 20.3-2.8 14.2-2.6 28.4-4.8 42.8-6.1 15.1-1.4 30.2-3.2 45.3-4.7 4.2-.4 8.5-.2 12.7-.6 6.9-.6 13.8-1.5 20.7-2.2 11.8-1.3 23.6-2 35.4-2 3.1 0 6.3-.5 9.4-.3 5.6.3 11.2.9 16.8 1.3 6.1.4 12.1.6 18.2.7 2.3.1 4.5.2 6.6 1.5 1.2.7 2.7.8 4 1.3 2.8.9 5.5 2 8.3 2.8 3.7 1 7.5 2 11.3 2.8 5.1 1 10.2 1.8 16 2.8-.8 2-1.4 3.7-2.1 5.4-4.3 10.3-8.7 20.6-12.9 30.9-2.1 5.2-3.9 10.6-5.8 15.8-.3.8-.8 1.5-1.4 2.2-2.6 3.2-5.3 6.3-7.9 9.4-1.1 1.3-2.2 2.7-3.1 4.2-3.8 6.7-7.5 13.4-11.2 20.1-1.6 2.9-3.1 6-5.2 8.6-2.5 3.2-5.8 5.8-8.5 8.9-1.7 1.9-3.3 4-4.6 6.2-.8 1.4-1.7 2.6-3.1 3.6-1.8 1.3-3.3 3.1-5.2 4.4-3.3 2.1-6.6 4.3-10.8 3.7-4.2-.7-8.4-.4-12.6.3-2.5.4-4.5 1.6-5.9 3.6-.7 1-1.4 1.9-2 3-1 1.6-2.2 2.6-4.3 2.4-.7-.1-1.4.3-2.2.5-3.5.8-6-.4-7.2-3.8-1.2-3.4-2.1-6.9-1.7-10.5.5-4.9 1.1-9.7 1.7-14.5.1-.9.6-1.8.9-2.8.9.1 1.7 0 2.4.2 2.4.7 4.3-.2 5.9-1.9 3.1-3.2 5-7.1 5.9-11.4.8-3.7.1-6.8-3.1-8.8zM256.5 503.5c-.2 3.3-.4 6.8-.6 10.1-.7-2.8-1.2-5.3-1.3-6.7-.2-2.1.8-3.6 2-5l-.1 1.6zM488 79.4c1.8 1.6 3.6 3.1 5.2 4.9 3.4 3.9 1.7 8.8-3.3 10-1 .2-2.1.5-3 .7-.3 1.3-.6 2.3-1 3.7 2.9 1.2 5.6 1 8.2.8 14.3-1.3 20.6-18.1 13.1-28.1-2.4-3.2-5.2-5.8-8.3-8.1-2.4-1.8-4.9-3.6-6.4-6.4-1.8-3.3-.7-6.6 2.7-8.1 1-.4 2-.7 3.1-1.1.3-1.3.5-2.6.8-3.8-6.3-2.3-13.3-.6-17.9 4.4-6.6 7.2-6.8 17.6-.2 24.8 2.1 2.3 4.7 4.2 7 6.3zM80.7 276.5c3.9-2 7.3-4.7 10.5-7.6 1.5-1.4 3-2.9 4.6-4.1 1.9-1.4 4-2.3 6.4-1.2 2.3 1.1 3.3 3 3.5 5.5.1 1.2 0 2.4 0 3.5 1.3.6 2.3 1.1 3.4 1.5 2.3-4.1 2.9-9 1.7-14-2.2-9.2-11.2-15.2-20.1-13.3-4.3 1-7.9 3.5-11.1 6.5-2.6 2.4-5.2 4.9-8.3 6.8-3.8 2.3-7.7.2-8.5-4.2-.2-.9-.2-1.9-.3-3-1.1-.5-2.2-1-3.2-1.4-.3.3-.4.4-.5.6-4 9.6-.7 19 8.4 23.8l1.2.6c4 2.1 8.1 2.2 12.3 0zM415.7 84.9c.4.1.9.1 1.3.1 4.7.6 9.5 1.2 14.2 1.8 1.6.2 3.2.4 4.9.3.7 0 1.8-.8 1.9-1.3.2-.8-.2-2.2-.8-2.5-2.5-1.1-2.3-3-2.1-5.2 1.7-13.6 3.3-27.1 5-40.7.2-1.5.2-3 .4-4.8-2.1-.3-3.8-.5-5.6-.8L422 30.3c-1.3-.1-2.4.2-2.9 1.6-.4 1.3.3 2.1 1.3 2.7 1.8.9 2 2.3 1.8 4.1-.9 6.8-1.6 13.6-2.4 20.4-.7 6-1.5 12.1-2.2 18.1-.2 1.4-.6 2.5-2.2 2.8-1.5.3-2.4 1.1-2.3 2.6 0 1.5 1.3 2 2.6 2.3zM256.3 59.5c2.7 0 3.4 1.8 4 3.9 3.5 11.9 7 23.7 10.6 35.6.5 1.8.8 3.3-1 4.6-.9.6-1.5 1.7-.8 2.9.7 1.3 1.9 1.3 3.1 1 .3-.1.6-.1 1-.2 5.9-1.9 11.7-3.8 17.6-5.8.3-.1.7-.1.9-.4.5-.7 1.3-1.5 1.3-2.3 0-.6-1.1-1.6-1.7-1.6-2.8.1-3.3-1.8-3.9-3.9-3.9-13.4-7.9-26.8-11.9-40.2-.3-1-.7-2-1.1-3-.5 0-.8-.1-1.1 0-5.3 1.6-10.6 3.2-15.9 4.9-.6.2-1.4.4-1.7.8-.5.6-1 1.5-.9 2.2.1.5 1 1.5 1.5 1.5zM155.1 125.5c2.2-.8 3.5.2 4.5 2 .4.7.9 1.2 1.3 1.8l21.3 27.9c1.1 1.4 1.7 2.7.7 4.4-.7 1.1-1.1 2.3.2 3.2 1.1.8 2.3.3 3.3-.4.4-.3.9-.7 1.3-1 4.5-3.6 9-7.2 13.4-10.8.6-.5 1.3-1 1.5-1.6.2-.7.3-1.8-.1-2.4-.4-.5-1.6-1-2.2-.7-2.3 1-3.4-.2-4.6-1.8-2.6-3.5-5.2-6.9-7.8-10.4l-14.4-18.9c-1.7-2.2-3.3-4.5-5.2-7.1-5 4-9.6 7.8-14.3 11.5-.3.2-.6.4-.7.7-.3.9-.8 1.8-.6 2.6.2 1.3 1.4 1.4 2.4 1zM114.7 167.8c2-1 3.3-.2 4.6 1.1 2.3 2.3 4.5 4.7 6.8 7 6.3 6.3 12.7 12.5 19 18.7.5.5.9.9 1.3 1.4.9 1 1.4 2.2.7 3.6-.6 1.2-.7 2.3.6 3.1 1.3.8 2.3-.1 3.1-.9.5-.4.9-.9 1.4-1.4 3.9-4.1 7.7-8.2 11.6-12.3.6-.6 1.2-1.4 1.4-2.1.2-.7-.1-1.7-.6-2.3-.3-.4-1.5-.6-2-.3-2.4 1.5-3.8.1-5.3-1.5l-29.1-28.8c-.8-.8-1.7-1.6-2.8-2.6-4.4 4.8-8.7 9.4-13 14-.7.8-1.4 2-.3 2.9.6.4 1.9.7 2.6.4zM367.3 79.4c-1.2.4-2.2 1.2-1.9 2.6s1.4 1.8 2.7 1.9h16.3c.7 0 1.4-.2 2.1-.4v-54c-.5-.1-.9-.4-1.3-.4-5.5 0-11.1-.1-16.6 0-1.3 0-2.7.3-3.1 1.8-.3 1.5.8 2.1 2 2.5 1.5.5 1.8 1.7 1.8 3.1v39.4c-.1 1.7-.3 3-2 3.5zM331 81.9c.3 2 .4 3.6-1.8 4.6-1 .4-1.6 1.4-1 2.4.5.7 1.5 1 2.3 1.3.5.2 1.1 0 1.6-.1 5.8-.9 11.6-1.8 17.3-2.8.6-.1 1.4-.1 1.9-.5.6-.5 1.4-1.2 1.4-1.9 0-.6-.8-1.8-1.3-1.8-2.7-.4-3-2.3-3.4-4.4-2.2-14.4-4.4-28.7-6.6-43.1-.1-.7-.4-1.4-.7-2.3-5.6 1-11 2-16.5 3.1 0 .8-.1 1.5 0 2.1 2.3 14.4 4.6 28.9 6.8 43.4zM79.3 221.2c2.2-1.9 3.9-.8 5.8.5 8.8 5.9 17.8 11.7 26.5 17.6 3.4 2.3 6.8 2.5 10.4.9 5.8-2.4 9.8-6.6 12.7-12.6-1.5-.7-2.4-2.5-4.1-1.6-3.2 1.8-5.8.7-8.5-1.1-3.8-2.6-7.7-5.2-11.6-7.8-5.4-3.6-10.8-7.3-16.2-10.8-1.8-1.2-3.3-2.3-2.6-4.9.2-.6-.5-1.8-1.1-2-.6-.3-1.7.1-2.3.5-.6.4-1 1.1-1.4 1.8-3.2 5-6.4 10.1-9.6 15.1-.4.6-.9 1.4-.9 2 0 .8.3 1.8.8 2.2.4.5 1.7.5 2.1.2zM446.3 45.9c-.5 2.4-.6 4.9-.9 7.4-.3 3.1-1.4 5.7-5.1 6.2-.1 1.4-.2 2.7-.3 4 3.2 1.4 3.7 3.9 3.4 6.8-.3 2.7-.7 5.4-1 8.1-.3 4 .5 7.6 4 10.1 5.1 3.6 13.1 2.6 17.2-2.3.5-.7 1-1.4 1.3-2.2.4-1.3-.1-2.4-1.2-3.1-1-.7-1.8 0-2.5.7-.3.3-.8.5-1.8 1 .3-2.9.6-5.2.9-7.6.7-6-1.1-9.2-6.6-11.7-.8-.4-1.7-.8-2.9-1.4 1.6-.5 2.7-.8 3.8-1.1 10.2-2.9 10.8-17.2 5.2-22.2-4.7-4.2-10.1-5.4-16.2-5.6-.2 1.5-.4 2.8-.7 4.4 3.6 2 4.1 4.9 3.4 8.5zM285 58.8c.6 2.5 1.4 5 2.2 7.5 1 3 1.1 5.8-2.3 7.6.3 1.2.6 2.2 1.1 3.6 3.8-.1 5.1 2.3 6.1 5.3 1 3.2 2 6.4 3.2 9.5 1.5 3.8 5 5.9 9 5.6 2.7-.2 5.4-1 7.6-2.6 2.8-2.1 4.3-5.1 4.8-8.5.2-1.2-.3-2.1-1.5-2.5-1.1-.3-1.8.1-2.4 1.1-.3.6-.9 1-1.5 1.7-.4-1-.7-1.5-.9-2.1-.6-1.9-1-3.8-1.6-5.6-1.2-4-3.8-6.5-8.1-6.9-1.9-.2-3.9 0-6.1 0 .8-.7 1.5-1.2 2.1-1.8 3-2.9 5.8-5.9 5.8-10.5-.1-8.4-6.3-14.6-14.5-14.1-3.6.2-6.8 1.8-10.5 2.8.5 1.5.8 2.7 1.2 3.9 4.1.1 5.5 2.7 6.3 6zM227.1 80.3c3.9 7.5 8 14.9 12 22.4 1.8 3.4 3.7 6.9 5.5 10.3.9 1.6 1.5 3.3.5 4.9-1.4 2.2-.2 3.5 1.2 5.1 5.9-4 9.2-9.4 9.9-16.3.9-8.4-1.7-15.8-6.3-22.7-2.7-4-5.9-7.5-10.2-9.8-6.5-3.5-13.2-3.7-20.2-.5l1.7 3.4c2.6-.1 4.6.8 5.9 3.2zM213.3 115.4c3.3 4.8 7.5 8.4 13 10.4 5.7 2 11.2 1.6 17.2-1.2-1.1-1.3-1.9-3-2.9-3.1-3.3-.2-4.6-2.4-5.9-4.8-5.3-10-10.6-19.9-16-29.8-1.5-2.8-2.4-5.4-.1-8.1-.7-1.2-1.3-2.1-1.9-3.3-.6.3-1 .5-1.3.7-6.8 5.4-9.8 12.6-9 21.2.5 6.6 3.2 12.5 6.9 18zM180.4 113.3c2.4 3.1 4.7 6.3 7.1 9.3 2.1 2.7 3.4 5.4.9 8.6.8 1.1 1.6 2 2.4 3 3.6-2.4 6.5-5.2 8.6-8.9 4.9-8.7-.5-21.4-10.2-23.9-7.6-2-13 2.1-18.4 6.7.9 1.1 1.7 2 2.5 3 3.1-1.5 5.3-.1 7.1 2.2zM137.3 151.5c2.8 2.6 5.5 5.2 8.3 7.8 2.7 2.6 4.9 5.3 2.9 9.3 1 .9 1.9 1.7 2.8 2.5 3.8-3.9 7-7.7 8-13 1.8-9.8-7.2-19.9-17.1-19-6.2.5-10.3 4.5-14.4 8.7 1.1 1.1 1.9 2.1 3 3.2 2.4-2.5 4.5-1.3 6.5.5zM97.7 192.2c2.3-1.4 4.6-.9 6.9 0 .9.4 1.8.9 2.6 1.4 6.5 4.3 13 8.6 19.5 13 1.5 1 2.8 2.3 4.1 3.7 2.1 2.1 3.1 4.7 2.9 7.7-.1 1.6-.3 3.2-.4 4.9 1 .6 2 1.2 3.6 2.2.5-2.2 1.1-3.9 1.2-5.5.4-6.8-2.7-11.9-8.1-15.7-6.6-4.6-13.3-8.9-20-13.4-3.4-2.3-6.2-4.8-5.7-9.4.1-.6-.5-1.7-1-1.8-.7-.2-1.6.2-2.3.5-.3.1-.5.4-.6.7-1.8 2.9-3.7 5.8-5.4 8.9-.4.7-.4 2 0 2.7.5 1.1 1.7.7 2.7.1zM470.9 93.9c.8-.3 1.5-.9 2.4-1.4 3.3 1.5 5.6 4.9 9.7 5.3.3-1.2.7-2.4.9-3-2.2-3.2-4.4-5.5-5.4-8.2-1.1-2.8-1.2-6.1-1.6-9.2-.2-2.3-.6-3.2-2.1-3.6-1.5-.3-2.4.4-3.1 2.6-.1.2-.1.4-.2.6-1.1 4.1-2.2 8.2-3.2 12.3-.2.9-.3 1.9-.2 2.9.2 1.7 1.3 2.3 2.8 1.7zM103.6 283.2c1.8-1.4 3.3-3.1 4.1-5.5-1-.7-2-1.4-2.9-1.9-1.9 1.4-3.4 2.7-5.1 3.6-3.5 1.7-7.3 1.8-11.2 1.2-1-.2-2-.5-2.9-.3-.8.2-1.8 1-2.1 1.7-.2.5.3 1.6.8 2.2.4.6 1.2.8 1.9 1.2l6.9 3.6c1.9.9 3.7 1.9 5.7 2.5 2.1.7 3.3-.5 2.6-2.6-.7-2.8.3-4.3 2.2-5.7zM404.7 66.7c-1.4-.3-2.2.5-2.8 1.7-.2.5-.3 1-.5 1.5-1.7 4.3-4.6 7.3-8.9 8.8l-2.4.9v4.2h16.2V69.2c0-1.2-.3-2.2-1.6-2.5zM73.8 245.1c1.9-.1 3.9.3 5.8.5 1.4.1 2.7.2 3.2-1.4.5-1.3-.1-2.6-1.7-3.4-3.9-1.9-7.8-3.8-11.8-5.5-.8-.3-2-.2-2.7.2-1 .6-.7 1.7-.1 2.6.8 1.2.5 2.2-.5 3.1-1.1 1-2.1 2.2-3 3.4-.9 1.1-1.7 2.4-2.8 3.8 1.4.7 2.4 1.2 3.7 1.8 2.8-3.1 6.1-4.8 9.9-5.1zM579.1 139.5c-.5-.2-1.8.3-2.2.8-.4.6-.3 1.7-.1 2.4.3.7 1.1 1.3 1.7 1.9 2.5 2.3 4.9 4.6 7.4 6.8 2.2 1.9 4.4 3.9 6.7 5.7 1 .8 2.1 1.2 3.3.2 1-.9.9-2 .3-2.9-.9-1.4-.6-2.6.4-3.8.5-.6.9-1.3 1.3-1.8 8.9-10.4 17.7-20.8 26.6-31.2.7-.8 1.3-1.7 2-2.7-4.8-4.4-9.5-8.6-14.2-12.7-1-.9-2.4-1.2-3.2-.2-.6.6-.8 2.2-.4 2.9 1.1 2.1.3 3.4-1 4.9-3 3.4-5.9 7-8.8 10.4-5 5.9-10.1 11.7-14.9 17.6-1.5 1.6-2.6 2.8-4.9 1.7zM624.6 128.8c-1.6 1.9-3.3 3.8-4.9 5.7-2.1 2.5-4.3 4.4-7.8 2.2-.9 1.2-1.6 2.3-2.3 3.2 1.3 3.9 1.2 4.8-1.3 7.9-1.6 1.9-3.1 3.9-4.7 5.8-1.6 2-2.7 4.1-3 6.7-.8 6.7 7.7 15.2 17.2 11.6.3-.1.7-.2.8-.4.4-.8 1-1.7 1.1-2.5 0-1.1-.9-1.6-2-1.7-.7 0-1.3-.2-2.4-.3 1.9-2.4 3.4-4.4 5.1-6.4 3.4-4 3-8.1.6-12.4-.5-1-1.1-1.9-2-3.3 1.6.5 2.6.9 3.6 1.2 9.5 2.7 18.3-5.5 16.5-15.2-1.2-6.3-5.6-10-10.3-13.8-1 1.1-1.9 2.1-3 3.3 2.3 3.3.8 5.9-1.2 8.4zM669.2 164c.4 2.5-.8 4.1-2.5 5.6-6.1 5.4-12.1 10.9-18.1 16.4-2.8 2.5-5.7 5-8.6 7.5-1.3 1.1-2.6 1.9-4.4 1.6-3.1-.5-3.1-.5-4.8 2.9 7 6.5 15.1 8.1 24.1 4.9 7.3-2.6 12.5-7.6 17-13.6 2.7-3.5 4.2-7.6 4.8-12 .9-6.3-.8-12-4.6-17.2-1.5 1-3.3 1.8-2.9 3.9zM628.6 165.7c-2.9 4-4.6 8.4-5 13.2-.5 5.7 1 10.9 4.9 16.1 1-1.7 3.2-1.9 2.7-4.1-.5-2.3.6-3.9 2.3-5.4 1.3-1.1 2.5-2.4 3.8-3.6 7.7-7 15.5-13.9 23.2-20.9 1.3-1.1 2.6-1.9 4.4-1.5 2.8.6 2.9.4 4.8-2.5-6-5.8-13.2-7.7-21.3-5.8-8.4 2.2-14.8 7.5-19.8 14.5z"/><path class="st1" d="M620.9 127.6c.1-.1.1-.2.2-.4-.1.1-.2.2-.2.4l-.3.3.3-.3zM619.1 130.1l1.5-2.2c-.6.6-1.3 1.2-1.9 1.8.1.1.2.3.4.4zM621.9 125.5c-.3.6-.5 1.2-.8 1.7.4-.5.8-1 1.3-1.4-.2-.1-.4-.2-.5-.3zM549.7 128.4c.5-2 1.5-3.7 1.1-5-.7-2.3-.4-4.3.7-6.2 5.5-10.3 11.1-20.7 16.6-31 1.3-2.4 3.2-4.1 6.1-4.1.6-1.4 1.2-2.6 1.9-3.9-2.5-1.3-4.9-2.1-7.4-2.2-6.7-.3-12.5 1.9-17.5 6.5-8.4 7.7-12.5 17.1-11.8 28.4.4 7.2 3.5 13 10.3 17.5zM560 121.5c-1.3 2.6-2.9 4.6-6.2 4.3-.6 1.3-1.1 2.5-1.8 4 6.1 3.1 12.1 3.6 18.4 2.5.9-.2 1.8-1.1 2.3-2 1.8-3.2 3.5-6.5 5.3-9.7.6-1 1.1-2.1 2.5-2.3 1.4-.1 2.5-.8 2.7-2.4s-.9-2.3-2.1-2.9c-4.5-2.5-8.9-5-13.4-7.4-.7-.4-1.4-.8-2.1-.8-.8 0-1.8.3-2.2.9-.4.5-.1 1.6.1 2.3.1.4.5.7.9.9 1.5 1.1 1.2 2.3.4 3.7-1.7 2.9-3.3 5.9-4.8 8.9zM582.6 95.4c0 1.9-.4 3.9-.6 5.8-.1 1-.4 1.9-.4 2.9-.1 1.3.4 2.4 1.7 2.8 1.4.4 2.3-.4 2.9-1.5 2.5-4.6 4.9-9.2 7.3-13.8.4-.9.6-2.2.3-3-.6-1.3-2.1-1.1-3.2-.6-1.5.7-2.4.1-3.4-.9-2.1-2.1-4.2-4-6.4-6-.5-.5-1.2-.8-2-1.2-.7 1.3-1.3 2.5-2 4 4.1 2.7 5.7 6.8 5.8 11.5zM655.5 223.1c-.4 6.8 1.8 12.8 6.3 18.2 1.1-.7 2.2-1.4 3.4-2.2-.4-2.6-.1-5 2-6.8 1.2-1 2.3-2 3.6-2.9l25.8-17.7c1.9-1.3 3.5-2.3 5.8-.6 1.5 1.1 3.3-.4 2.9-2.3-.3-1.1-.9-2.2-1.5-3.2-2.4-3.8-4.8-7.5-7.3-11.2-1-1.5-2-3.1-3.2-4.5-.5-.6-1.7-.9-2.6-.8-1.1.2-1.6 1.3-1.3 2.3.8 2.4-.6 3.6-2.2 4.9l-2.1 1.5c-8.3 5.7-16.6 11.5-25 17.1-3 2-4.4 4.7-4.6 8.2zM703.8 227.6c-3.2 2.4-6.5 4.7-9.8 7-3.8 2.7-7.7 5.3-11.4 8-4.3 3.1-9.6 3.2-14 .1l-1.5-1.2c-1.1.9-2.2 1.6-3.5 2.7 2.5 3.3 5.6 4.8 9.3 5.2 4.8.6 9-.8 12.9-3.5 7.1-4.9 14.1-9.7 21.2-14.6 2.7-1.8 5.4-2.6 8.4-.6 1.4 1 2.8.1 2.9-1.6 0-.6-.1-1.4-.4-1.9-2-3.1-3.9-6.2-6.1-9.2-.4-.6-1.8-1.1-2.5-.9-.6.2-1.4 1.5-1.3 2.2.5 3.9-1.5 6.3-4.2 8.3zM684.4 265.9c-1.8.8-3.2 1-4.5-.9-.4-.5-1.8-.7-2.5-.5-.5.2-.9 1.3-1.1 2.1-.1.5.1 1.1.3 1.6l7.8 18.6c.5 1.1 1.2 2.2 2.7 1.9s1.8-1.5 1.7-2.8c-.2-1.9.8-2.7 2.3-3.4 5.9-2.6 11.7-5.2 17.6-7.8l19.8-8.4c1.5-.6 2.9-1.5 4.4-2.3-.9-2.2-1.7-4.2-2.6-6.2-1.5-3.7-3-7.4-4.6-11.1-.5-1.3-1.4-2.2-3-1.9-1.4.3-1.6 1.4-1.5 2.5.2 1.7-.7 2.6-2.2 3.2-3.2 1.4-6.3 2.9-9.5 4.3-8.4 3.8-16.7 7.4-25.1 11.1zM733.5 267.5c-1 .4-2.1.9-3.3 1.4.5 3.7-1.7 5.4-4.6 6.7-3.4 1.5-6.7 3-10.1 4.6-3.1 1.5-5.8 1.6-8.1-1.3-1.3.6-2.5 1.1-3.9 1.8 1.3 2.5 2.4 4.9 3.7 7.1 5.7 10.2 20.9 10.8 27.3 1.1 3.8-5.9 3.4-15.6-1-21.4z"/><path class="st1" d="M725.6 271.9l-.3-.6c-.9.5-1.7 1-2.5 1.4 1-.3 1.9-.5 2.8-.8zM722.5 272.9c.1-.1.2-.1.3-.2-.1.1-.2.1-.3.2 0-.1 0 0 0 0zM401.3 42.7c.6 1.9 1.1 3 1.4 3.3.3.3.8.5 1.4.5.9 0 1.5-.2 1.9-.5s.6-.8.6-1.3V29.3h-17.9v4.4c3.5.6 6.3 1.7 8.4 3.5 2.2 1.7 3.6 3.6 4.2 5.5zM392.4 61.2c.9 1.2 1.6 2.4 2 3.9.4 1.4.8 2.3 1.2 2.7.3.5.9.7 1.7.7.9 0 1.5-.3 1.8-.8s.4-1.4.4-2.7V47.1c0-.5-.1-1-.3-1.7s-.8-1-1.8-1c-.6 0-1.1.1-1.5.4s-.8 1.1-1.2 2.6c-.4 1.4-1.1 2.8-2 4-.9 1.3-2.2 2.1-3.8 2.5v4.9c1.4.5 2.6 1.3 3.5 2.4zM506.6 54.7c1.6 2.8 2.3 5.1 2.1 6.9s-.1 3 .2 3.7c.3.6.9 1 1.7 1.3.8.2 1.5.1 2.1-.2.6-.4 1-1.2 1.3-2.4l3.2-11.9c.2-.8.3-1.5.2-2.1s-.6-1.1-1.7-1.4c-.7-.2-1.4.1-2.3.7-.8.7-1.6.9-2.3.7l-5.1-3.4c-1.8-1.1-3.5-1.8-5.1-2.3l-1.1 4c3 1.5 5.2 3.6 6.8 6.4zM456.6 266.2c-1.1.1-2.2.1-3.3.2 1.1 0 2.2-.1 3.3-.2zM392.6 270.6c3.8-.3 7.5-.6 11.3-.9 1.2-.1 2.5-.2 3.7-.4-1.2.1-2.5.3-3.7.4-3.8.3-7.6.6-11.3.9zM487.7 267.8c-5.8-.3-11.6-1-17.4-1.4l-5.1-.3c1.7.1 3.4.1 5.1.3 5.7.4 11.5 1.1 17.4 1.4zM418.1 268.2c1.2-.1 2.4-.2 3.5-.4.8-.1 1.5-.1 2.3-.2-.8.1-1.5.1-2.3.2-1.2.2-2.4.3-3.5.4zM392 270.6c-.7 3.3-.6 23.2.2 25.5-.9-2.3-1-22.2-.2-25.5zM524.1 275.2c-3.5-.8-7-1.9-10.4-3.2-3.3-1.3-6.7-2.2-10.1-3.2 3.4 1 6.8 1.9 10.1 3.2 3.4 1.3 6.9 2.3 10.4 3.2zM520.6 325.9c-.4.7-.8 1.5-1.4 2.1.5-.6 1-1.4 1.4-2.1zM508 342.2c1.1-1.9 2.4-3.8 3.7-5.6-1.3 1.8-2.5 3.7-3.7 5.6-2.6 4.5-5.5 8.8-8.1 13.3-1.7 2.9-3.2 5.9-4.8 8.9 1.6-3 3.1-6 4.8-8.9 2.6-4.5 5.5-8.8 8.1-13.3zM433.5 380.8c-.3 0-.5.3-1 .5-.1.5-.1 1.1-.2 1.6 0-.5.1-1.1.2-1.6.5-.2.8-.5 1-.5zM467.3 394.2c-1.2.4-2.6.5-3.9.4h-.3.3c1.3.1 2.7 0 3.9-.4zM461.6 394.5c-4.1-.1-8.1 0-12.2.6-.2 0-.3.1-.5.1.2 0 .3-.1.5-.1 4.1-.6 8.2-.7 12.2-.6zM440.1 402.2c-.2.2-.3.4-.4.6.1-.2.2-.4.4-.6 1.9-2.2 3.6-4.5 6.1-5.9-2.5 1.4-4.3 3.7-6.1 5.9zM397.6 295.2c2-.2 4-.1 6 .1-2-.3-4-.3-6-.1zM427.4 307.6c.1.1.1.2.2.3 1.1 1.4 2.2 2.8 3.4 4.2-1.1-1.4-2.2-2.8-3.4-4.2 0-.1-.1-.2-.2-.3zM422.7 304zM432.5 402.5c-1.4-4.1-1.6-8.3-.9-12.5.1-.5.1-1 .2-1.4-.1.5-.1 1-.2 1.4-.7 4.2-.5 8.4.9 12.5.4 1.3.7 1.9 1.3 2-.6-.1-.9-.7-1.3-2zM435 380.8c3.3-.2 5.4-2.6 7.4-5 3.9-4.6 5.9-9.8 5.5-15.9-.2-2.7-.9-5.3-3-7-1.7-1.4-1.7-2.9-1.5-4.6.9-5.8.5-11.4-.9-16.8 1.4 5.4 1.8 11 .9 16.8-.3 1.8-.2 3.3 1.5 4.6 2.1 1.7 2.8 4.3 3 7 .4 6.1-1.7 11.3-5.5 15.9-2 2.5-4.1 4.8-7.4 5z"/><g><path class="st2" d="M787.6 390.5c-.7-18.2-2.5-36.4-5.5-54.4-4.9-29-12.8-57.2-23.6-84.5-6.2-15.7-13.4-30.9-21.5-45.6-8.9-16.1-18.8-31.5-29.7-46.3-8.7-11.7-18-22.9-27.8-33.6C668.1 113.7 656 102 643 91.3c-9.7-8-19.8-15.6-30-22.9-12-8.5-24.8-16.1-37.8-23.1-7.2-3.8-14.4-7.5-21.9-10.8-9.8-4.3-19.7-8.5-29.9-12-11.7-4.1-23.5-7.7-35.5-10.9-12.7-3.4-25.6-5.8-38.7-7.4-9.4-1.2-18.8-2-28.2-3C410.4 0 399.8 0 389.1 0c-11.2 0-22.3 1-33.5 2.2-20.3 2.1-40.5 5.2-60.2 10.8-12.7 3.6-25.5 7-37.8 12.1-8.9 3.8-17.9 7.3-26.6 11.3-8 3.7-15.8 7.8-23.5 12-6.4 3.5-12.6 7.3-18.8 11.1-11.6 7-22.6 14.9-33.3 23.4-9.1 7.2-17.9 14.7-26.5 22.7-11.9 11.1-23.2 22.8-33.5 35.5-5.9 7.2-11.6 14.6-17.2 22.1C67.1 178 57.5 193.7 48.7 210c-7.9 14.6-14.8 29.7-20.8 45.2-10.2 26.3-17.6 53.3-22.3 81.2C2.7 353.6.7 370.8.2 388.2c-.4 13-.1 26.1.3 39.1.6 19.4 3.2 38.5 6.8 57.5 4.6 24 11.3 47.5 20.1 70.4 7.5 19.5 16.5 38.3 26.8 56.4 9.2 16.1 19.6 31.6 30.9 46.3 9.2 12 19 23.4 29.6 34.2 7.9 8 15.9 15.8 24.3 23.1 9.2 7.9 18.8 15.5 28.5 22.7 11.3 8.4 23.3 15.9 35.5 23 7 4 14.1 7.8 21.3 11.2 9.3 4.4 18.7 8.7 28.3 12.5 8.5 3.4 17.2 6 25.8 9 11.4 4.1 23.1 6.6 34.9 9.2.8.2 4.9 1.6 8 2.3-5.3 3.3-10.6 6.7-15.9 10-.4.3-.8.7-1.5 1.2 1.1.9 2 1.6 2.9 2.3 5.8 3.8 11.7 7.5 17.6 11.2 12.1 7.7 24.2 15.4 36.3 23 10.7 6.8 21.5 13.5 32.3 20.3 1.6 1 3.2 2.1 4.7 3.2.6-.3 1.1-.5 1.4-.7 7-4.5 14-9.1 21-13.6 12.3-7.8 24.5-15.6 36.8-23.4 9.2-5.8 18.4-11.6 27.6-17.3 1.7-1 3.3-2.1 5-3.1.6-.4 1.3-.7 2.2-1.2-1.3-1-1.9-1.5-2.5-1.9-5.9-3.8-11.9-7.6-17.8-11.5 3.4-.2 8.4-2 10.3-2.5 10.2-2.6 20.4-5.1 30.4-8.6 9.9-3.5 20-6.5 29.6-11 8.4-3.9 17-7.6 25.4-11.8 7.2-3.6 14.2-7.6 21.2-11.5 12.3-6.9 24-14.9 35.3-23.3 9.8-7.2 19.2-15 28.3-23 9.5-8.4 18.5-17.4 27.2-26.7 9.2-9.9 17.9-20.1 25.8-31 5.3-7.4 10.6-14.8 15.7-22.4 10.4-15.3 19.2-31.5 27.2-48.2 6.4-13.4 12.1-27.2 17-41.2 11.8-34.1 19.1-69.2 21.8-105.3 1.2-15.5 1.6-31 1-46.6zM168.2 721.9c-5.9-1.8-43.5-35.6-51.6-46.6 1.4-.9 2.6-1.9 3.9-2.6 6.5-3.2 12.8-6.7 19.8-9.1 7.7-2.7 13.4-8.3 18.4-14.5.6-.8 1.2-1.6 1.8-2.3.1-.2.3-.2.8-.5.4 1 .7 2 1 3 1.3 4.2 3.1 8.1 5.8 11.5 2.4 3.1 4.8 6.2 7 9.4.6.9.8 2.2.9 3.3.2 5.4.3 10.8.4 16.3 0 .2 0 .4.1.6.9 3.2.1 6-1.5 8.9-3.2 6.3-5.2 13.1-6.2 20.1-.2.8-.4 1.7-.6 2.5zm312.5 94.6c-1.3.9-2.1 1.5-3 2.1-10.5 6.6-21 13.1-31.5 19.7-12.3 7.8-24.6 15.6-36.8 23.4-3.7 2.4-7.4 4.9-11.3 7.4-9.1-5.8-18-11.4-27.2-17.3 1.8-1.3 3.3-2.3 5.2-3.7-10-4.6-17.3-11.3-20.8-21.8-3.3 2.1-6.4 3.8-9.2 5.9-2.2 1.6-3.9 1.5-6.1 0-7.3-4.8-14.8-9.4-22.3-14.2-.8-.5-1.5-1.1-2.5-1.9 1-.7 1.7-1.3 2.5-1.8 10.1-6.4 20.2-12.7 30.3-19.1 12-7.6 24-15.3 35.9-23 4.6-3 9.3-6 14.1-9.1 9.5 6.1 18.9 12.2 28.4 18.2-.4.7-.8 1.3-1.3 2.2 2.2.1 4.1.2 6 .3.8 2.6.9 20.4.1 23.9h-12.4c-.2-.4-.4-.6-.4-.7.3-5.5-3.1-8.3-7.6-10.1-.9-.4-1.9-.6-2.8-.9-1.8-.7-3.3-.4-4.9.7-6.8 4.3-13.6 8.6-20.4 12.8-1.1.7-1.7 1.5-2 2.8-1 5.7-1 11.2 1.3 16.6 1.7 4.1 4.8 6.9 8.6 9.1 1.4.8 2.4.1 3.6-.6l29.1-18c6.9-4.3 13.9-8.6 20.8-12.9 3-1.9 6-3.8 9-5.8 1-.7 1.9-.9 3-.2 7.8 5.2 15.9 10.4 24.6 16zm292.1-363c-2.3 18.8-5.8 37.3-10.6 55.6-5.1 19.4-11.7 38.2-19.6 56.6-8.7 20.1-19 39.3-30.9 57.7-7.6 11.8-15.9 23.1-24.7 34-9.9 12.2-20.5 23.9-31.9 34.8-8.2 7.8-16.7 15.3-25.4 22.5-10.1 8.4-20.8 16-31.8 23.2-5.9 3.9-11.9 7.6-18 11.1-7.5 4.2-15 8.3-22.7 12-8 3.9-16.1 7.6-24.4 10.8-11 4.2-22.2 8.3-33.5 11.6-10.9 3.2-22.1 5.4-33.2 8-.6.2-7 1.5-9.7 2.2-1.3-.8-2.6-1.7-3.9-2.5-9.8-6.3-19.6-12.5-29.4-18.8-.6-.4-1.2-.9-1.9-1.3-7.6-5-15.3-9.9-23.3-15.1-2.5 1.7-4.8 3.3-7.1 4.8-5.9 3.8-11.9 7.6-17.8 11.4-11.9 7.6-23.8 15.2-35.8 22.8-2.4-.9-8.5-2.1-8.9-2.2-16-2.9-31.9-6.3-47.4-11.7-10.1-3.5-20.1-6.8-30-10.9-12.3-5.2-24.3-10.9-36.1-17.3-3.4-1.9-6.7-4-10.1-5.9-10.7-5.9-20.6-13-30.6-19.8-2.3-1.5-2.8-3.1-2.4-5.6 1.4-8.3 3.6-16.3 7.7-23.7.6-1.1 1.1-2.5.9-3.7-1.3-7.3-.9-14.7-.9-22.1 0-1.5-.4-2.7-1.4-3.8-2.4-2.9-4.7-6-7-9-3.5-4.8-6-10.1-6.7-16-.3-2.3-.6-4.5-1.1-7.4-1.8 2.8-3.1 5-4.5 7.2-5.7 9.1-13.4 15.8-23.8 19.2-7.5 2.4-14.2 6.4-20.8 10.8-.4-.4-1-.9-1.5-1.4-4.7-5.7-9.7-11.1-14.2-17-7.3-9.6-14.2-19.5-21.4-29.2-1.6-2.1-1.9-4.2-1.1-6.7 1.5-4.7 2.6-9.4 4.1-14.1 4.2-13 8.8-25.9 17.5-37-.1-.3-.1-.7-.3-1.1-1.8-3.3-1.8-6.3.7-9.4 1.6-1.9 2-4.3 2-7 0-7 .9-13.9 4.8-20 2.9-4.5 5.9-8.9 9.2-13 4.2-5.4 9.3-9.9 15.6-12.5 7.1-3 14.7-3.1 22-.7 5.1 1.7 8.7 5.2 11.2 10.2 2 4.2 1.8 8.4 1.7 12.7 0 .9-.1 1.9-.1 2.8 1 .2 1.8.4 2.5.6 1.6.3 2.6 1.3 2.8 2.8.3 2.3.6 4.5.7 6.8 0 3.1-1.3 4.8-4.3 5.7-1.5.4-3.1.5-5 .8-1.3 5.1-5.8 7.7-9.5 10.9-1.3 1.1-3.3 1.5-5 2-2.9.8-5.8 1.5-8.4 2.2-1.3 4.3-2.8 6.3-6.3 7.9-1.7.7-2.5 1.8-3.1 3.4-.5 1.6-1.3 3.2-3.1 3.9-.6.2-1 1.3-1.3 2.1-1.8 4.9-2.5 10.1-2.6 15.3 0 .7.2 1.3.4 2.4 3.9-4 8.5-6.1 13.3-7.6 2.6-.8 3.9-2 4.6-4.6 1.8-6.8 5.3-12.6 11-16.9 1.3-1 2.6-2 3.8-3.1 3.4-3 7.3-4.5 11.7-5.4 5.7-1.1 11.5-.8 17.2-.1 2 .3 3.1-.3 4.4-1.7 1.9-2 4-3.9 6.3-5.6 1.3-1 3.1-1.3 4.6-1.9.1-6.2-.4-7.2-3.8-10.7l-.9-.9c-2.4-2.1-3.7-4.8-4.1-7.9-.1-1.1-.4-2.1-.5-3.2-.3-1.9-1.1-3.4-3-4.3-2.2-1.1-4.2-2.8-5.3-5.2-2.8-6.6-5.7-13.1-8.3-19.8-.7-1.7-.7-4-.2-5.7.4-1.4 2.2-2.4 3.6-3.8-2.2-8.1-2.5-16.8-1.8-25.5.6-7.4 3.6-14 9.9-18.3 4.3-3 9-5.7 13.9-7.7 8.3-3.4 17.2-3.2 26-2.3 6.4.6 11.5 4.4 16.4 8.1 2.9 2.1 5.2 4.8 6.4 8.4 1.9 5.6 4.1 11.2 6.2 17 .4 0 1 .1 1.6.1 4.3.2 5.9 1.7 6.3 5.9.1 1.1.2 2.2.1 3.3-.4 5.4-1 10.8-1.2 16.2-.2 3.9-1.5 6.7-4.9 8.9-1.5 1-2.2 3.4-2.9 5.3-.3.8.5 2 .7 2.9.3.9.6 1.9.8 2.8.5 3 .6 6.1 1.4 9 .6 2.3 1.8 4.4 2.8 6.6.4 0 .7-.1 1.1-.1-.1-3.1 1.3-6.1-.1-9.3-1.5-3.6-1.6-7.2.1-10.7 2.3-4.8 5.8-8.5 10.7-10.5 3.9-1.6 8-2.9 12.1-3.8 2.5-.5 5.3-.6 7.7.1 7.1 2.1 13 6 16.7 12.6 1.1 1.9 1.9 3.9 4.6 4.1 1 .1 2.3 1 3 1.9 4.2 5.4 9.4 10.5 7.6 17.8 2.5 3 4.7 5.5 6.9 8.1.3-.1.5-.2.8-.3-.2-1.7-.3-3.3-.5-5-.3-1.7-.7-3.4-1-5.1-.7-3.5-1.2-7.1-2.2-10.5-1.2-4.1-2-8.2-1.7-12.5.1-1-.1-2-.2-2.9-.7-5.6-1.6-11.2-2.2-16.8-.7-6.3-2.5-12.1-6.8-16.9-4.1-4.7-7.7-10-14.3-11.8-3.5-.9-4.9-3.8-5.2-7.2-.3-3.5-.7-6.9-.9-10.4-.1-2.1-1-3.7-2.6-5-6.5-5.2-11.9-11.4-16.4-18.4-7.7-11.8-16.7-22.4-26.9-32.1-1.8-1.7-3.8-3.2-5.4-5.1-3.1-3.7-5.9-7.8-9.1-11.5-8.8-10.3-16.9-21.2-23.8-32.9-5.4-9.1-11.4-17.9-17.2-26.8-1-1.6-2-3.3-4-4.6-.2 4.7-.9 9 .2 13.3 2.3 8.7 4.8 17.3 7 26.1 1.1 4.3 2.4 8.6 1.9 13.1-.1.6 0 1.3.2 1.9 1.5 4.6 3.1 9.2 4 13.9.1.4.2.9.5 1.2 1.8 1.8 1.5 4.2 1.2 6.2-.4 2.2-1.2 5-2.8 6.3-3.5 3-7.1 6.1-11.6 7.5-1.9.6-3.3 1.8-4.1 3.5-.8 1.6-2 2.8-3.5 3.7-1.1.7-2 1.7-3.1 2.4-2.3 1.5-4.4 3.4-7.2 4.2-4.6 1.5-9.5 2.6-13.8 4.7-3 1.5-6.4 1.1-9.3 2.5-.5.3-1.7 0-2.1-.5-1.8-1.9-3.8-3.8-3.9-6.5-.1-4.1 0-8.3.3-12.4.4-5 1.6-9.9 1.5-14.9-.1-6.4.5-12.8 1.5-19.1.6-4.2 1.3-8.4 1.9-12.5.3-2.3.3-4.6.9-6.8 1.6-6.3 3.5-12.5 5.1-18.8.6-2.3 1-4.6 1.5-6.9.8-3.5 1.8-6.9 2.5-10.3.7-3.4 1.1-6.9 1.9-10.2 1.2-4.5 2.7-8.9 4.1-13.3.1-.5.1-1.2-.1-1.6-1-1.6-.6-3-.1-4.6.4-1.4.5-3 .5-4.5.1-7.6 0-15.2.1-22.8 0-1.2.1-2.4.4-3.5 1.2-5.4 5.1-8.5 10-10.3 4.1-1.5 8.3-2.6 12.4-3.7 5.7-1.6 11.6-2.8 17.3-4.5 3.4-1 7.2-.5 10.1-3.1.3-.3 1-.1 1.6-.1 3-.1 6.1.2 9-.4 4.2-.9 8.4-.9 12.6-1.1 4.2-.3 8.4-.8 12.4-2.4 1.7-.7 3.5-1.3 5.3-1.3 4.4.1 8.6-.7 12.9-1.3 4.2-.6 8.4-.4 12.7-.5 4-.1 8.1 0 12-.4 7.4-.7 14.8-1.6 22.2-2.5 2.2-.3 4.5-.7 6.7-1.2 5.9-1.3 11.5-3.9 17.8-3.4 1.5.1 3-.4 4.5-.5 2.7-.3 5.4-.8 8.1-.7 13 .3 25.8-.5 38.7-2.1 9.8-1.2 19.7-2.1 29.5-3.1 1.7-.2 3.4-.5 5.1-.8 2.9-.5 5.7-1.6 8.6-1.5 9.3.2 18.4-1.1 27.6-2.1 3.1-.3 6.3-.5 9.4-.9 2.1-.3 4.2-.9 6.4-1.1 7.9-.8 15.8-1.5 23.6-2.2.8-.1 1.7-.4 2.5-.7 3.6-1.3 7.3-2 11.2-1.9h13.7c1.5 0 3-.3 4.5-.4 2.1-.2 4.3-.8 6.4-.5 4.1.5 8 2 12.2 2.3 3.5.2 7 1.3 10.4 2.3 2.5.7 4.7 2.4 7.2 3 6.2 1.5 11.4 4.7 16.5 8.3.6.4 1.3 1 1.5 1.7.8 2.2 1.5 4.5 2.2 6.8.4 1.3.5 2.9 1.1 4 1.8 3.2 2.5 6.6 3.4 10.1.7 3 2 5.9 2.7 9 1.9 8.5 3.7 17 5.5 25.4.9 4.2 1.9 8.5 2.8 12.7.6 2.8 1 5.5 1.7 8.3 1.3 5.4 2.8 10.7 4 16.1 1.2 5.3 2.1 10.6 3 15.9 1.4 8.3 2.7 16.7 4 25 .8 5.3 1.1 10.6-.8 15.8-.3.9-.4 2-.1 2.9 1.1 2.8 2.4 5.5 3.7 8.2 1.4 2.8 3.2 5.4 4.3 8.3 1.8 4.6 3.2 9.4 4.7 14.2 0 .1-.2.4-.3.6-.3 0-.6.1-.9.1-4.8-1.3-9.6-2.5-14.4-3.9-1.2-.3-2.4-1.3-3.6-1.4-3.9-.2-7-2.2-10.2-3.9-3.7-2-7.5-3.7-11.7-3.7-5.8 0-9.6-4-14-6.8-.3-.2-.5-.7-.8-1-1.2-1.5-2.5-3-3.6-4.5-.4-.5-.6-1.1-.6-1 .9-2.8 1.9-5 2.1-7.3.3-3.4 1.4-6.3 3.4-9 .5-.7.8-1.8.8-2.7-.1-2-.6-4.1-.7-6.1-.3-3.7-.8-7.4-.7-11 .1-7 .6-14.1 1-21.1.1-2.4-.6-4.6-2.3-6.6-.4.8-.8 1.3-1.1 1.9-3.8 9.9-7.5 19.9-11.4 29.8-.8 2.1-1.7 4.3-2.9 6.2-2.9 4.4-6.3 8.6-9.1 13.1-3.2 5.2-6.2 10.5-8.7 16-1.9 4.2-3 8.8-4.4 13.3-1.7 5.5-4 10.8-7.7 15.3-3.1 3.8-6.2 7.6-9.1 11.4-1.4 1.9-3 3.9-3.7 6-1.4 4.3-2.8 8.7-3 13.3-.2 3.3-2 6-4.4 8.1s-5.1 3.7-7.5 5.7c-1.2.9-2.4 1.9-3.2 3.2-3 5.2-5.5 10.5-5.8 16.7-.2 4.1-.9 8.2-1.8 12.2-.6 3.1-1 6.2-.8 9.3.3 3.9.4 7.8.3 11.7-.4 9.4-1 18.9-1.5 28.3-.1 1.5 0 3 .1 4.5.2 2.4.3 4.7.6 7.1.3 3.2.7 6.4 1 9.6 3.4-1.1 6.4-2.5 9.4-2.8 3.9-.4 7-1.8 10.1-4 1.3-1 2.1-2.1 2.5-3.6 1-4.3 1.2-8.6.5-13-.8-5.4-1.8-10.7-2.7-16.1-1-5.8-1.1-11.7.2-17.5 1.9-8.3 6.8-14.7 12.7-20.5 4.8-4.7 10.5-7.5 17.1-7.6 4.8-.1 9.5.2 14.3.7 2.3.2 4.2 0 6.2-1.1 3.3-1.9 6.8-3.5 10.7-3.7 5.1-.3 8.8 1.9 10.9 6.6 3.1 6.8 2.3 13.3-1.2 19.6-2 3.6-4.7 6.5-8.1 8.8.2 1 .4 1.8.6 2.6 2.8 10.3 5 20.8 6.4 31.5.6 4.9 2.9 7.4 7.8 8.1 2.2.3 4.5.3 6.8.1 3.6-.2 7.2-.3 10.6 1 8.7 3.4 17.8 5.7 26.9 7.7.6.1 1.3 0 2.3 0-2.4-3.5-4.6-6.6-6.6-9.7-5.1-8.1-10.3-16.1-16.8-23.2-1.3-1.4-2.6-2.4-4.5-2.9-6-1.6-11.9-3.7-16.7-7.7-5.3-4.4-5.9-4.2-2.9-10.9 4-9.1 9.3-17.3 19.7-20.3 1.2-.4 2.4-1 3.5-1.7s2.2-1.5 3-2.5c5.2-6.3 10.4-12.6 15.3-19.1 3.2-4.2 6.3-8.6 8.7-13.3 2.2-4.2 3.6-8.8 5.3-13.3.6-1.5.2-2.8-.3-4.4-.8-2.3-1.5-4.8-1.5-7.3 0-3.9.6-7.8.8-11.7.1-1.3.7-1.9 1.9-2.2 6.2-1.4 12.4-1.2 18.3 1.1 8.1 3.2 15.2 7.9 20.8 14.7 3.4 4.2 7.1 8.2 10.6 12.4 3.4 4.2 5.3 8.9 5.4 14.4.1 7 .5 13.9.5 20.9 0 10-.9 19.9-4.1 29.6-2.3 7.2-6 13.5-11.8 18.4-3.9 3.3-7.9 6.5-11.8 9.7-.6.5-1.1 1-1.7 1.5 1.2 1.9 2.5 3.5 3.5 5.3 4.2 7.3 8.3 14.7 12.6 22.1 2 3.5 3.6 7.2 4.7 11.1 1.7 6 3.5 11.9 4.7 17.9 1.4 7 2.2 14.2 3.2 21.3.4 2.8-.7 5-2.6 7-2.4 2.4-5.3 3.8-8.7 4-5.7.3-11.5.7-17.3.5-10.4-.2-20.8-1.2-31-4-2.2-.6-4.5-1-7.2-1.5.4 1.8.6 3.2 1.1 4.5 1.6 4.7 3 9.6 4.9 14.2 4.6 11 9.6 21.9 14.1 32.9 2.9 7 5.3 14.2 7.6 21.5 1.2 3.8 1.7 7.7 2.6 11.9.6-.5 1.1-.8 1.5-1.2 4.5-5 9.2-9.8 13.5-15 6.1-7.2 12.1-14.5 17.9-22 11.6-15 21.7-30.9 30.8-47.6 5.9-10.8 11.2-21.8 16.1-33.1 12.8-29.7 21.7-60.4 26.9-92.3 3.1-19.3 5-38.8 5.1-58.4v-3.9h-81.8c-1.9 0-3.4-.4-4.5-2-.5-.7-1.2-1.3-1.7-2-4.4-5.7-10-10-16.1-13.5-6.3-3.7-13.3-5.2-20.6-4.8-3.1.2-6.2.1-8.8 1.7-1.7 1-3.2.9-5.3.6-.7-1.9-1.5-3.8-2.1-5.9-.9-2.8-1.4-5.7-2.4-8.4-.9-2.4-1.9-5-3.4-7-1.5-1.9-2.6-3.9-3.7-6.1-.9-1.8-1-3.4-.4-5.3.5-1.5.7-3.2.8-4.8.5-6.9-1-13.6-1.7-20.4-.5-4.6-1.4-9.2-2.2-13.7-.3-1.8-.9-3.6-1.3-5.3-.5-2.2-.9-4.4-1.2-6.7-.2-1.2-.3-2.4-.5-3.5-1.6-8.9-5-17.5-6.1-26.5-.3-2.8-1.4-5.4-2-8.2-.7-3.2-1.1-6.4-1.8-9.6-1.2-5.6-2.6-11.2-3.8-16.7-.4-1.8-.7-3.6-1.1-5.4-1-3.7-2-7.3-3.1-10.9-.5-1.8-1.1-3.5-1.7-5.3-.7-1.9-1.6-3.8-2.1-5.7-1.1-4.6-2-9.2-7-11.4-.4-.2-.6-.6-1-.9-4.3-2.6-8.5-5.6-13.6-6.8-1.4-.3-2.7-.8-4-1.3-4-1.5-7.9-3.7-12.4-3.4-.6 0-1.2-.4-1.9-.5-1.4-.2-2.8-.4-4.2-.7-1.2-.2-2.3-.4-3.4-.7-4-1.1-8-1.8-12.2-.9-2 .5-4 .8-6.1.9-3.5.2-7 0-10.4 0-2.4 0-4.8-.1-7.2.2-4.8.5-9.4 2.5-14.3 2.7-5 .2-9.9 1-14.8 1.6l-8.7.9c-.9.1-1.7.3-2.6.3-5.7.5-11.5.4-17.1 1.5-5.4 1-10.8.9-16.2 1-1.7.1-3.4.3-5.1.7-3.2.6-6.3 1.7-9.5 2.1-8.3 1-16.5 1.8-24.8 2.6-1.4.1-2.7 0-4.2 0V87.5c1.3-.1 2.4-.2 3.4-.2h9.5c2.3 0 4.3-.3 5.2-3.5 1.3 3.3 3.7 4 6.2 4.3l17.1 2.1c3 .4 5.8.2 7.6-2 2.7 1.7 5 3.6 7.6 4.8 2.6 1.2 5.5 1.6 8.3.8 2.7-.8 5.3-2.1 8.1-3.3-.2 2.4.2 4.6 2.4 6s4.4.5 6.6-.1c3 3.3 7 4.3 11.1 5.3 8.9 2.2 17.1.9 23.3-6.1 6.1-6.9 7.4-15 3.5-23.7-.2-.5-.3-1-.5-1.5 3.6-1.4 4.5-2.4 5.6-5.9l1.8-6.6c.6-2.3 1.3-4.6 1.6-7 .6-4.4-2.6-7.2-6.7-6.1-1.3.3-2.3.3-3.3-.5-4.1-3.2-9-4.3-13.9-4.8-6.4-.7-12.6.9-16.9 5.9-5.6 6.4-7.7 14-5 22.5.2.7.4 1.4.7 2.4-5.8.1-6 4.9-7.4 8.8-1.5-.8-2.7-1.5-4.2-2.3 1-5.4.3-10.4-4.1-14.3 2.6-1.9 4.6-3.9 5.7-6.5 4.4-10.4.1-21.7-11.1-24.6-2-.5-4-1-6.1-1.3-4.7-.7-9.5-1.2-14.2-1.8-3.8-.5-7.5-1-11.3-1.3-2.5-.2-4.8.5-6 3-1.1 2.1-.5 5.1 1.4 6.9 1 1 1.2 1.9 1.1 3.1-.5 4-.9 8-1.4 12-.9 7.5-1.8 15.1-2.7 22.6-.1.8-.4 1.8-1 2.3-1.2 1.1-2.6 1.9-3.9 2.8 0-.1-.1-.2-.1-.3v-9.1c0-5.1-1.4-6.5-6.5-6.9-.2 0-.3-.2-.5-.3V49.6c5.3-.7 6.4-1.9 6.4-6.9V32.6c0-6.1-.6-6.7-6.7-6.7h-10.6c-.1-3-.3-5.6-.4-8.2-3.7 0-7.1-.1-10.4 0-19.3.7-38.5 2.5-57.5 6.6-15.4 3.3-30.8 6.6-45.6 11.9-10.2 3.7-20.6 6.9-30.4 11.7-8 3.9-16.1 7.5-24 11.6-6.9 3.6-13.7 7.5-20.4 11.5-6.2 3.7-12.3 7.8-18.3 11.8-10.5 7-20.4 14.7-30 22.9-8.8 7.5-17.4 15.1-25.3 23.5-7 7.4-13.9 15-20.6 22.6-9.7 11-18.3 22.9-26.4 35.1-7.3 11-14.1 22.4-20.3 34.2-11.7 22.2-21.1 45.2-28.4 69.2-5.4 17.8-9.6 35.9-12.3 54.3-1.5 10.3-2.7 20.7-3.6 31.1-.7 8.2-.7 16.5-1 24.7 0 .9.2 1.9.3 3.1h106.1c5 0 9.9-.1 14.9.1.1 1.1.2 1.8.2 2.4-.3 2.8.6 5.1 2.4 7.2.4.4.7.9.9 1.3 2.1 3.3 5.2 4.4 8.9 3 .9-.3 1.8-.5 2.8-.8 1.8-.5 3.7-.7 5.2-1.5 4-2.3 8.4-3.3 12.8-4.5 3.4-.9 7-1.3 9.4-4.5 1.7-2.3 4.1-2.7 6.9-2.7 22.4.1 44.8.1 67.2.1 6.2 0 6.2 0 9.9 5 .2.3.4.5.6.8 2.8 4.1 5.7 8.2 8.5 12.3 2.9 4.1 5.8 8.1 9.6 11.4 2 1.7 3.8 3.6 5.6 5.5.5.6 1 1.4 1.1 2.2.3 2.6.3 5.2.7 7.7.4 2.6.8 5.4 1.8 7.8 1.3 2.9 4.2 4.3 7 5.5 3.5 1.4 6.5 3.4 8.7 6.6.4.6 1 1.1 1.5 1.7 2.8 3.5 5.6 6.9 6.4 11.5.4 2.3 1 4.7 1.3 7 .4 2.7.4 5.4.8 8.1.9 5.2 1.9 10.4 1.6 15.8-.1 1.2.1 2.5.2 3.7-.2-.1-.4-.2-.5-.4-2.4-3.3-4.8-6.5-9-7.7-.4-.1-.9-.7-1.1-1.1-2.5-4.6-6.2-8-10.3-11.1-4.4-3.3-9.3-5.1-14.5-4.7-6.2.4-12.3 1.6-17.7 5-1.3.8-2.7 1.6-4.2 2.4v-1.2l1.5-20.4c.1-1.7-.1-3.5-.4-5.2-.4-2.6-1.9-4.6-4.5-5.6-1.4-.5-2.8-1-4-1.4-2.1-5.5-4-10.8-6.1-16-.6-1.5-1.3-3.1-2.4-4.2-3.2-2.9-6.4-5.8-10-8.3-8.5-5.9-18.3-5.6-28-5-9.8.7-18.4 4.6-26.3 10.3-7.3 5.3-11 12.5-11.7 21.2-.6 7.5-.7 15 1.1 22.4.3 1.3.1 2.3-1 3.2-2 1.7-2.5 4-2.3 6.5.2 1.7.4 3.5 1 5.1 2.3 5.9 4.8 11.6 7.2 17.5 1.3 3.2 3.3 5.7 6.1 7.4 2.3 1.4 3 3.2 3.3 5.5.4 4 2 7.5 5 10.3.7.7 1.3 1.5 2 2.1 1.4 1.4 2 3 1.5 5.2-3.8 1.2-7 3.5-9.5 6.9-.5.6-1.6 1-2.5 1-2.6 0-5.2-.3-7.8-.5-5-.2-10 .4-14.7 2.1-5.2 1.9-9.3 5.4-13.4 9-4.8 4.3-8.1 9.3-10 15.3-.7 2.3-1.6 3.9-4.1 4.4-.9.2-1.8.8-2.6 1.2-1.6.8-3.3 1.6-5.4 2.6.5-2.6.8-4.6 1.2-6.6.3-2 1.1-3.6 2.9-4.8 1-.7 1.8-1.9 2.2-3.1.5-1.6 1.5-2.4 2.8-3.3 2-1.5 4.2-3 5.4-5.1 1.6-2.7 3.9-3.6 6.6-4.1 1.4-.3 2.9-.3 4.1-.9 4.6-2.1 8.4-5.3 11.4-9.4 1.4-1.8 2.6-3.1 5-3.6 4.7-1 7.2-4.3 7.2-9.1 0-1.7-.3-3.5-.4-5.2-.3-3.6-1.4-6.6-5-7.8-.1-.3-.2-.4-.2-.5 0-1.6 0-3.3-.1-4.9-.1-1.4-.1-2.8-.5-4.2-2.8-9.8-9.1-15.8-19.3-17.4-4.8-.8-9.6-.5-14.3.2-4.9.8-9.3 3-13.2 6.1-6.1 4.8-10.7 11-15.4 17.2-5.8 7.7-8.2 16.4-8.5 25.8-.1 3.1-.7 5.7-2.5 8.2-1.5 2-1.8 4.4-1.2 6.8.3 1 .6 2.1.8 2.9-10.6 15.5-15.9 32.9-21 51-1-1.5-1.7-2.5-2.3-3.5-5.4-9.7-10.9-19.3-16-29.1-9.6-18.7-17.3-38.1-23.7-58.2-7.9-24.8-13.2-50.2-16.1-76-2-17.7-2.8-35.5-2.4-53.4.4-15.2 1.4-30.4 3.4-45.5 2.9-22.6 7.8-44.7 14.5-66.4 7.3-23.6 16.8-46.3 28.3-68.2 8.5-16.1 18.1-31.4 28.7-46.2 8.6-12 17.9-23.5 27.9-34.4 7.3-7.9 14.8-15.6 22.7-22.9 8.6-7.9 17.6-15.5 26.8-22.8 10.5-8.4 21.7-15.9 33.1-23 6.4-4 12.9-7.7 19.5-11.2 7.6-4 15.2-7.9 23.1-11.4 9-4 18.1-8 27.5-11.1 12.9-4.4 26-8.4 39.3-11.8 20.4-5.1 41.2-7.9 62.1-9.3 20.6-1.3 41.3-1.1 61.9 1 18.8 1.9 37.5 4.7 55.7 9.8 13.1 3.6 26.2 7 38.8 12.3 8.9 3.8 17.9 7.3 26.6 11.3 7.7 3.5 15.1 7.5 22.6 11.5 12.9 6.8 25.1 14.7 36.9 23.2 10.1 7.2 19.8 14.9 29.1 23 8.4 7.4 16.7 14.9 24.3 23.2 6.9 7.5 13.7 15.1 20.4 22.9 9.4 11 17.8 22.8 25.7 34.9 7.3 11.1 13.9 22.6 20 34.3 10.6 20.3 19.2 41.3 26.1 63.1 7.6 24.1 12.8 48.7 15.8 73.8 1.9 16 2.9 32 2.8 48.1-1.3 15.7-2.2 31.5-4.1 47.3zM101.6 288.7c.7 2.1-.5 3.2-2.6 2.6-2-.6-3.8-1.6-5.7-2.5-2.3-1.1-4.6-2.4-6.9-3.6-.7-.3-1.5-.6-1.9-1.2-.5-.6-1.1-1.7-.8-2.2.3-.8 1.3-1.5 2.1-1.7.9-.2 1.9.1 2.9.3 3.8.7 7.6.5 11.2-1.2 1.7-.8 3.2-2.2 5.1-3.6.9.6 1.8 1.2 2.9 1.9-.8 2.4-2.4 4.1-4.1 5.5-2.1 1.6-3.1 3.1-2.2 5.7zm4-16.1c0-1.2.1-2.3 0-3.5-.2-2.4-1.2-4.4-3.5-5.5-2.4-1.1-4.5-.2-6.4 1.2-1.6 1.2-3.1 2.7-4.6 4.1-3.2 2.9-6.6 5.6-10.5 7.6-4.2 2.1-8.3 2.1-12.4 0l-1.2-.6c-9.1-4.8-12.4-14.2-8.4-23.8.1-.2.3-.3.5-.6 1 .5 2.1.9 3.2 1.4.1 1 .1 2 .3 3 .9 4.4 4.8 6.5 8.5 4.2 3-1.8 5.6-4.4 8.2-6.8 3.2-3 6.8-5.5 11.1-6.5 8.9-2 17.9 4 20.1 13.3 1.2 5 .7 9.9-1.7 14-.8-.4-1.9-.9-3.2-1.5zm-39-34.5c-.6-.9-.9-2 .1-2.6.7-.4 1.9-.5 2.7-.2 4 1.7 7.9 3.6 11.8 5.5 1.6.8 2.1 2.1 1.7 3.4-.6 1.6-1.9 1.5-3.2 1.4-1.9-.2-3.9-.6-5.8-.5-3.8.3-7 2-9.9 5.1-1.3-.6-2.3-1.1-3.7-1.8 1-1.4 1.8-2.6 2.8-3.8s2-2.3 3-3.4c.9-1 1.2-1.9.5-3.1zm18.5-16.4c-1.9-1.3-3.6-2.4-5.8-.5-.4.3-1.7.3-2.1-.1-.5-.5-.8-1.5-.8-2.2s.5-1.4.9-2c3.2-5 6.4-10.1 9.6-15.1.4-.6.8-1.4 1.4-1.8.7-.4 1.7-.8 2.3-.5.6.2 1.3 1.5 1.1 2-.7 2.6.8 3.7 2.6 4.9 5.4 3.5 10.8 7.2 16.2 10.8 3.9 2.6 7.7 5.2 11.6 7.8 2.6 1.8 5.3 2.9 8.5 1.1 1.7-1 2.7.9 4.1 1.6-2.9 5.9-6.9 10.1-12.7 12.6-3.7 1.6-7 1.4-10.4-.9-8.7-6.1-17.7-11.8-26.5-17.7zm48.2 1.2c.2-1.7.3-3.3.4-4.9.2-3-.9-5.6-2.9-7.7-1.3-1.3-2.6-2.6-4.1-3.7-6.4-4.4-13-8.7-19.5-13-.8-.5-1.7-1-2.6-1.4-2.3-1-4.6-1.4-6.9 0-1 .6-2.2 1-2.9-.1-.4-.7-.4-2 0-2.7 1.7-3 3.6-5.9 5.4-8.9.2-.3.4-.6.6-.7.8-.3 1.6-.7 2.3-.5.5.1 1 1.2 1 1.8-.5 4.6 2.3 7.2 5.7 9.4 6.7 4.4 13.4 8.8 20 13.4 5.4 3.7 8.6 8.9 8.1 15.7-.1 1.7-.7 3.3-1.2 5.5-1.4-1-2.4-1.6-3.4-2.2zm-7.2-47c-2.3-2.3-4.6-4.6-6.8-7-1.3-1.4-2.6-2.2-4.6-1.1-.6.3-1.9 0-2.6-.5-1.1-.9-.5-2.1.3-2.9 4.2-4.6 8.5-9.2 13-14 1.1 1 2 1.8 2.8 2.6l29.1 28.8c1.5 1.5 2.9 3 5.3 1.5.4-.3 1.6-.1 2 .3.5.6.7 1.6.6 2.3-.2.8-.8 1.5-1.4 2.1-3.8 4.1-7.7 8.2-11.6 12.3-.4.5-.9.9-1.4 1.4-.9.8-1.8 1.7-3.1.9-1.3-.8-1.2-2-.6-3.1.7-1.4.2-2.5-.7-3.6-.4-.5-.9-1-1.3-1.4-6.4-6.1-12.7-12.4-19-18.6zm61.4-53.3c-2.4-3.1-4.7-6.2-7.1-9.3-1.8-2.3-4-3.7-7.2-2.3-.8-1-1.5-1.9-2.5-3 5.4-4.6 10.7-8.7 18.4-6.7 9.7 2.5 15.1 15.2 10.2 23.9-2 3.7-4.9 6.5-8.6 8.9-.8-1-1.5-1.9-2.4-3 2.6-3.1 1.3-5.8-.8-8.5zm-14.1-5.7l14.4 18.9c2.6 3.5 5.2 6.9 7.8 10.4 1.2 1.6 2.3 2.8 4.6 1.8.6-.2 1.8.2 2.2.7.4.6.3 1.7.1 2.4-.2.6-.9 1.2-1.5 1.6-4.5 3.6-8.9 7.2-13.4 10.8-.4.3-.9.7-1.3 1-1 .8-2.2 1.3-3.3.4-1.2-.9-.8-2.1-.2-3.2 1-1.7.4-3-.7-4.4l-21.3-27.9c-.5-.6-1-1.2-1.3-1.8-1-1.8-2.3-2.9-4.5-2-1 .4-2.2.2-2.4-.9-.2-.8.3-1.8.6-2.6.1-.3.4-.5.7-.7 4.6-3.7 9.3-7.5 14.3-11.5 1.9 2.4 3.5 4.7 5.2 7zm-14.1 41.2c-1 5.3-4.2 9.1-8 13-1-.8-1.8-1.6-2.8-2.5 2-4-.2-6.8-2.9-9.3-2.7-2.6-5.5-5.3-8.3-7.8-2-1.8-4.1-3-6.6-.5-1-1.1-1.9-2-3-3.2 4.1-4.2 8.2-8.2 14.4-8.7 10-.8 19 9.3 17.2 19zm59.3-71.3c5.4 9.9 10.7 19.9 16 29.8 1.3 2.5 2.6 4.6 5.9 4.8.9.1 1.8 1.8 2.9 3.1-5.9 2.8-11.5 3.2-17.2 1.2-5.5-1.9-9.7-5.6-13-10.4-3.7-5.5-6.4-11.4-7-18-.8-8.6 2.1-15.8 9-21.2.3-.3.7-.4 1.3-.7.7 1.1 1.3 2.1 1.9 3.3-2.2 2.8-1.3 5.4.2 8.1zm82.2-14.4c4.3.4 6.9 2.9 8.1 6.9.6 1.9 1 3.8 1.6 5.6.2.6.5 1.2.9 2.1.6-.7 1.2-1.1 1.5-1.7.6-1 1.3-1.4 2.4-1.1 1.2.4 1.7 1.3 1.5 2.5-.6 3.4-2 6.4-4.8 8.5-2.2 1.7-4.8 2.4-7.6 2.6-4 .3-7.5-1.8-9-5.6-1.3-3.1-2.3-6.3-3.2-9.5-.9-3-2.2-5.5-6.1-5.3-.4-1.4-.7-2.5-1.1-3.6 3.4-1.8 3.2-4.6 2.3-7.6-.8-2.5-1.7-4.9-2.2-7.5-.8-3.4-2.2-5.9-6.3-6.2-.4-1.2-.8-2.4-1.2-3.9 3.7-1 6.9-2.6 10.5-2.8 8.1-.4 14.4 5.8 14.5 14.1 0 4.6-2.7 7.6-5.8 10.5-.6.6-1.3 1.1-2.1 1.8 2.2.2 4.1 0 6.1.2zm10.1-33.9c3.3-.5 6.4-1 9.6-1.6 1 2.1 1.2 3.8-.3 5.8-1.8 2.4-2 5.4-2.1 8.4 0 1.2 0 2.4-.2 3.6-.2 1.3-1 2.2-2.4 2.2-1.3 0-2-.9-2.1-2.1-.6-3.5-1.1-7.1-1.6-10.6-.4-1.8-.6-3.6-.9-5.7zm-23.6 54.7c.6 2.1 1.1 4 3.9 3.9.6 0 1.7 1 1.7 1.6 0 .8-.8 1.6-1.3 2.3-.2.2-.6.3-.9.4-5.9 1.9-11.7 3.8-17.6 5.8-.3.1-.6.2-.9.2-1.2.3-2.4.3-3.1-1-.7-1.2 0-2.2.8-2.9 1.8-1.3 1.5-2.8 1-4.6-3.6-11.8-7.1-23.7-10.6-35.6-.6-2.1-1.2-3.9-4-3.9-.6 0-1.5-1-1.6-1.6-.1-.7.4-1.6.9-2.2.4-.4 1.1-.6 1.7-.8 5.3-1.6 10.6-3.3 15.9-4.9.3-.1.6 0 1.1 0 .4 1 .8 2 1.1 3 4 13.5 8 26.9 11.9 40.3zm-31.1 13.6c-.8 6.8-4 12.2-9.9 16.3-1.4-1.6-2.5-2.9-1.2-5.1 1-1.6.4-3.3-.5-4.9-1.9-3.4-3.7-6.9-5.5-10.3-4-7.4-8.1-14.9-12-22.4-1.3-2.4-3.3-3.3-5.9-3.2-.6-1.1-1.1-2.2-1.7-3.4 7-3.2 13.7-3 20.2.5 4.3 2.3 7.5 5.8 10.2 9.8 4.6 6.9 7.2 14.3 6.3 22.7zm91.9-28.1c.3 2.2.7 4 3.3 4.4.6.1 1.3 1.2 1.3 1.8 0 .7-.8 1.4-1.4 1.9-.5.4-1.2.4-1.9.5-5.8.9-11.6 1.9-17.3 2.8-.5.1-1.1.2-1.6.1-.8-.3-1.9-.7-2.3-1.3-.6-1 0-2 1-2.4 2.2-1 2.1-2.7 1.8-4.6-2.3-14.5-4.5-28.9-6.7-43.4-.1-.6 0-1.2 0-2.1 5.5-1 10.9-2 16.5-3.1.3 1 .6 1.6.7 2.3 2.2 14.4 4.5 28.8 6.6 43.1zm-3.6-45.8c3.3-.5 6.4-1 9.9-1.5.5 3.1.9 5.8 1.4 8.6.4 2.5.8 4.9 1.1 7.4.2 2.2-.3 3.1-1.7 3.3-1.8.3-2.5-.9-3-2.3-.4-1.3-.7-2.8-1.4-4-1-1.9-2-4-3.6-5.3-2-1.7-2.7-3.4-2.7-6.2zm24.7 3.8c0-1.4-.2-2.6-1.8-3.1-1.2-.4-2.3-1-2-2.5.3-1.6 1.8-1.8 3.1-1.8h16.6c.4 0 .8.2 1.3.4v54c-.7.1-1.4.4-2.1.4H368c-1.3-.1-2.4-.5-2.7-1.9-.3-1.5.6-2.3 1.9-2.6 1.7-.5 1.9-1.8 1.9-3.3.1-13.3.1-26.5.1-39.6zm37.1 47.2h-16.2v-4.2c.8-.3 1.6-.7 2.4-.9 4.4-1.5 7.3-4.5 8.9-8.8.2-.5.3-1 .5-1.5.5-1.2 1.3-2 2.8-1.7 1.3.3 1.6 1.3 1.6 2.5-.1 4.8 0 9.6 0 14.6zm-14.6-8.6v-7.8c1.6 1.2 3.3 2.5 5.1 3.8-.9 1.9-2.5 3.2-5.1 4zm9.7-31.4c-1.1-3.5-3.1-6.4-6.3-8.4-1.5-.9-3.3-1.6-5-2.5v-3.8c2.7-.1 5.2-.1 7.8-.2h7.6c.1.8.3 1.4.3 2v12c0 1.3-.2 2.4-1.7 2.7-1.6.3-2.3-.6-2.7-1.8zm-5.3-3c-1.5 1.1-2.8 2.1-4.4 3.3v-6.1c2.2.2 3.4 1.3 4.4 2.8zm-5.2 12.3c2-1.5 3.2-3.5 3.7-5.9.1-.4.2-.8.4-1.2.4-1.1 1.2-1.5 2.3-1.4 1.2.2 1.6 1 1.6 2.1v17.6c0 1.2-.2 2.3-1.5 2.5-1.4.3-2.3-.5-2.7-1.8-.7-2.7-2-5-4.3-6.7-1.1-.9-.8-4.3.5-5.2zm178.8 275.4c.2 4 .5 8 .9 12 .2 2.5.3 4.8-.9 7.2-1.4 2.8-2.4 5.8-2.6 9-.1 1.3-.9 2.6-1.6 3.8-1.5 2.5-1.3 4.6.6 6.8 1.4 1.6 2.7 3.4 4.2 5 1.2 1.2 2.5 2.3 3.9 3.3 2 1.5 4 3 6.2 4.1 1.5.8 3.2 1.3 4.9 1.4 4.6.3 8.9 1.6 13 3.8 3 1.6 6 2.9 9.4 3.5 2.7.5 5.3 1.9 7.9 2.9.2.1.4.3.6.3 4.5 1 9 2.1 13.6 3 1.5.3 3.2.3 4.7.5v12.5H522.6c1.5-2 2.7-3.9 4.2-5.5 6.2-6.8 10.1-14.8 12.3-23.7 1-4 2.6-7.8 4.1-11.6.8-2 1.8-3.9 3-5.8 4.3-6.5 8.6-13 12.9-19.4 1.7-2.5 3.2-5.1 4.1-8 1.8-5.3 3.9-10.6 5.9-15.8.2 0 .4.1.6.1 0 3.5-.1 7.1 0 10.6zm-149.3-294c-1.1-.5-1.7-1.4-1.3-2.7.5-1.4 1.6-1.7 2.9-1.6l12.9 1.5c1.7.2 3.4.5 5.6.7-.1 1.8-.2 3.3-.4 4.8-1.6 13.6-3.3 27.2-5 40.7-.3 2.2-.4 4.1 2.1 5.2.6.3 1 1.7.8 2.5-.1.6-1.2 1.3-1.9 1.3-1.6.1-3.2-.1-4.9-.3-4.7-.6-9.5-1.2-14.2-1.8-.4-.1-.9 0-1.3-.1-1.3-.3-2.6-.8-2.7-2.3-.1-1.5.9-2.4 2.3-2.6 1.6-.3 2-1.4 2.2-2.8.7-6 1.5-12.1 2.2-18.1.8-6.8 1.5-13.6 2.4-20.4.3-1.8 0-3.2-1.7-4zm25 18.7c.3-2.5.4-5 .9-7.4.8-3.6.2-6.5-3.4-8.4.2-1.7.4-2.9.7-4.4 6.1.2 11.5 1.5 16.2 5.6 5.6 5 5 19.3-5.2 22.2-1.1.3-2.2.6-3.8 1.1 1.3.6 2.1 1 2.9 1.4 5.4 2.4 7.3 5.6 6.6 11.7-.3 2.3-.5 4.7-.9 7.6 1-.5 1.5-.7 1.8-1 .7-.8 1.5-1.4 2.5-.7 1.1.7 1.6 1.8 1.2 3.1-.3.8-.7 1.6-1.3 2.2-4 4.8-12 5.9-17.2 2.3-3.5-2.5-4.3-6.1-4-10.1.2-2.7.7-5.4 1-8.1.3-2.9-.2-5.5-3.4-6.8.1-1.3.2-2.6.3-4 3.7-.6 4.8-3.1 5.1-6.3zm-4 .6c.4-3.7.9-7.4 1.3-11 .2 0 .4 0 .6.1-.4 3.6-.9 7.3-1.3 10.9h-.6zm-1.2 14.8c-.4 3.6-.8 7.1-1.2 10.7-.2 0-.4-.1-.7-.1.4-3.6.9-7.1 1.3-10.7l.6.1zm68.2-8.4c-.6-4.9-2.1-7.6-7.1-11.8.3-1.2.5-2.5.8-4 4.2.2 6.2 4 9.7 5.3 1.5-.7 2.7-2.4 4.3-1.1 1.6 1.2.6 2.8.3 4.2-.8 3.3-1.7 6.5-2.5 9.7-.2.7-.4 1.5-.7 2.2-.5 1.2-1.2 2.1-2.7 1.9-1.6-.2-2.1-1.3-2.1-2.8 0-1.2.1-2.4 0-3.6zm-3.2 3.2c-3.7-2.4-6.6-4.7-9.1-7.6-.9-1-1.6-2.1-.6-3.4s2.8-1.6 4.3-.6c4.1 2.6 5.5 6.4 5.4 11.6zm-6.8-15.9c-1.1.4-2.1.6-3.1 1.1-3.4 1.5-4.5 4.8-2.7 8.1 1.5 2.8 3.9 4.6 6.4 6.4 3.1 2.3 5.9 4.9 8.3 8.1 7.5 10 1.2 26.8-13.1 28.1-2.7.2-5.4.4-8.2-.8.3-1.3.6-2.4 1-3.7 1-.2 2-.4 3-.7 5-1.1 6.7-6.1 3.3-10-1.6-1.8-3.4-3.3-5.2-4.9-2.3-2.1-4.9-4-7-6.3-6.5-7.2-6.4-17.6.2-24.8 4.6-5 11.6-6.8 17.9-4.4-.3 1.2-.5 2.5-.8 3.8zm-12.8 42.9c-1.2-.8-2.4-1.9-3.2-3.1-1.9-2.8-2.5-6.1-2.1-10.1 3.5 2.9 6.4 5.4 9.3 8 2.1 1.8 2.5 3.1 1.6 4.4-1 1.2-4.1 1.9-5.6.8zm-8.7-13c.3 3.1.5 6.3 1.6 9.2 1.1 2.7 3.2 5 5.4 8.2-.2.6-.5 1.8-.9 3-4.2-.4-6.5-3.8-9.7-5.3-.9.5-1.6 1.1-2.4 1.4-1.5.6-2.6 0-2.8-1.6-.1-.9 0-2 .2-2.9 1-4.1 2.1-8.2 3.2-12.3.1-.2.1-.4.2-.6.7-2.1 1.7-2.9 3.1-2.6 1.4.2 1.8 1.2 2.1 3.5z"/><path class="st2" d="M495.5 371.7c2.1-2.6 3.5-5.7 5.2-8.6 3.8-6.7 7.4-13.4 11.2-20.1.8-1.5 2-2.8 3.1-4.2 2.6-3.2 5.3-6.3 7.9-9.4.5-.7 1.1-1.4 1.4-2.2 2-5.3 3.7-10.6 5.8-15.8 4.2-10.3 8.6-20.6 12.9-30.9.7-1.7 1.3-3.4 2.1-5.4-5.8-1-10.9-1.8-16-2.8-3.8-.8-7.6-1.7-11.3-2.8-2.8-.8-5.5-1.9-8.3-2.8-1.3-.4-2.8-.6-4-1.3-2.1-1.2-4.3-1.4-6.6-1.5-6.1-.2-12.2-.4-18.2-.7-5.6-.3-11.2-1-16.8-1.3-3.1-.1-6.3.3-9.4.3-11.8 0-23.6.7-35.4 2-6.9.7-13.8 1.6-20.7 2.2-4.2.4-8.5.2-12.7.6-15.1 1.5-30.2 3.3-45.3 4.7-14.4 1.4-28.6 3.5-42.8 6.1-6.7 1.2-13.5 2-20.3 2.8-5.9.8-11.9 1.4-17.8 2.2-6.9.9-13.7 2-20.6 3-5.6.8-11 .1-16.3-1.8-2.1-.8-4.1-2.1-6.2-2.9-2.1-.8-4.3-1.8-6.8-1.5 0 .4 0 .7.1.8 5.2 7.2 10.3 14.5 15.8 21.5 3.7 4.7 8 8.8 12 13.3 7.1 7.8 14.3 15.5 21.1 23.4 5.2 6.1 10.2 12.4 13.3 19.9 1.1 2.7 3 5 5.8 6.3 1.7.8 3.5 2 4.8 3.3 6.9 7.2 13.9 14.4 20.4 21.9 3 3.4 6.4 6.3 10.2 8.4 5.1 2.8 8.3 7.8 13.5 10.4.4.2.6.7.9 1 .4.4.8.9 1.3.9 5.7 1 11.4 4.1 17.1-.1.4-.3 1-.3 1.6-.4.9-.1 1.8 0 2.6-.3 5.7-2.1 11-1 15.5 2.9 2.4 2.1 5.2 2.4 8.1 2.8 2.9.4 4.4-.7 5.4-3.5.3-.9.4-1.9.5-2.9.2-3.6 0-7.2-1.1-10.6-.9-2.8-1.5-5.7-2.4-8.5-1.3-4.1-2.3-8.4-5.4-11.8-.4.1-.8.1-1.2.2-4 1-5.6.5-7.7-2.8-1.1-1.7-2.1-3.6-2.7-5.5-.9-2.7-1.3-5.7.6-8.1 2.6-3.2 3.5-6.6 2.8-10.6-.2-1-.1-1.9-.2-2.9-.4-6.6 1.1-13 3.2-19.1 2.9-8.5 9-15 15.3-21.1 3.2-3.1 7.3-5.4 11.1-7.8 2.2-1.4 4.8-2 7.4-1.7 2.5.3 5.1.4 7.6 1.2 3.2.9 6.5 1.8 9.2 4 2 1.6 4 3.4 6.2 4.7 2.3 1.4 3.9 3.3 5.5 5.3 1.8 2.3 3.4 4.7 5.3 6.9 4.1 4.7 6.2 10.2 6.6 16.3.3 4.6 0 9.3-.2 13.9-.1 1.5.2 2.7 1.6 3.6 3.2 2 3.9 5.2 3.2 8.6-.9 4.3-2.8 8.2-5.9 11.4-1.6 1.7-3.5 2.6-5.9 1.9-.7-.2-1.5-.1-2.4-.2-.3 1-.8 1.9-.9 2.8-.6 4.8-1.3 9.7-1.7 14.5-.4 3.6.5 7.1 1.7 10.5s3.7 4.6 7.2 3.8c.7-.2 1.5-.6 2.2-.5 2 .2 3.3-.8 4.3-2.4.6-1 1.3-2 2-3 1.5-2 3.4-3.1 5.9-3.6 4.2-.7 8.4-1 12.6-.3 4.3.7 7.6-1.5 10.8-3.7 1.9-1.2 3.3-3 5.2-4.4 1.4-1 2.2-2.2 3.1-3.6 1.3-2.2 2.9-4.3 4.6-6.2 2.7-2.9 5.9-5.5 8.4-8.7zm-119.9 32v6.3c0 1.1-.6 2-1.8 1.7-2.2-.6-4.6-.4-6.7-2.1-3.9-3.3-8.5-4.9-13.6-4-3.8.7-7.8.5-11.1 3-.5.4-1.4.6-2.1.5-2-.1-4.1-.3-6.1-.5-1.9-.2-3.5-.8-4.9-2.2-.9-1-2.2-1.6-3.4-2.5 2.4-.7 45-.9 49.7-.2zM482 379.9c-1.5 1.7-2.2 4-4.6 4.7-.5.2-.9.9-1.2 1.4-1.8 3.5-4.7 6-8.2 7.8-1.4.7-3.1.8-4.7.7-4.7-.2-9.3-.2-13.9.6-4.5.7-6.8 4-9.4 7-.3.4-.6.9-.9 1.4-1.3.3-2.4.4-3.4.7-2.2.6-2.5.4-3.3-1.8-1.4-4.1-1.6-8.3-.9-12.5.5-2.9.6-5.8.9-8.6.4-.2.7-.5 1-.5 4.2.5 6.6-2.2 8.9-5 3.9-4.6 5.9-9.8 5.5-15.9-.2-2.7-.9-5.3-3-7-1.7-1.4-1.7-2.9-1.5-4.6 1.5-9.5-.5-18.5-4.9-26.9-.7-1.4-2.1-2.5-3.1-3.7-2.6-3.3-5.3-6.5-7.9-9.8-.1-.2-.2-.4-.4-.5-4.2-3-8.2-6.5-12.7-8.8-6.7-3.3-14-4.6-21.5-2.7-.3.1-.6.1-.9.2-.8-2.4-.9-22.3-.2-25.5 4-.3 7.9-.6 11.9-1l17.7-1.8c2.9-.3 5.8-.6 8.7-.7 8.8-.3 17.6-.3 26.3-1 4.6-.3 9-.2 13.6.1 9.5.7 18.9 2.1 28.5 1.4.7 0 1.5 0 2.2.2 4.3 1.3 8.6 2.3 12.7 3.9 5.3 2 10.7 3.5 16.3 4.3 3.2.5 6.2 1.5 9.7 2.4-.7 1.3-1.4 2.5-1.9 3.8-2.2 5.1-4.4 10.1-6.4 15.2-3.6 9.2-6.9 18.4-10.5 27.6-.4 1.1-1.1 2.2-1.9 3-4.1 4.3-7.9 8.8-11 14-2.6 4.5-5.5 8.8-8.1 13.3-2.5 4.3-4.6 8.8-7.1 13.1-.6 1.1-1.7 1.9-2.6 2.8-2.3 3-5.2 5.7-7.8 8.7z"/></g><path class="st2" d="M677.5 185.8c2.6-5.2 3.5-11 2.1-16.8-1.1-4.7-2.9-8.9-6.3-12.6-4.2-4.6-8.8-7.8-15-8.9-3.8-.7-7.6-.5-11.3.6-7.9 2.5-14.6 7.1-19.7 13.7-1.5 1.9-2.8 4-4.2 6.1-.6-1.1-1.2-2-1.5-2.7 1.4-2.4 3-4.6 3.8-7 .8-2.5.6-5.2.8-7.5 2.9-1 6-1.5 8.5-3 8.7-5.4 10.7-17 4.3-25.3-2.2-2.8-4.8-5.3-7.4-7.7-4-3.8-8.2-7.4-12.3-11-1.7-1.5-3.4-3.1-5.2-4.4-2.1-1.5-4.5-1.7-6.7-.2-2.1 1.4-2.4 3.5-2 5.8.1.7.3 1.5.4 2.1-3.9 4.6-7.7 9.1-11.4 13.6-3.9 4.6-7.7 9.1-11.6 13.7-1 1.2-2 2-3.8 1.7-2.1-.3-3.9.5-4.9 2.5-1.1 2.2-1.2 4.4.3 6.5.5.7 1.1 1.3 1.8 1.9 4.1 3.7 8.3 7.3 12.3 11.1 2.5 2.3 5.1 4 8.6 3 1.6 11.6 12.1 18.8 23.8 13.9-.1 1-.1 1.7-.2 2.3-1.4 9.7 1.9 17.9 9.1 24.2 7.4 6.6 16.1 8.1 25.5 4.8 10.2-3.7 17.5-10.8 22.2-20.4zm-80.8-35.2c-1.1 1.2-1.4 2.4-.4 3.8.6 1 .7 2.1-.3 2.9-1.1 1-2.3.6-3.3-.2-2.3-1.9-4.5-3.8-6.7-5.7-2.5-2.2-5-4.5-7.4-6.8-.6-.6-1.4-1.2-1.7-1.9-.3-.7-.3-1.8.1-2.4.4-.5 1.6-1 2.2-.8 2.3 1.1 3.5-.1 4.8-1.8 4.9-6 10-11.8 15-17.6 2.9-3.5 5.8-7 8.8-10.4 1.3-1.5 2.2-2.8 1-4.9-.4-.7-.1-2.3.4-2.9.9-1 2.3-.6 3.2.2 4.7 4.2 9.3 8.4 14.2 12.7-.7 1-1.3 1.9-2 2.7-8.8 10.4-17.7 20.8-26.6 31.2-.5.6-.8 1.3-1.3 1.9zm25.6-24.8c-.4.5-.9 1-1.3 1.4.3-.6.5-1.2.8-1.7.2.1.4.2.5.3zm-1.7 2.1c-.5.7-1 1.4-1.5 2.2-.2-.1-.3-.3-.5-.4.7-.6 1.3-1.2 2-1.8zm-.2 32.7c-1.7 2-3.2 4-5.1 6.4 1 .1 1.7.3 2.4.3 1.2 0 2 .6 2 1.7 0 .8-.6 1.7-1.1 2.5-.1.2-.5.3-.8.4-9.5 3.6-18-4.8-17.2-11.6.3-2.6 1.4-4.7 3-6.7 1.6-1.9 3.1-3.9 4.7-5.8 2.5-3.1 2.6-4 1.3-7.9.7-.9 1.4-2 2.3-3.2 3.5 2.2 5.7.2 7.8-2.2 1.6-1.9 3.3-3.8 4.9-5.7 2-2.5 3.6-5 1.3-8.4 1.1-1.2 2-2.2 3-3.3 4.7 3.9 9.1 7.6 10.3 13.8 1.8 9.8-7 17.9-16.5 15.2-1-.3-2-.7-3.6-1.2.8 1.4 1.4 2.3 2 3.3 2.3 4.3 2.6 8.4-.7 12.4zm8.1 34.4c-3.9-5.2-5.4-10.4-4.9-16.1.4-4.8 2.1-9.3 5-13.2 5-7 11.4-12.3 19.9-14.3 8.1-1.9 15.2 0 21.3 5.8-1.8 2.9-2 3-4.8 2.5-1.8-.4-3.1.4-4.4 1.5-7.7 7-15.5 13.9-23.2 20.9-1.3 1.2-2.5 2.4-3.8 3.6-1.7 1.4-2.8 3-2.3 5.4.4 2-1.8 2.3-2.8 3.9zm37.3-29.5c-.3.4-.8 1.1-1.4 1.6-5.1 4.6-10.2 9.1-15.3 13.7-3.2 2.8-6.3 5.7-9.4 8.5-.6.5-1.2 1-1.7 1.5-1 .9-2.1 1.4-3.1.3-.9-1.1-.2-2 .7-2.8 1.8-1.6 3.5-3.3 5.2-4.9 6.9-6.1 13.8-12.2 20.7-18.4.6-.6 1.3-1.2 2.1-1.5 1.2-.5 2.3.3 2.2 2zm-35.1 32.3c1.6-3.3 1.7-3.4 4.8-2.9 1.8.3 3.2-.5 4.4-1.6 2.9-2.5 5.8-4.9 8.6-7.5 6-5.4 12-11 18.1-16.4 1.7-1.5 2.9-3.1 2.5-5.6-.4-2.1 1.5-2.9 2.9-4.1 3.8 5.3 5.5 10.9 4.6 17.2-.6 4.3-2.2 8.4-4.8 12-4.5 6-9.8 11-17 13.6-9 3.4-17 1.8-24.1-4.7zM659.8 479.6c3.5 2.2 6.2 5.2 7.6 9.1 1 2.8 2.6 6-.7 8.6-.3.2-.3.8-.3 1.2v5.1c2.8-.3 4.7-1.2 6.5-2.8 1.4-1.3 3.2-2.2 4.8-3.4.7-.6 1.4-1.2 2-2 1.3-1.8 2.4-3.9 3.8-5.6 1.2-1.4 1.9-2.8 1.9-4.7-.1-1.6.4-3 1.4-4.2.5-.7 1-1.5 1.2-2.3 1.7-5.3 4.1-10.6 4.9-16.1.9-5.8.2-11.9.2-17.9-.5-.1-.9-.2-1.3-.2-5.9.5-11.9.9-17.8 1.6-5.1.6-9.8 2.8-14 5.8-4 2.8-7.8 5.9-11.5 9-2 1.6-3.9 3.5-5.6 5.4-1.6 1.8-2.9 3.9-2.9 6.7 1.5.3 2.9.6 4.3.9 5.3 1.1 10.7 2.7 15.5 5.8zM575.3 132.4c1.5-3 3.2-5.9 4.7-8.9.7-1.3 1.4-2.2 3-2.7 2.1-.6 3-2.4 3.3-4.4.3-2.2-.3-4.1-2-5.4 1.7-1.4 3.5-2.4 4.4-3.9 2.8-4.6 5.2-9.5 7.8-14.3.3-.6.5-1.2.6-1.8.8-3.4-1.4-6.7-4.8-6.5-3 .2-4.5-1.3-6.2-3.2-3.8-4-8.5-6.7-13.8-8-7.5-1.8-14.5 0-20.7 4.4-9.3 6.7-14.4 16.1-15.5 27.5-1 10.5 1.8 21.6 15.5 28 6.2 2.9 12.7 3.5 19.4 2.3 2-.4 3.4-1.3 4.3-3.1zm3.4-52.6c.8.5 1.5.8 2 1.2 2.2 2 4.3 3.9 6.4 6 1 1 1.9 1.6 3.4.9 1.1-.5 2.6-.7 3.2.6.4.8.2 2.1-.3 3-2.3 4.6-4.8 9.2-7.3 13.8-.6 1.1-1.5 1.9-2.9 1.5s-1.8-1.5-1.7-2.8c.1-1 .3-1.9.5-2.9.2-1.9.6-3.9.6-5.8 0-4.7-1.7-8.7-5.9-11.6.7-1.4 1.3-2.6 2-3.9zm.6 16.9c0 1-.2 1.9-.3 2.9-.3 2.5-.6 5.1-1 8-2.1-1.3-4.2-2.7-6.4-3.9-2.3-1.2-4.7-2.2-7.3-3.4 2.4-4.3 4.8-8.9 7.3-13.4.9-1.6 1.6-1.5 3.2-.4 3.6 2.5 4.7 6.1 4.5 10.2zm-27.8 20.5c-1.1 2-1.4 3.9-.7 6.2.4 1.3-.6 3-1.1 5-6.7-4.5-9.9-10.3-10.3-17.5-.7-11.3 3.4-20.8 11.8-28.4 5-4.6 10.7-6.8 17.5-6.5 2.5.1 4.9.8 7.4 2.2-.6 1.4-1.2 2.6-1.9 3.9-2.9.1-4.8 1.7-6.1 4.1-5.6 10.3-11.1 20.7-16.6 31zm10.1-6c-1.7 3.3-3.4 6.4-5.1 9.5-.4.8-.9 1.9-2.2 1.3-1.2-.6-.9-1.6-.4-2.5 1.8-3.5 3.7-7.1 5.7-10.9.9 1.1 1.4 1.8 2 2.6zm8.8 21c-6.2 1.2-12.3.6-18.4-2.4.7-1.5 1.2-2.7 1.8-4 3.3.3 4.9-1.7 6.2-4.3 1.5-3 3.1-6 4.7-8.9.8-1.4 1.1-2.6-.4-3.7-.3-.3-.8-.6-.9-.9-.2-.8-.5-1.8-.1-2.3.4-.6 1.4-.9 2.2-.9.7 0 1.4.4 2.1.8 4.5 2.5 8.9 5 13.4 7.4 1.2.7 2.3 1.3 2.1 2.9s-1.2 2.3-2.7 2.4-1.9 1.2-2.5 2.3c-1.8 3.2-3.4 6.5-5.3 9.7-.4.8-1.3 1.8-2.2 1.9zM685.6 249.8c2.3-1.3 4.4-2.8 6.5-4.3 5.1-3.5 10.2-7.1 15.2-10.6 2.1-1.5 4.2-2.4 6.9-.9 2.2 1.2 4.6.5 5.9-1.2 1.7-2.1 1.8-4.6.6-6.8-2-3.6-4.3-7-6.7-10.4-1.6-2.1-4.2-2.6-6.5-1.6s-3.3 2.9-3 5.3c.3 2.6-.9 4.2-2.7 5.5-7.2 5-14.5 10-21.7 15-3.4 2.3-6.7 2.1-10-.3-2.5-1.8-2.6-3.4-.1-5.4 1.3-1 2.7-1.8 4-2.8 8.4-5.9 16.9-11.9 25.1-17.6 1.7.3 3 .9 4.4.9 4.3-.2 6.5-4.9 4-9.1-3.6-5.8-7.4-11.5-11.3-17.2-1.5-2.2-3.7-3.3-6.5-2.5-2.5.7-3.6 2.1-3.8 5.4-.1 1.1-.4 1.8-1.3 2.4-2.1 1.4-4 2.9-6.1 4.3-6.9 4.8-13.7 9.5-20.6 14.3-2.9 2-4.9 4.5-5.5 8.1-.9 5.9-.2 11.5 2.6 16.7 1.5 2.8 3.7 5.3 5.3 8.1 2.1 3.8 5.4 5.8 9.5 6.8 5.7 1.8 10.9.7 15.8-2.1zm-23.8-8.5c-4.5-5.5-6.7-11.4-6.3-18.2.2-3.4 1.6-6.1 4.6-8.2 8.4-5.6 16.7-11.4 25-17.1l2.1-1.5c1.6-1.2 3-2.5 2.2-4.9-.4-1 .2-2.1 1.3-2.3.8-.1 2 .2 2.6.8 1.2 1.3 2.2 3 3.2 4.5 2.5 3.7 4.9 7.4 7.3 11.2.6 1 1.3 2.1 1.5 3.2.4 1.9-1.4 3.4-2.9 2.3-2.3-1.7-3.9-.7-5.8.6-8.6 6-17.2 11.8-25.8 17.7-1.2.9-2.4 1.9-3.5 2.9-2.1 1.8-2.5 4.2-2 6.8-1.3.8-2.4 1.5-3.5 2.2zm11 8.1c-3.7-.5-6.8-1.9-9.3-5.2 1.4-1 2.4-1.8 3.5-2.7.6.4 1 .9 1.5 1.2 4.4 3.1 9.6 3 14-.1 3.8-2.7 7.6-5.4 11.4-8 3.3-2.3 6.6-4.6 9.8-7 2.7-2 4.7-4.5 4.1-8.3-.1-.7.7-2 1.3-2.2.7-.2 2 .3 2.5.9 2.1 3 4.1 6.1 6.1 9.2.3.5.4 1.3.4 1.9-.1 1.7-1.5 2.6-2.9 1.6-3-2.1-5.8-1.3-8.4.6-7.1 4.8-14.1 9.7-21.2 14.6-3.8 2.7-8 4.1-12.8 3.5zM632.7 527.4c-.6 3.5.6 5.4 4.1 6.1 2.9.7 5.6-.2 8-1.9 1.4-1 2.1-2.5 2.1-4.2.6-11.1-2.6-20.8-10.3-28.9-3.6-3.8-7.6-7-13.2-8.4-.6 1.4-1.4 2.7-1.8 4.1-.5 1.8-1.6 2.7-3.3 3.3-2.4.9-4.8 2-7.5 3.1 4.4 4.7 6.9 10 8.9 15.7 1.5.2 2.9.3 4.3.5.1.6.3 1 .2 1.4-.3 2.5.8 3.7 3.1 4.4 2 .6 3.9 1.8 5.8 2.7-.1 1.1-.3 1.6-.4 2.1zM729.2 246.9c-.3-.8-.6-1.6-1.1-2.4-1.3-2-2.9-3.5-5.5-3.2-2.3.3-4 1.9-4.6 4.7-.3 1.2-.8 1.9-1.9 2.3-2.1.8-4.2 1.7-6.3 2.7-8.2 3.6-16.5 7.2-24.7 10.8-1.2.5-2.2 1.1-3.6.1-2-1.5-4.3-1.3-6.4.1-2.1 1.5-2.4 3.8-1.9 6.2.2.8.5 1.7.8 2.5 1.2 2.9 2.4 5.8 3.5 8.7 1.2 3 2.5 6 3.8 9 1.2 2.8 3.4 4.1 6.2 3.7 2.6-.4 3.9-1.7 4.5-4.8.1-.5.2-1 .3-1.6 2.8-1.2 5.5-2.3 8.4-3.5 1.1 2.2 2 4.1 2.9 5.9 1.6 3.2 3.8 5.8 6.7 7.8 7 4.9 15.6 3.6 22.6-1 3.5-2.3 5.7-5.5 6.8-9.6 1.7-6.1.4-11.8-1.8-17.5-2.9-6.9-5.8-13.9-8.7-20.9zM691 282.6c-1.6.7-2.5 1.5-2.3 3.4.1 1.3-.2 2.5-1.6 2.8-1.5.3-2.2-.8-2.7-1.9l-7.8-18.6c-.2-.5-.4-1.1-.3-1.6.2-.8.5-1.9 1.1-2.1.7-.3 2.1-.1 2.5.5 1.3 1.8 2.7 1.7 4.5.9 8.3-3.7 16.7-7.3 25-11 3.2-1.4 6.3-2.9 9.5-4.3 1.4-.6 2.3-1.5 2.2-3.2-.1-1.2.1-2.2 1.5-2.5 1.6-.4 2.5.6 3 1.9 1.6 3.7 3.1 7.4 4.6 11.1.8 2 1.6 4 2.6 6.2-1.6.8-3 1.7-4.4 2.3l-19.8 8.4c-5.9 2.5-11.7 5.2-17.6 7.7zm34.6-10.7c-.9.3-1.9.5-2.8.8.9-.5 1.7-1 2.6-1.4.1.2.2.4.2.6zm-3.3 1c-.3.3-.6.6-1 .8-3 1.4-5.9 2.7-9 3.8 3-2.1 6.4-3.6 10-4.6zm12.2 15.9c-6.5 9.8-21.6 9.2-27.3-1.1-1.3-2.3-2.4-4.6-3.7-7.1 1.5-.7 2.6-1.2 3.9-1.8 2.3 3 5.1 2.8 8.1 1.3 3.3-1.6 6.7-3.1 10.1-4.6 2.9-1.3 5.1-3 4.6-6.7 1.2-.5 2.3-1 3.3-1.4 4.4 5.9 4.8 15.6 1 21.4zM642.8 538.8c-3.1 1.3-3.5 3.6-.9 5.7 2.8 2.3 5.7 4.3 8.7 6.3.5.4 1.2.5 2.1.9-.5-5.5-1.5-10.4-4.5-14.9-2 .7-3.7 1.2-5.4 2zM418.9 841.4c-5.7 3.6-12.1 4.5-18.8 4-13.2-1-22.2-9.3-24.2-20.8-.6-3.4-.6-6.9-.2-10.4 1.2-13.1 10.1-22.3 22.4-23.8 7-.9 13.6.4 19.3 5 2.5 2 4.2 4.6 5.1 7.5h4c.7-4.2.6-12.4-.2-14.6-4.3-1.7-5 2.8-7.5 4.5-1-.5-2.1-1-3.1-1.6-4-2.1-8.2-3.5-12.7-3.7-4.2-.2-8.5 0-12.7.5-7.6.9-14.5 3.4-20.6 8.2-4.5 3.5-7.9 7.8-9.5 13.3-3.2 10.3-1.2 19.3 6.6 26.9 3.9 3.8 8.3 6.5 13.4 8.4 7.3 2.7 14.9 3.7 22.7 3.5 8-.3 15.3-2.7 22.1-7 1-.7 1.9-1.6 3.1-2.6-1.4-.8-2.4-1.4-3.4-2-2 1.7-3.8 3.4-5.8 4.7z"/></svg>