<?xml version="1.0" encoding="utf-8"?>
<!-- Generator: Adobe Illustrator 24.0.1, SVG Export Plug-In . SVG Version: 6.00 Build 0)  -->
<svg version="1.1" id="Layer_1" xmlns="http://www.w3.org/2000/svg" xmlns:xlink="http://www.w3.org/1999/xlink" x="0px" y="0px"
	 viewBox="0 0 787.9 876.3" style="enable-background:new 0 0 787.9 876.3;" xml:space="preserve">
<style type="text/css">
	.st0{fill:#E52225;}
	.st1{fill:#1F1B1C;}
	.st2{fill:#FFFFFF;}
</style>
<path class="st0" d="M776.9,407.1C776.9,185.6,605,6,393,6S9.1,185.6,9.1,407.1c0,200.8,141.2,367.2,325.5,396.5
	c-5.7,3.6-11.4,7.2-17.1,10.8c-0.8,0.5-1.5,1.1-2.5,1.8c1,0.8,1.7,1.4,2.5,1.9c7.4,4.7,14.9,9.3,22.3,14.2c2.2,1.5,3.9,1.6,6.1,0
	c2.9-2.1,6-3.9,9.2-5.9c3.5,10.5,10.8,17.2,20.8,21.8c-1.9,1.3-3.4,2.4-5.2,3.7c9.3,5.9,18.2,11.5,27.2,17.3c3.9-2.6,7.6-5,11.3-7.4
	c12.3-7.8,24.5-15.6,36.8-23.4c10.5-6.6,21-13.1,31.5-19.7c0.9-0.6,1.8-1.2,3-2.1c-7.6-4.9-14.8-9.6-21.9-14.2
	C639.5,769.8,776.9,605.2,776.9,407.1z M425,841.4c-6.7,4.3-14,6.7-22.1,7c-7.8,0.3-15.4-0.8-22.7-3.5c-5.1-1.8-9.6-4.6-13.4-8.4
	c-7.8-7.6-9.8-16.6-6.6-26.9c0.3-1,0.7-1.9,1.1-2.8c5.2,0.4,10.5,0.8,15.8,1c-0.6,2-1.1,4.1-1.3,6.4c-0.3,3.4-0.3,7,0.2,10.4
	c1.9,11.5,11,19.8,24.2,20.8c6.6,0.5,13-0.4,18.8-4c2-1.3,3.7-2.9,5.8-4.6c1,0.6,2,1.2,3.4,2C426.9,839.8,426,840.7,425,841.4z
	 M443.8,806.4c-6.9,4.3-13.8,8.6-20.8,12.9c-9.7,6-19.4,12-29.1,18c-1.1,0.7-2.1,1.4-3.6,0.6c-3.8-2.2-6.8-5-8.6-9.1
	c-2.3-5.4-2.3-11-1.3-16.6c0.2-1.3,0.9-2.1,2-2.8c0.7-0.4,1.3-0.8,2-1.2c2.8,0.1,5.7,0.1,8.5,0.1c8.5,0,17-0.3,25.4-0.9
	c0.1,0.1,0.2,0.2,0.2,0.4h12.4c0.1-0.4,0.1-0.9,0.2-1.5c5.4-0.6,10.7-1.2,16.1-2C446.1,805,445,805.7,443.8,806.4z"/>
<path d="M354.8,31.1l2.3,17c0.1,0.5-0.1,1.1-0.6,1.6s-1,0.8-1.7,0.9c-1,0.1-1.7-0.1-2.2-0.6c-0.4-0.6-1-1.8-1.5-3.6
	c-0.6-1.8-1.4-3.6-2.4-5.4c-1.1-1.8-2.6-3.1-4.6-4.1l-0.6-4.2L354.8,31.1z"/>
<path d="M321.2,36.8l0.7,4.2c-1.6,1.5-2.7,3.3-3.2,5.3s-0.7,4-0.7,5.9s-0.1,3.2-0.4,3.9c-0.3,0.7-0.9,1.1-1.9,1.3
	c-0.7,0.1-1.3,0-1.9-0.3c-0.6-0.3-0.9-0.8-1-1.3l-3-17L321.2,36.8z"/>
<rect x="586.4" y="435.9" class="st1" width="134.9" height="129.7"/>
<g>
	<path class="st1" d="M643.4,467.3c2.5-1.8,12.7-10.3,15.4-12.6c5.8-3.1,12.8-6.5,14-6.8c2,0,16.9-0.3,16.9-0.3h1.9l5.3-11.4
		l-6-23.5l-24-20.6l-25.7-5L637,396v0.7c0.4,11,0.9,15.1,1.6,16.8c-0.2,2-1.6,8.5-3.1,14l-17.4,22.8l-0.2,0.4
		c-3,5.6-6.6,11.9-7.5,13.1c-1.1,0.6-4.6,1.8-6.9,2.7c-7,2.6-8.6,3.1-9.2,4.8c-0.4,0.7-2,3-3.3,4.9c-4.5,6.6-5.3,7.9-5.6,8.9
		c0,0.2-0.1,0.5-0.3,0.8c-1,2.9-1.8,5.9-0.8,8.4c0.9,2.2,4.1,4,10.4,7c0.7,0.3,1.3,0.6,1.5,0.7c0.3,0.2,1.3,0.8,9,3l1.3,0.4l1.2-0.8
		c3.1-2.1,10.5-7.3,11.8-8.5c0.8-0.8,4-3.9,6.1-5.9c1.4,1.2,3.2,2.5,4.7,3.3c1.6,0.8,10.3,7.7,12.5,10.1c-0.1,2.1,0.1,6.7,1.3,17.5
		c0.2,1.4,0.8,3.1,2,6.1c1.3,3.2,3,7.6,3.2,10.3c0.2,3.7,1.2,7.9,1.8,10.6c0.3,1.1,0.5,2,0.5,2.2s-0.1,0.7-0.3,1.2L609.6,533
		l0.4,1.2c-1.5-0.6-3.6-1.3-4.4-1.6c-0.9-0.3-2.9-0.7-6.7-1.6c-2.2-0.5-4.7-1-7.1-1.6c-3.9-0.9-8.2-0.7-11-0.4
		c-3.2-14.6-7.9-35.7-8.1-37.2c0-0.4,0.4-1.4,0.9-2.4c1.9-2.3,4.2-5.3,4.6-6.7c0.4-0.8,2.7-4.1,3.7-5.4c0.6-0.8,1-1.4,1.3-1.8
		c1-1.5,1-3.9,0.3-12.5c-0.1-1.1-0.2-1.9-0.2-2.3c0-1.6-0.8-2.9-1.4-3.9c-0.2-0.3-0.5-0.8-0.5-1c-0.4-1.2-1-2.9-11.3-5.5l-1.4-0.4
		l-1.2,0.9c-2.8,2.2-6.5,4.8-7.6,5.2c-1.9,0.8-7.2,1.7-10.4,0.4c-4.8-1.9-14.4-2-15.5-2h-0.9l-22.7,15.1l-6.1,28.5l8.1,30.5
		c-4,4.3-8.6,8.8-9.8,9.5c-1.2,0.6-7.2,1.8-13.5,3c0.2-2.1,0.3-4.8-0.1-8.4c-0.7-7,2-57.3,3.6-83.9l7.8-8.1l11.6-13.8l1.3-11.4
		c4.9-6.7,10.5-14,11.6-14.9c1.5-1.1,5.3-7.3,11.3-18.4l7.5-19.8c4.8-8.2,19.8-34.1,20.7-37.7c0.5-1.9,4.3-11.3,7.7-19.5
		c0.5,6.5,0.8,23.7,0.8,39.5l-8,19.7l14.2,13.2l54.4,17l-2.5-5.9c0,0-7-16.5-7.8-18.7c-0.5-1.2-1.4-2.5-2.5-4s-2.8-3.8-3-4.9
		c-0.2-1.2,0.2-1.6,0.1-1.5l1.2-0.9v-20.3l-6.6-27.3l-19.2-87.7l-8-20.3l-1.1-0.5c-4.4-2-19-8.5-22.2-9c-2.7-0.4-17.3-4.6-18.7-5.1
		c-0.6-0.2-1.9-0.6-17.3,0.3l-52,4.4l-89.9,9.2l-73.3,8.3c-33.2,3.7-84.2,9-88.5,8.7c-3.6-0.3-12,1.6-24.4,4.6
		c-7.4,1.7-15,3.5-17.9,3.7c-6.2,0.4-8.8,2.6-10.2,3.9c-0.1,0.1-0.3,0.2-0.4,0.3c-3,1.4-7.5,9.8-7.5,11.9c0,1.3,0.4,30.2,0.4,34.1
		c-5.7,22.6-15.3,59.1-17.3,63.1c-1.4,1.8-2.4,7-5,54.2c-0.4,6.5-0.7,12.7-0.8,13.8c-0.2,0.9,0,1.9,0.6,2.7c2.1,2.9,11,3.1,11.1,3.1
		c0.7,0,1.9,0,21.2-7.6l15.8-11.9l18.3-16.9l-1.1-2.1c-0.1-0.2-1.3-2.3-2.7-4.7c1.5-4.6,1.7-17.1-12.4-56.5l-0.4-1.1
		c-0.5-1.5-0.7-4-0.6-6.6l39.4,57.3l62.6,73.5c2.1,7,4.2,14.6,4.4,15.6c0,1.9,0,3.1,15.8,11.2l9.5,21.4l-0.2,37.3l-14.1-20.4
		l-15.8-10l-16.7,3.5l-16.3,4.2l0,0c0.4-0.5,0.8-0.9,1.1-1.3c2.1-2.8,4.4-17.5,4.4-20.6c0-3.8-1.5-9-1.7-9.6l-0.5-1.5l-1.5-0.5
		c-2-0.6-4.3-1.5-5-2c-0.7-1.4-2.3-6.6-2.5-7.8c0-1.8-1.1-3.7-7.2-11.1c-2-2.4-5.9-8.4-5.9-8.4l-0.6-1l-1.1-0.3
		c-3.8-1-8.5-2.4-9.3-2.8c-0.8-0.5-2.1-1.4-17.2-0.8l-22.3,5.9l-15,19.1l1.3,32.1l-3.8,10.8l15.4,25.6l10.4,18.4l-2.8,3.9l-8.1,9.2
		l-10.3-2.8l0.4,2.4c-3.5,1.1-11,2.8-14,1.8c-1.5-0.5-3.3-1.1-16.5,9.8l-0.5,0.4l-6.9,14.1l-15.6,10.2l3.3-13.6l10.8-15.4l18.4-7.4
		l7.1-8.8l6.9-2.6l0.8-4c0.7-1.1,1.9-3.4,1.9-5.5c0-2.2-1.1-5.4-1.3-6l-2.2-4.5l-1.8-7.4l-2.9-6.3l-4.6-7.8l-8.8-3.9l-14.4,0.9
		l-12.7,4.5L103.2,531l-6,25.6l-0.8,5.3l-1.4,4.2l-2.2,5l-21,51.8l41.1,57.3l6.5-6.5l33.3-15.4l7.8-10.1l14.8,24.6V695l-10.8,31
		l2.7,1.1c7.1,2.9,14.7,5.9,22.5,9.1c25.1,16.9,75.7,46.4,140.8,57.2l6.2,1.1l62.2-39l57.6,36.9l10-1.5l0,0l0,0
		c0,0,108.9-16,194-104.5l-0.9-2.7l2.8-1.5l-27.5-83c7.4,1.1,15.7,2.3,16.5,2.5c0.5,0.2,1.3,0.4,27.3,1.6h0.6l16.8-6.5l-0.3-18.4
		l-7.3-32.3L677,526l-8.3-18l-2.3-9.9l4-6.8l-6.7-13.3l-10.1-5.7l-10.7-0.7c0.1-0.5,0.2-1.1,0.3-1.6
		C642.8,469.5,643.1,467.9,643.4,467.3z M441.1,354.9c-1.4-0.9-1.6-2.1-1.6-3.6c0.2-4.6,0.5-9.3,0.2-13.9
		c-0.3-6.1-2.5-11.6-6.6-16.3c-1.9-2.2-3.5-4.7-5.3-6.9c-1.6-2-3.2-3.9-5.5-5.3c-2.2-1.3-4.2-3.1-6.2-4.7c-2.7-2.2-6-3-9.2-4
		c-2.4-0.7-5-0.8-7.6-1.2c-2.7-0.4-5.2,0.3-7.4,1.7c-3.8,2.4-7.9,4.7-11.1,7.8c-6.3,6.1-12.4,12.6-15.3,21.1
		c-2.1,6.1-3.5,12.5-3.2,19.1c0.1,1,0,2,0.2,2.9c0.6,4-0.3,7.4-2.8,10.6c-2,2.4-1.5,5.4-0.6,8.1c0.6,1.9,1.6,3.8,2.7,5.5
		c2.1,3.3,3.8,3.9,7.7,2.8c0.4-0.1,0.8-0.2,1.2-0.2c3.1,3.4,4.1,7.7,5.4,11.8c0.9,2.8,1.5,5.7,2.4,8.5c1.1,3.5,1.3,7,1.1,10.6
		c-0.1,1-0.2,2-0.5,2.9c-1,2.8-2.5,4-5.4,3.5c-2.8-0.4-5.6-0.7-8.1-2.8c-4.5-3.9-9.7-5-15.5-2.9c-0.8,0.3-1.7,0.2-2.6,0.3
		c-0.5,0.1-1.2,0.1-1.6,0.4c-5.7,4.2-11.4,1.1-17.1,0.1c-0.5-0.1-0.9-0.6-1.3-0.9c-0.3-0.3-0.5-0.8-0.9-1
		c-5.2-2.6-8.4-7.6-13.5-10.4c-3.8-2.1-7.2-5-10.2-8.4c-6.6-7.5-13.5-14.7-20.4-21.9c-1.3-1.4-3-2.5-4.8-3.3
		c-2.9-1.3-4.7-3.6-5.8-6.3c-3.1-7.6-8.1-13.9-13.3-19.9c-6.9-8-14.1-15.6-21.1-23.4c-4-4.4-8.3-8.6-12-13.3
		c-5.5-7-10.6-14.3-15.8-21.5c-0.1-0.1,0-0.4-0.1-0.8c2.4-0.3,4.6,0.6,6.8,1.5c2.1,0.8,4,2.1,6.2,2.9c5.3,1.9,10.7,2.6,16.3,1.8
		c6.9-1,13.7-2,20.6-3c5.9-0.8,11.9-1.4,17.8-2.2c6.8-0.9,13.6-1.6,20.3-2.8c14.2-2.6,28.4-4.8,42.8-6.1c15.1-1.4,30.2-3.2,45.3-4.7
		c4.2-0.4,8.5-0.2,12.7-0.6c6.9-0.6,13.8-1.5,20.7-2.2c11.8-1.3,23.6-2,35.4-2c3.1,0,6.3-0.5,9.4-0.3c5.6,0.3,11.2,0.9,16.8,1.3
		c6.1,0.4,12.1,0.6,18.2,0.7c2.3,0.1,4.5,0.2,6.6,1.5c1.2,0.7,2.7,0.8,4,1.3c2.8,0.9,5.5,2,8.3,2.8c3.7,1,7.5,2,11.3,2.8
		c5.1,1,10.2,1.8,16,2.8c-0.8,2-1.4,3.7-2.1,5.4c-4.3,10.3-8.7,20.6-12.9,30.9c-2.1,5.2-3.9,10.6-5.8,15.8c-0.3,0.8-0.8,1.5-1.4,2.2
		c-2.6,3.2-5.3,6.3-7.9,9.4c-1.1,1.3-2.2,2.7-3.1,4.2c-3.8,6.7-7.5,13.4-11.2,20.1c-1.6,2.9-3.1,6-5.2,8.6c-2.5,3.2-5.8,5.8-8.5,8.9
		c-1.7,1.9-3.3,4-4.6,6.2c-0.8,1.4-1.7,2.6-3.1,3.6c-1.8,1.3-3.3,3.1-5.2,4.4c-3.3,2.1-6.6,4.3-10.8,3.7c-4.2-0.7-8.4-0.4-12.6,0.3
		c-2.5,0.4-4.5,1.6-5.9,3.6c-0.7,1-1.4,1.9-2,3c-1,1.6-2.2,2.6-4.3,2.4c-0.7-0.1-1.4,0.3-2.2,0.5c-3.5,0.8-6-0.4-7.2-3.8
		c-1.2-3.4-2.1-6.9-1.7-10.5c0.5-4.9,1.1-9.7,1.7-14.5c0.1-0.9,0.6-1.8,0.9-2.8c0.9,0.1,1.7,0,2.4,0.2c2.4,0.7,4.3-0.2,5.9-1.9
		c3.1-3.2,5-7.1,5.9-11.4C445,360,444.3,356.9,441.1,354.9z M256.5,503.5c-0.2,3.3-0.4,6.8-0.6,10.1c-0.7-2.8-1.2-5.3-1.3-6.7
		c-0.2-2.1,0.8-3.6,2-5L256.5,503.5z"/>
	<path class="st1" d="M488,79.4c1.8,1.6,3.6,3.1,5.2,4.9c3.4,3.9,1.7,8.8-3.3,10c-1,0.2-2.1,0.5-3,0.7c-0.3,1.3-0.6,2.3-1,3.7
		c2.9,1.2,5.6,1,8.2,0.8c14.3-1.3,20.6-18.1,13.1-28.1c-2.4-3.2-5.2-5.8-8.3-8.1c-2.4-1.8-4.9-3.6-6.4-6.4c-1.8-3.3-0.7-6.6,2.7-8.1
		c1-0.4,2-0.7,3.1-1.1c0.3-1.3,0.5-2.6,0.8-3.8c-6.3-2.3-13.3-0.6-17.9,4.4c-6.6,7.2-6.8,17.6-0.2,24.8
		C483.1,75.4,485.7,77.3,488,79.4z"/>
	<path class="st1" d="M80.7,276.5c3.9-2,7.3-4.7,10.5-7.6c1.5-1.4,3-2.9,4.6-4.1c1.9-1.4,4-2.3,6.4-1.2c2.3,1.1,3.3,3,3.5,5.5
		c0.1,1.2,0,2.4,0,3.5c1.3,0.6,2.3,1.1,3.4,1.5c2.3-4.1,2.9-9,1.7-14c-2.2-9.2-11.2-15.2-20.1-13.3c-4.3,1-7.9,3.5-11.1,6.5
		c-2.6,2.4-5.2,4.9-8.3,6.8c-3.8,2.3-7.7,0.2-8.5-4.2c-0.2-0.9-0.2-1.9-0.3-3c-1.1-0.5-2.2-1-3.2-1.4c-0.3,0.3-0.4,0.4-0.5,0.6
		c-4,9.6-0.7,19,8.4,23.8c0.4,0.2,0.8,0.4,1.2,0.6C72.4,278.6,76.5,278.7,80.7,276.5z"/>
	<path class="st1" d="M415.7,84.9c0.4,0.1,0.9,0.1,1.3,0.1c4.7,0.6,9.5,1.2,14.2,1.8c1.6,0.2,3.2,0.4,4.9,0.3c0.7,0,1.8-0.8,1.9-1.3
		c0.2-0.8-0.2-2.2-0.8-2.5c-2.5-1.1-2.3-3-2.1-5.2c1.7-13.6,3.3-27.1,5-40.7c0.2-1.5,0.2-3,0.4-4.8c-2.1-0.3-3.8-0.5-5.6-0.8
		c-4.3-0.5-8.6-1-12.9-1.5c-1.3-0.1-2.4,0.2-2.9,1.6c-0.4,1.3,0.3,2.1,1.3,2.7c1.8,0.9,2,2.3,1.8,4.1c-0.9,6.8-1.6,13.6-2.4,20.4
		c-0.7,6-1.5,12.1-2.2,18.1c-0.2,1.4-0.6,2.5-2.2,2.8c-1.5,0.3-2.4,1.1-2.3,2.6C413.1,84.1,414.4,84.6,415.7,84.9z"/>
	<path class="st1" d="M256.3,59.5c2.7,0,3.4,1.8,4,3.9c3.5,11.9,7,23.7,10.6,35.6c0.5,1.8,0.8,3.3-1,4.6c-0.9,0.6-1.5,1.7-0.8,2.9
		c0.7,1.3,1.9,1.3,3.1,1c0.3-0.1,0.6-0.1,1-0.2c5.9-1.9,11.7-3.8,17.6-5.8c0.3-0.1,0.7-0.1,0.9-0.4c0.5-0.7,1.3-1.5,1.3-2.3
		c0-0.6-1.1-1.6-1.7-1.6c-2.8,0.1-3.3-1.8-3.9-3.9c-3.9-13.4-7.9-26.8-11.9-40.2c-0.3-1-0.7-2-1.1-3c-0.5,0-0.8-0.1-1.1,0
		c-5.3,1.6-10.6,3.2-15.9,4.9c-0.6,0.2-1.4,0.4-1.7,0.8c-0.5,0.6-1,1.5-0.9,2.2C254.9,58.5,255.8,59.5,256.3,59.5z"/>
	<path class="st1" d="M155.1,125.5c2.2-0.8,3.5,0.2,4.5,2c0.4,0.7,0.9,1.2,1.3,1.8c7.1,9.3,14.2,18.6,21.3,27.9
		c1.1,1.4,1.7,2.7,0.7,4.4c-0.7,1.1-1.1,2.3,0.2,3.2c1.1,0.8,2.3,0.3,3.3-0.4c0.4-0.3,0.9-0.7,1.3-1c4.5-3.6,9-7.2,13.4-10.8
		c0.6-0.5,1.3-1,1.5-1.6c0.2-0.7,0.3-1.8-0.1-2.4c-0.4-0.5-1.6-1-2.2-0.7c-2.3,1-3.4-0.2-4.6-1.8c-2.6-3.5-5.2-6.9-7.8-10.4
		c-4.8-6.3-9.6-12.6-14.4-18.9c-1.7-2.2-3.3-4.5-5.2-7.1c-5,4-9.6,7.8-14.3,11.5c-0.3,0.2-0.6,0.4-0.7,0.7c-0.3,0.9-0.8,1.8-0.6,2.6
		C152.9,125.8,154.1,125.9,155.1,125.5z"/>
	<path class="st1" d="M114.7,167.8c2-1,3.3-0.2,4.6,1.1c2.3,2.3,4.5,4.7,6.8,7c6.3,6.3,12.7,12.5,19,18.7c0.5,0.5,0.9,0.9,1.3,1.4
		c0.9,1,1.4,2.2,0.7,3.6c-0.6,1.2-0.7,2.3,0.6,3.1c1.3,0.8,2.3-0.1,3.1-0.9c0.5-0.4,0.9-0.9,1.4-1.4c3.9-4.1,7.7-8.2,11.6-12.3
		c0.6-0.6,1.2-1.4,1.4-2.1c0.2-0.7-0.1-1.7-0.6-2.3c-0.3-0.4-1.5-0.6-2-0.3c-2.4,1.5-3.8,0.1-5.3-1.5c-9.7-9.6-19.4-19.2-29.1-28.8
		c-0.8-0.8-1.7-1.6-2.8-2.6c-4.4,4.8-8.7,9.4-13,14c-0.7,0.8-1.4,2-0.3,2.9C112.7,167.8,114,168.1,114.7,167.8z"/>
	<path class="st1" d="M367.3,79.4c-1.2,0.4-2.2,1.2-1.9,2.6s1.4,1.8,2.7,1.9c0.4,0,0.9,0,1.3,0c5,0,10,0,15,0c0.7,0,1.4-0.2,2.1-0.4
		v-54c-0.5-0.1-0.9-0.4-1.3-0.4c-5.5,0-11.1-0.1-16.6,0c-1.3,0-2.7,0.3-3.1,1.8c-0.3,1.5,0.8,2.1,2,2.5c1.5,0.5,1.8,1.7,1.8,3.1
		c0,13.1,0,26.3,0,39.4C369.2,77.6,369,78.9,367.3,79.4z"/>
	<path class="st1" d="M331,81.9c0.3,2,0.4,3.6-1.8,4.6c-1,0.4-1.6,1.4-1,2.4c0.5,0.7,1.5,1,2.3,1.3c0.5,0.2,1.1,0,1.6-0.1
		c5.8-0.9,11.6-1.8,17.3-2.8c0.6-0.1,1.4-0.1,1.9-0.5c0.6-0.5,1.4-1.2,1.4-1.9c0-0.6-0.8-1.8-1.3-1.8c-2.7-0.4-3-2.3-3.4-4.4
		c-2.2-14.4-4.4-28.7-6.6-43.1c-0.1-0.7-0.4-1.4-0.7-2.3c-5.6,1-11,2-16.5,3.1c0,0.8-0.1,1.5,0,2.1C326.5,52.9,328.8,67.4,331,81.9z
		"/>
	<path class="st1" d="M79.3,221.2c2.2-1.9,3.9-0.8,5.8,0.5c8.8,5.9,17.8,11.7,26.5,17.6c3.4,2.3,6.8,2.5,10.4,0.9
		c5.8-2.4,9.8-6.6,12.7-12.6c-1.5-0.7-2.4-2.5-4.1-1.6c-3.2,1.8-5.8,0.7-8.5-1.1c-3.8-2.6-7.7-5.2-11.6-7.8
		c-5.4-3.6-10.8-7.3-16.2-10.8c-1.8-1.2-3.3-2.3-2.6-4.9c0.2-0.6-0.5-1.8-1.1-2c-0.6-0.3-1.7,0.1-2.3,0.5c-0.6,0.4-1,1.1-1.4,1.8
		c-3.2,5-6.4,10.1-9.6,15.1c-0.4,0.6-0.9,1.4-0.9,2c0,0.8,0.3,1.8,0.8,2.2C77.6,221.5,78.9,221.5,79.3,221.2z"/>
	<path class="st1" d="M446.3,45.9c-0.5,2.4-0.6,4.9-0.9,7.4c-0.3,3.1-1.4,5.7-5.1,6.2c-0.1,1.4-0.2,2.7-0.3,4
		c3.2,1.4,3.7,3.9,3.4,6.8c-0.3,2.7-0.7,5.4-1,8.1c-0.3,4,0.5,7.6,4,10.1c5.1,3.6,13.1,2.6,17.2-2.3c0.5-0.7,1-1.4,1.3-2.2
		c0.4-1.3-0.1-2.4-1.2-3.1c-1-0.7-1.8,0-2.5,0.7c-0.3,0.3-0.8,0.5-1.8,1c0.3-2.9,0.6-5.2,0.9-7.6c0.7-6-1.1-9.2-6.6-11.7
		c-0.8-0.4-1.7-0.8-2.9-1.4c1.6-0.5,2.7-0.8,3.8-1.1c10.2-2.9,10.8-17.2,5.2-22.2c-4.7-4.2-10.1-5.4-16.2-5.6
		c-0.2,1.5-0.4,2.8-0.7,4.4C446.5,39.4,447,42.3,446.3,45.9z"/>
	<path class="st1" d="M285,58.8c0.6,2.5,1.4,5,2.2,7.5c1,3,1.1,5.8-2.3,7.6c0.3,1.2,0.6,2.2,1.1,3.6c3.8-0.1,5.1,2.3,6.1,5.3
		c1,3.2,2,6.4,3.2,9.5c1.5,3.8,5,5.9,9,5.6c2.7-0.2,5.4-1,7.6-2.6c2.8-2.1,4.3-5.1,4.8-8.5c0.2-1.2-0.3-2.1-1.5-2.5
		c-1.1-0.3-1.8,0.1-2.4,1.1c-0.3,0.6-0.9,1-1.5,1.7c-0.4-1-0.7-1.5-0.9-2.1c-0.6-1.9-1-3.8-1.6-5.6c-1.2-4-3.8-6.5-8.1-6.9
		c-1.9-0.2-3.9,0-6.1,0c0.8-0.7,1.5-1.2,2.1-1.8c3-2.9,5.8-5.9,5.8-10.5c-0.1-8.4-6.3-14.6-14.5-14.1c-3.6,0.2-6.8,1.8-10.5,2.8
		c0.5,1.5,0.8,2.7,1.2,3.9C282.8,52.9,284.2,55.5,285,58.8z"/>
	<path class="st1" d="M227.1,80.3c3.9,7.5,8,14.9,12,22.4c1.8,3.4,3.7,6.9,5.5,10.3c0.9,1.6,1.5,3.3,0.5,4.9
		c-1.4,2.2-0.2,3.5,1.2,5.1c5.9-4,9.2-9.4,9.9-16.3c0.9-8.4-1.7-15.8-6.3-22.7c-2.7-4-5.9-7.5-10.2-9.8c-6.5-3.5-13.2-3.7-20.2-0.5
		c0.6,1.2,1.1,2.2,1.7,3.4C223.8,77,225.8,77.9,227.1,80.3z"/>
	<path class="st1" d="M213.3,115.4c3.3,4.8,7.5,8.4,13,10.4c5.7,2,11.2,1.6,17.2-1.2c-1.1-1.3-1.9-3-2.9-3.1
		c-3.3-0.2-4.6-2.4-5.9-4.8c-5.3-10-10.6-19.9-16-29.8c-1.5-2.8-2.4-5.4-0.1-8.1c-0.7-1.2-1.3-2.1-1.9-3.3c-0.6,0.3-1,0.5-1.3,0.7
		c-6.8,5.4-9.8,12.6-9,21.2C206.9,104,209.6,109.9,213.3,115.4z"/>
	<path class="st1" d="M180.4,113.3c2.4,3.1,4.7,6.3,7.1,9.3c2.1,2.7,3.4,5.4,0.9,8.6c0.8,1.1,1.6,2,2.4,3c3.6-2.4,6.5-5.2,8.6-8.9
		c4.9-8.7-0.5-21.4-10.2-23.9c-7.6-2-13,2.1-18.4,6.7c0.9,1.1,1.7,2,2.5,3C176.4,109.6,178.6,111,180.4,113.3z"/>
	<path class="st1" d="M137.3,151.5c2.8,2.6,5.5,5.2,8.3,7.8c2.7,2.6,4.9,5.3,2.9,9.3c1,0.9,1.9,1.7,2.8,2.5c3.8-3.9,7-7.7,8-13
		c1.8-9.8-7.2-19.9-17.1-19c-6.2,0.5-10.3,4.5-14.4,8.7c1.1,1.1,1.9,2.1,3,3.2C133.2,148.5,135.3,149.7,137.3,151.5z"/>
	<path class="st1" d="M97.7,192.2c2.3-1.4,4.6-0.9,6.9,0c0.9,0.4,1.8,0.9,2.6,1.4c6.5,4.3,13,8.6,19.5,13c1.5,1,2.8,2.3,4.1,3.7
		c2.1,2.1,3.1,4.7,2.9,7.7c-0.1,1.6-0.3,3.2-0.4,4.9c1,0.6,2,1.2,3.6,2.2c0.5-2.2,1.1-3.9,1.2-5.5c0.4-6.8-2.7-11.9-8.1-15.7
		c-6.6-4.6-13.3-8.9-20-13.4c-3.4-2.3-6.2-4.8-5.7-9.4c0.1-0.6-0.5-1.7-1-1.8c-0.7-0.2-1.6,0.2-2.3,0.5c-0.3,0.1-0.5,0.4-0.6,0.7
		c-1.8,2.9-3.7,5.8-5.4,8.9c-0.4,0.7-0.4,2,0,2.7C95.5,193.2,96.7,192.8,97.7,192.2z"/>
	<path class="st1" d="M470.9,93.9c0.8-0.3,1.5-0.9,2.4-1.4c3.3,1.5,5.6,4.9,9.7,5.3c0.3-1.2,0.7-2.4,0.9-3c-2.2-3.2-4.4-5.5-5.4-8.2
		c-1.1-2.8-1.2-6.1-1.6-9.2c-0.2-2.3-0.6-3.2-2.1-3.6c-1.5-0.3-2.4,0.4-3.1,2.6c-0.1,0.2-0.1,0.4-0.2,0.6c-1.1,4.1-2.2,8.2-3.2,12.3
		c-0.2,0.9-0.3,1.9-0.2,2.9C468.3,93.9,469.4,94.5,470.9,93.9z"/>
	<path class="st1" d="M103.6,283.2c1.8-1.4,3.3-3.1,4.1-5.5c-1-0.7-2-1.4-2.9-1.9c-1.9,1.4-3.4,2.7-5.1,3.6
		c-3.5,1.7-7.3,1.8-11.2,1.2c-1-0.2-2-0.5-2.9-0.3c-0.8,0.2-1.8,1-2.1,1.7c-0.2,0.5,0.3,1.6,0.8,2.2c0.4,0.6,1.2,0.8,1.9,1.2
		c2.3,1.2,4.6,2.4,6.9,3.6c1.9,0.9,3.7,1.9,5.7,2.5c2.1,0.7,3.3-0.5,2.6-2.6C100.7,286.1,101.7,284.6,103.6,283.2z"/>
	<path class="st1" d="M404.7,66.7c-1.4-0.3-2.2,0.5-2.8,1.7c-0.2,0.5-0.3,1-0.5,1.5c-1.7,4.3-4.6,7.3-8.9,8.8
		c-0.8,0.3-1.6,0.6-2.4,0.9v4.2h16.2c0-5,0-9.8,0-14.6C406.3,68,406,67,404.7,66.7z"/>
	<path class="st1" d="M73.8,245.1c1.9-0.1,3.9,0.3,5.8,0.5c1.4,0.1,2.7,0.2,3.2-1.4c0.5-1.3-0.1-2.6-1.7-3.4
		c-3.9-1.9-7.8-3.8-11.8-5.5c-0.8-0.3-2-0.2-2.7,0.2c-1,0.6-0.7,1.7-0.1,2.6c0.8,1.2,0.5,2.2-0.5,3.1c-1.1,1-2.1,2.2-3,3.4
		c-0.9,1.1-1.7,2.4-2.8,3.8c1.4,0.7,2.4,1.2,3.7,1.8C66.7,247.1,70,245.4,73.8,245.1z"/>
	<path class="st1" d="M579.1,139.5c-0.5-0.2-1.8,0.3-2.2,0.8c-0.4,0.6-0.3,1.7-0.1,2.4c0.3,0.7,1.1,1.3,1.7,1.9
		c2.5,2.3,4.9,4.6,7.4,6.8c2.2,1.9,4.4,3.9,6.7,5.7c1,0.8,2.1,1.2,3.3,0.2c1-0.9,0.9-2,0.3-2.9c-0.9-1.4-0.6-2.6,0.4-3.8
		c0.5-0.6,0.9-1.3,1.3-1.8c8.9-10.4,17.7-20.8,26.6-31.2c0.7-0.8,1.3-1.7,2-2.7c-4.8-4.4-9.5-8.6-14.2-12.7c-1-0.9-2.4-1.2-3.2-0.2
		c-0.6,0.6-0.8,2.2-0.4,2.9c1.1,2.1,0.3,3.4-1,4.9c-3,3.4-5.9,7-8.8,10.4c-5,5.9-10.1,11.7-14.9,17.6
		C582.5,139.4,581.4,140.6,579.1,139.5z"/>
	<path class="st1" d="M624.6,128.8c-1.6,1.9-3.3,3.8-4.9,5.7c-2.1,2.5-4.3,4.4-7.8,2.2c-0.9,1.2-1.6,2.3-2.3,3.2
		c1.3,3.9,1.2,4.8-1.3,7.9c-1.6,1.9-3.1,3.9-4.7,5.8c-1.6,2-2.7,4.1-3,6.7c-0.8,6.7,7.7,15.2,17.2,11.6c0.3-0.1,0.7-0.2,0.8-0.4
		c0.4-0.8,1-1.7,1.1-2.5c0-1.1-0.9-1.6-2-1.7c-0.7,0-1.3-0.2-2.4-0.3c1.9-2.4,3.4-4.4,5.1-6.4c3.4-4,3-8.1,0.6-12.4
		c-0.5-1-1.1-1.9-2-3.3c1.6,0.5,2.6,0.9,3.6,1.2c9.5,2.7,18.3-5.5,16.5-15.2c-1.2-6.3-5.6-10-10.3-13.8c-1,1.1-1.9,2.1-3,3.3
		C628.1,123.7,626.6,126.3,624.6,128.8z"/>
	<path class="st1" d="M669.2,164c0.4,2.5-0.8,4.1-2.5,5.6c-6.1,5.4-12.1,10.9-18.1,16.4c-2.8,2.5-5.7,5-8.6,7.5
		c-1.3,1.1-2.6,1.9-4.4,1.6c-3.1-0.5-3.1-0.5-4.8,2.9c7,6.5,15.1,8.1,24.1,4.9c7.3-2.6,12.5-7.6,17-13.6c2.7-3.5,4.2-7.6,4.8-12
		c0.9-6.3-0.8-12-4.6-17.2C670.6,161.1,668.8,161.9,669.2,164z"/>
	<path class="st1" d="M628.6,165.7c-2.9,4-4.6,8.4-5,13.2c-0.5,5.7,1,10.9,4.9,16.1c1-1.7,3.2-1.9,2.7-4.1c-0.5-2.3,0.6-3.9,2.3-5.4
		c1.3-1.1,2.5-2.4,3.8-3.6c7.7-7,15.5-13.9,23.2-20.9c1.3-1.1,2.6-1.9,4.4-1.5c2.8,0.6,2.9,0.4,4.8-2.5c-6-5.8-13.2-7.7-21.3-5.8
		C640,153.4,633.6,158.7,628.6,165.7z"/>
	<path class="st1" d="M620.9,127.6L620.9,127.6L620.9,127.6c0.1-0.1,0.1-0.2,0.2-0.4C621,127.3,620.9,127.4,620.9,127.6L620.9,127.6
		l-0.3,0.3C620.7,127.8,620.8,127.7,620.9,127.6z"/>
	<path class="st1" d="M619.1,130.1l1.5-2.2c-0.6,0.6-1.3,1.2-1.9,1.8C618.8,129.8,618.9,130,619.1,130.1z"/>
	<path class="st1" d="M621.9,125.5c-0.3,0.6-0.5,1.2-0.8,1.7c0.4-0.5,0.8-1,1.3-1.4C622.2,125.7,622,125.6,621.9,125.5z"/>
	<path class="st1" d="M549.7,128.4c0.5-2,1.5-3.7,1.1-5c-0.7-2.3-0.4-4.3,0.7-6.2c5.5-10.3,11.1-20.7,16.6-31
		c1.3-2.4,3.2-4.1,6.1-4.1c0.6-1.4,1.2-2.6,1.9-3.9c-2.5-1.3-4.9-2.1-7.4-2.2c-6.7-0.3-12.5,1.9-17.5,6.5
		c-8.4,7.7-12.5,17.1-11.8,28.4C539.8,118.1,542.9,123.9,549.7,128.4z"/>
	<path class="st1" d="M560,121.5c-1.3,2.6-2.9,4.6-6.2,4.3c-0.6,1.3-1.1,2.5-1.8,4c6.1,3.1,12.1,3.6,18.4,2.5c0.9-0.2,1.8-1.1,2.3-2
		c1.8-3.2,3.5-6.5,5.3-9.7c0.6-1,1.1-2.1,2.5-2.3c1.4-0.1,2.5-0.8,2.7-2.4s-0.9-2.3-2.1-2.9c-4.5-2.5-8.9-5-13.4-7.4
		c-0.7-0.4-1.4-0.8-2.1-0.8c-0.8,0-1.8,0.3-2.2,0.9c-0.4,0.5-0.1,1.6,0.1,2.3c0.1,0.4,0.5,0.7,0.9,0.9c1.5,1.1,1.2,2.3,0.4,3.7
		C563.1,115.5,561.5,118.5,560,121.5z"/>
	<path class="st1" d="M582.6,95.4c0,1.9-0.4,3.9-0.6,5.8c-0.1,1-0.4,1.9-0.4,2.9c-0.1,1.3,0.4,2.4,1.7,2.8c1.4,0.4,2.3-0.4,2.9-1.5
		c2.5-4.6,4.9-9.2,7.3-13.8c0.4-0.9,0.6-2.2,0.3-3c-0.6-1.3-2.1-1.1-3.2-0.6c-1.5,0.7-2.4,0.1-3.4-0.9c-2.1-2.1-4.2-4-6.4-6
		c-0.5-0.5-1.2-0.8-2-1.2c-0.7,1.3-1.3,2.5-2,4C580.9,86.6,582.5,90.7,582.6,95.4z"/>
	<path class="st1" d="M655.5,223.1c-0.4,6.8,1.8,12.8,6.3,18.2c1.1-0.7,2.2-1.4,3.4-2.2c-0.4-2.6-0.1-5,2-6.8c1.2-1,2.3-2,3.6-2.9
		c8.6-5.9,17.2-11.8,25.8-17.7c1.9-1.3,3.5-2.3,5.8-0.6c1.5,1.1,3.3-0.4,2.9-2.3c-0.3-1.1-0.9-2.2-1.5-3.2
		c-2.4-3.8-4.8-7.5-7.3-11.2c-1-1.5-2-3.1-3.2-4.5c-0.5-0.6-1.7-0.9-2.6-0.8c-1.1,0.2-1.6,1.3-1.3,2.3c0.8,2.4-0.6,3.6-2.2,4.9
		c-0.7,0.5-1.4,1-2.1,1.5c-8.3,5.7-16.6,11.5-25,17.1C657.1,216.9,655.7,219.6,655.5,223.1z"/>
	<path class="st1" d="M703.8,227.6c-3.2,2.4-6.5,4.7-9.8,7c-3.8,2.7-7.7,5.3-11.4,8c-4.3,3.1-9.6,3.2-14,0.1c-0.5-0.4-1-0.8-1.5-1.2
		c-1.1,0.9-2.2,1.6-3.5,2.7c2.5,3.3,5.6,4.8,9.3,5.2c4.8,0.6,9-0.8,12.9-3.5c7.1-4.9,14.1-9.7,21.2-14.6c2.7-1.8,5.4-2.6,8.4-0.6
		c1.4,1,2.8,0.1,2.9-1.6c0-0.6-0.1-1.4-0.4-1.9c-2-3.1-3.9-6.2-6.1-9.2c-0.4-0.6-1.8-1.1-2.5-0.9c-0.6,0.2-1.4,1.5-1.3,2.2
		C708.5,223.2,706.5,225.6,703.8,227.6z"/>
	<path class="st1" d="M684.4,265.9c-1.8,0.8-3.2,1-4.5-0.9c-0.4-0.5-1.8-0.7-2.5-0.5c-0.5,0.2-0.9,1.3-1.1,2.1
		c-0.1,0.5,0.1,1.1,0.3,1.6c2.6,6.2,5.2,12.4,7.8,18.6c0.5,1.1,1.2,2.2,2.7,1.9s1.8-1.5,1.7-2.8c-0.2-1.9,0.8-2.7,2.3-3.4
		c5.9-2.6,11.7-5.2,17.6-7.8c6.6-2.8,13.2-5.6,19.8-8.4c1.5-0.6,2.9-1.5,4.4-2.3c-0.9-2.2-1.7-4.2-2.6-6.2c-1.5-3.7-3-7.4-4.6-11.1
		c-0.5-1.3-1.4-2.2-3-1.9c-1.4,0.3-1.6,1.4-1.5,2.5c0.2,1.7-0.7,2.6-2.2,3.2c-3.2,1.4-6.3,2.9-9.5,4.3
		C701.1,258.6,692.8,262.2,684.4,265.9z"/>
	<path class="st1" d="M733.5,267.5c-1,0.4-2.1,0.9-3.3,1.4c0.5,3.7-1.7,5.4-4.6,6.7c-3.4,1.5-6.7,3-10.1,4.6
		c-3.1,1.5-5.8,1.6-8.1-1.3c-1.3,0.6-2.5,1.1-3.9,1.8c1.3,2.5,2.4,4.9,3.7,7.1c5.7,10.2,20.9,10.8,27.3,1.1
		C738.3,283,737.9,273.3,733.5,267.5z"/>
	<path class="st1" d="M725.6,271.9c-0.1-0.2-0.2-0.4-0.3-0.6c-0.9,0.5-1.7,1-2.5,1.4C723.8,272.4,724.7,272.2,725.6,271.9z"/>
	<path class="st1" d="M722.5,272.9c0.1-0.1,0.2-0.1,0.3-0.2C722.7,272.8,722.6,272.8,722.5,272.9
		C722.5,272.8,722.5,272.9,722.5,272.9z"/>
	<path class="st1" d="M401.3,42.7c0.6,1.9,1.1,3,1.4,3.3c0.3,0.3,0.8,0.5,1.4,0.5c0.9,0,1.5-0.2,1.9-0.5s0.6-0.8,0.6-1.3V29.3h-17.9
		v4.4c3.5,0.6,6.3,1.7,8.4,3.5C399.3,38.9,400.7,40.8,401.3,42.7z"/>
	<path class="st1" d="M392.4,61.2c0.9,1.2,1.6,2.4,2,3.9c0.4,1.4,0.8,2.3,1.2,2.7c0.3,0.5,0.9,0.7,1.7,0.7c0.9,0,1.5-0.3,1.8-0.8
		s0.4-1.4,0.4-2.7V47.9v-0.8c0-0.5-0.1-1-0.3-1.7s-0.8-1-1.8-1c-0.6,0-1.1,0.1-1.5,0.4s-0.8,1.1-1.2,2.6c-0.4,1.4-1.1,2.8-2,4
		c-0.9,1.3-2.2,2.1-3.8,2.5v4.9C390.3,59.3,391.5,60.1,392.4,61.2z"/>
	<path class="st1" d="M506.6,54.7c1.6,2.8,2.3,5.1,2.1,6.9s-0.1,3,0.2,3.7c0.3,0.6,0.9,1,1.7,1.3c0.8,0.2,1.5,0.1,2.1-0.2
		c0.6-0.4,1-1.2,1.3-2.4l3.2-11.9c0.2-0.8,0.3-1.5,0.2-2.1s-0.6-1.1-1.7-1.4c-0.7-0.2-1.4,0.1-2.3,0.7c-0.8,0.7-1.6,0.9-2.3,0.7
		l-5.1-3.4c-1.8-1.1-3.5-1.8-5.1-2.3l-1.1,4C502.8,49.8,505,51.9,506.6,54.7z"/>
	<path class="st1" d="M456.6,266.2c-1.1,0.1-2.2,0.1-3.3,0.2C454.4,266.4,455.5,266.3,456.6,266.2L456.6,266.2z"/>
	<path class="st1" d="M392.6,270.6c3.8-0.3,7.5-0.6,11.3-0.9c1.2-0.1,2.5-0.2,3.7-0.4c-1.2,0.1-2.5,0.3-3.7,0.4
		C400.1,270,396.3,270.3,392.6,270.6z"/>
	<path class="st1" d="M487.7,267.8c-5.8-0.3-11.6-1-17.4-1.4c-1.7-0.1-3.4-0.2-5.1-0.3c1.7,0.1,3.4,0.1,5.1,0.3
		C476,266.8,481.8,267.5,487.7,267.8z"/>
	<path class="st1" d="M418.1,268.2c1.2-0.1,2.4-0.2,3.5-0.4c0.8-0.1,1.5-0.1,2.3-0.2c-0.8,0.1-1.5,0.1-2.3,0.2
		C420.4,268,419.2,268.1,418.1,268.2z"/>
	<path class="st1" d="M392,270.6L392,270.6c-0.7,3.3-0.6,23.2,0.2,25.5l0,0l0,0C391.3,293.8,391.2,273.9,392,270.6z"/>
	<path class="st1" d="M524.1,275.2c-3.5-0.8-7-1.9-10.4-3.2c-3.3-1.3-6.7-2.2-10.1-3.2c3.4,1,6.8,1.9,10.1,3.2
		C517.1,273.3,520.6,274.3,524.1,275.2z"/>
	<path class="st1" d="M520.6,325.9c-0.4,0.7-0.8,1.5-1.4,2.1C519.7,327.4,520.2,326.6,520.6,325.9z"/>
	<path class="st1" d="M508,342.2c1.1-1.9,2.4-3.8,3.7-5.6C510.4,338.4,509.2,340.3,508,342.2c-2.6,4.5-5.5,8.8-8.1,13.3
		c-1.7,2.9-3.2,5.9-4.8,8.9c1.6-3,3.1-6,4.8-8.9C502.5,351,505.4,346.7,508,342.2z"/>
	<path class="st1" d="M433.5,380.8L433.5,380.8c-0.3,0-0.5,0.3-1,0.5c-0.1,0.5-0.1,1.1-0.2,1.6c0-0.5,0.1-1.1,0.2-1.6
		C433,381.1,433.3,380.8,433.5,380.8z"/>
	<path class="st1" d="M467.3,394.2c-1.2,0.4-2.6,0.5-3.9,0.4c-0.1,0-0.2,0-0.3,0c0.1,0,0.2,0,0.3,0
		C464.7,394.7,466.1,394.6,467.3,394.2z"/>
	<path class="st1" d="M461.6,394.5c-4.1-0.1-8.1,0-12.2,0.6c-0.2,0-0.3,0.1-0.5,0.1c0.2,0,0.3-0.1,0.5-0.1
		C453.5,394.5,457.6,394.4,461.6,394.5z"/>
	<path class="st1" d="M440.1,402.2c-0.2,0.2-0.3,0.4-0.4,0.6C439.8,402.6,439.9,402.4,440.1,402.2c1.9-2.2,3.6-4.5,6.1-5.9
		C443.7,397.7,441.9,400,440.1,402.2z"/>
	<path class="st1" d="M397.6,295.2c2-0.2,4-0.1,6,0.1C401.6,295,399.6,295,397.6,295.2z"/>
	<path class="st1" d="M427.4,307.6c0.1,0.1,0.1,0.2,0.2,0.3c1.1,1.4,2.2,2.8,3.4,4.2c-1.1-1.4-2.2-2.8-3.4-4.2
		C427.6,307.8,427.5,307.7,427.4,307.6z"/>
	<path class="st1" d="M422.7,304c-1.6-1.2-3.1-2.3-4.7-3.4C419.6,301.7,421.1,302.8,422.7,304z"/>
	<path class="st1" d="M432.5,402.5c-1.4-4.1-1.6-8.3-0.9-12.5c0.1-0.5,0.1-1,0.2-1.4c-0.1,0.5-0.1,1-0.2,1.4
		C430.9,394.2,431.1,398.4,432.5,402.5c0.4,1.3,0.7,1.9,1.3,2C433.2,404.4,432.9,403.8,432.5,402.5z"/>
	<path class="st1" d="M435,380.8c3.3-0.2,5.4-2.6,7.4-5c3.9-4.6,5.9-9.8,5.5-15.9c-0.2-2.7-0.9-5.3-3-7c-1.7-1.4-1.7-2.9-1.5-4.6
		c0.9-5.8,0.5-11.4-0.9-16.8c1.4,5.4,1.8,11,0.9,16.8c-0.3,1.8-0.2,3.3,1.5,4.6c2.1,1.7,2.8,4.3,3,7c0.4,6.1-1.7,11.3-5.5,15.9
		C440.4,378.3,438.3,380.6,435,380.8z"/>
</g>
<g>
	<path class="st2" d="M787.6,390.5c-0.7-18.2-2.5-36.4-5.5-54.4c-4.9-29-12.8-57.2-23.6-84.5c-6.2-15.7-13.4-30.9-21.5-45.6
		c-8.9-16.1-18.8-31.5-29.7-46.3c-8.7-11.7-18-22.9-27.8-33.6C668.1,113.7,656,102,643,91.3c-9.7-8-19.8-15.6-30-22.9
		c-12-8.5-24.8-16.1-37.8-23.1c-7.2-3.8-14.4-7.5-21.9-10.8c-9.8-4.3-19.7-8.5-29.9-12c-11.7-4.1-23.5-7.7-35.5-10.9
		c-12.7-3.4-25.6-5.8-38.7-7.4c-9.4-1.2-18.8-2-28.2-3C410.4,0,399.8,0,389.1,0c-11.2,0-22.3,1-33.5,2.2
		c-20.3,2.1-40.5,5.2-60.2,10.8c-12.7,3.6-25.5,7-37.8,12.1c-8.9,3.8-17.9,7.3-26.6,11.3c-8,3.7-15.8,7.8-23.5,12
		c-6.4,3.5-12.6,7.3-18.8,11.1c-11.6,7-22.6,14.9-33.3,23.4c-9.1,7.2-17.9,14.7-26.5,22.7c-11.9,11.1-23.2,22.8-33.5,35.5
		c-5.9,7.2-11.6,14.6-17.2,22.1C67.1,178,57.5,193.7,48.7,210c-7.9,14.6-14.8,29.7-20.8,45.2c-10.2,26.3-17.6,53.3-22.3,81.2
		c-2.9,17.2-4.9,34.4-5.4,51.8c-0.4,13-0.1,26.1,0.3,39.1c0.6,19.4,3.2,38.5,6.8,57.5c4.6,24,11.3,47.5,20.1,70.4
		c7.5,19.5,16.5,38.3,26.8,56.4c9.2,16.1,19.6,31.6,30.9,46.3c9.2,12,19,23.4,29.6,34.2c7.9,8,15.9,15.8,24.3,23.1
		c9.2,7.9,18.8,15.5,28.5,22.7c11.3,8.4,23.3,15.9,35.5,23c7,4,14.1,7.8,21.3,11.2c9.3,4.4,18.7,8.7,28.3,12.5
		c8.5,3.4,17.2,6,25.8,9c11.4,4.1,23.1,6.6,34.9,9.2c0.8,0.2,4.9,1.6,8,2.3c-5.3,3.3-10.6,6.7-15.9,10c-0.4,0.3-0.8,0.7-1.5,1.2
		c1.1,0.9,2,1.6,2.9,2.3c5.8,3.8,11.7,7.5,17.6,11.2c12.1,7.7,24.2,15.4,36.3,23c10.7,6.8,21.5,13.5,32.3,20.3
		c1.6,1,3.2,2.1,4.7,3.2c0.6-0.3,1.1-0.5,1.4-0.7c7-4.5,14-9.1,21-13.6c12.3-7.8,24.5-15.6,36.8-23.4c9.2-5.8,18.4-11.6,27.6-17.3
		c1.7-1,3.3-2.1,5-3.1c0.6-0.4,1.3-0.7,2.2-1.2c-1.3-1-1.9-1.5-2.5-1.9c-5.9-3.8-11.9-7.6-17.8-11.5c3.4-0.2,8.4-2,10.3-2.5
		c10.2-2.6,20.4-5.1,30.4-8.6c9.9-3.5,20-6.5,29.6-11c8.4-3.9,17-7.6,25.4-11.8c7.2-3.6,14.2-7.6,21.2-11.5
		c12.3-6.9,24-14.9,35.3-23.3c9.8-7.2,19.2-15,28.3-23c9.5-8.4,18.5-17.4,27.2-26.7c9.2-9.9,17.9-20.1,25.8-31
		c5.3-7.4,10.6-14.8,15.7-22.4c10.4-15.3,19.2-31.5,27.2-48.2c6.4-13.4,12.1-27.2,17-41.2c11.8-34.1,19.1-69.2,21.8-105.3
		C787.8,421.6,788.2,406.1,787.6,390.5z M168.2,721.9c-5.9-1.8-43.5-35.6-51.6-46.6c1.4-0.9,2.6-1.9,3.9-2.6
		c6.5-3.2,12.8-6.7,19.8-9.1c7.7-2.7,13.4-8.3,18.4-14.5c0.6-0.8,1.2-1.6,1.8-2.3c0.1-0.2,0.3-0.2,0.8-0.5c0.4,1,0.7,2,1,3
		c1.3,4.2,3.1,8.1,5.8,11.5c2.4,3.1,4.8,6.2,7,9.4c0.6,0.9,0.8,2.2,0.9,3.3c0.2,5.4,0.3,10.8,0.4,16.3c0,0.2,0,0.4,0.1,0.6
		c0.9,3.2,0.1,6-1.5,8.9c-3.2,6.3-5.2,13.1-6.2,20.1C168.6,720.2,168.4,721.1,168.2,721.9z M480.7,816.5c-1.3,0.9-2.1,1.5-3,2.1
		c-10.5,6.6-21,13.1-31.5,19.7c-12.3,7.8-24.6,15.6-36.8,23.4c-3.7,2.4-7.4,4.9-11.3,7.4c-9.1-5.8-18-11.4-27.2-17.3
		c1.8-1.3,3.3-2.3,5.2-3.7c-10-4.6-17.3-11.3-20.8-21.8c-3.3,2.1-6.4,3.8-9.2,5.9c-2.2,1.6-3.9,1.5-6.1,0
		c-7.3-4.8-14.8-9.4-22.3-14.2c-0.8-0.5-1.5-1.1-2.5-1.9c1-0.7,1.7-1.3,2.5-1.8c10.1-6.4,20.2-12.7,30.3-19.1
		c12-7.6,24-15.3,35.9-23c4.6-3,9.3-6,14.1-9.1c9.5,6.1,18.9,12.2,28.4,18.2c-0.4,0.7-0.8,1.3-1.3,2.2c2.2,0.1,4.1,0.2,6,0.3
		c0.8,2.6,0.9,20.4,0.1,23.9h-12.4c-0.2-0.4-0.4-0.6-0.4-0.7c0.3-5.5-3.1-8.3-7.6-10.1c-0.9-0.4-1.9-0.6-2.8-0.9
		c-1.8-0.7-3.3-0.4-4.9,0.7c-6.8,4.3-13.6,8.6-20.4,12.8c-1.1,0.7-1.7,1.5-2,2.8c-1,5.7-1,11.2,1.3,16.6c1.7,4.1,4.8,6.9,8.6,9.1
		c1.4,0.8,2.4,0.1,3.6-0.6c9.7-6,19.4-12,29.1-18c6.9-4.3,13.9-8.6,20.8-12.9c3-1.9,6-3.8,9-5.8c1-0.7,1.9-0.9,3-0.2
		C463.9,805.7,472,810.9,480.7,816.5z M772.8,453.5c-2.3,18.8-5.8,37.3-10.6,55.6c-5.1,19.4-11.7,38.2-19.6,56.6
		c-8.7,20.1-19,39.3-30.9,57.7c-7.6,11.8-15.9,23.1-24.7,34c-9.9,12.2-20.5,23.9-31.9,34.8c-8.2,7.8-16.7,15.3-25.4,22.5
		c-10.1,8.4-20.8,16-31.8,23.2c-5.9,3.9-11.9,7.6-18,11.1c-7.5,4.2-15,8.3-22.7,12c-8,3.9-16.1,7.6-24.4,10.8
		c-11,4.2-22.2,8.3-33.5,11.6c-10.9,3.2-22.1,5.4-33.2,8c-0.6,0.2-7,1.5-9.7,2.2c-1.3-0.8-2.6-1.7-3.9-2.5
		c-9.8-6.3-19.6-12.5-29.4-18.8c-0.6-0.4-1.2-0.9-1.9-1.3c-7.6-5-15.3-9.9-23.3-15.1c-2.5,1.7-4.8,3.3-7.1,4.8
		c-5.9,3.8-11.9,7.6-17.8,11.4c-11.9,7.6-23.8,15.2-35.8,22.8c-2.4-0.9-8.5-2.1-8.9-2.2c-16-2.9-31.9-6.3-47.4-11.7
		c-10.1-3.5-20.1-6.8-30-10.9c-12.3-5.2-24.3-10.9-36.1-17.3c-3.4-1.9-6.7-4-10.1-5.9c-10.7-5.9-20.6-13-30.6-19.8
		c-2.3-1.5-2.8-3.1-2.4-5.6c1.4-8.3,3.6-16.3,7.7-23.7c0.6-1.1,1.1-2.5,0.9-3.7c-1.3-7.3-0.9-14.7-0.9-22.1c0-1.5-0.4-2.7-1.4-3.8
		c-2.4-2.9-4.7-6-7-9c-3.5-4.8-6-10.1-6.7-16c-0.3-2.3-0.6-4.5-1.1-7.4c-1.8,2.8-3.1,5-4.5,7.2c-5.7,9.1-13.4,15.8-23.8,19.2
		c-7.5,2.4-14.2,6.4-20.8,10.8c-0.4-0.4-1-0.9-1.5-1.4c-4.7-5.7-9.7-11.1-14.2-17c-7.3-9.6-14.2-19.5-21.4-29.2
		c-1.6-2.1-1.9-4.2-1.1-6.7c1.5-4.7,2.6-9.4,4.1-14.1c4.2-13,8.8-25.9,17.5-37c-0.1-0.3-0.1-0.7-0.3-1.1c-1.8-3.3-1.8-6.3,0.7-9.4
		c1.6-1.9,2-4.3,2-7c0-7,0.9-13.9,4.8-20c2.9-4.5,5.9-8.9,9.2-13c4.2-5.4,9.3-9.9,15.6-12.5c7.1-3,14.7-3.1,22-0.7
		c5.1,1.7,8.7,5.2,11.2,10.2c2,4.2,1.8,8.4,1.7,12.7c0,0.9-0.1,1.9-0.1,2.8c1,0.2,1.8,0.4,2.5,0.6c1.6,0.3,2.6,1.3,2.8,2.8
		c0.3,2.3,0.6,4.5,0.7,6.8c0,3.1-1.3,4.8-4.3,5.7c-1.5,0.4-3.1,0.5-5,0.8c-1.3,5.1-5.8,7.7-9.5,10.9c-1.3,1.1-3.3,1.5-5,2
		c-2.9,0.8-5.8,1.5-8.4,2.2c-1.3,4.3-2.8,6.3-6.3,7.9c-1.7,0.7-2.5,1.8-3.1,3.4c-0.5,1.6-1.3,3.2-3.1,3.9c-0.6,0.2-1,1.3-1.3,2.1
		c-1.8,4.9-2.5,10.1-2.6,15.3c0,0.7,0.2,1.3,0.4,2.4c3.9-4,8.5-6.1,13.3-7.6c2.6-0.8,3.9-2,4.6-4.6c1.8-6.8,5.3-12.6,11-16.9
		c1.3-1,2.6-2,3.8-3.1c3.4-3,7.3-4.5,11.7-5.4c5.7-1.1,11.5-0.8,17.2-0.1c2,0.3,3.1-0.3,4.4-1.7c1.9-2,4-3.9,6.3-5.6
		c1.3-1,3.1-1.3,4.6-1.9c0.1-6.2-0.4-7.2-3.8-10.7c-0.3-0.3-0.6-0.6-0.9-0.9c-2.4-2.1-3.7-4.8-4.1-7.9c-0.1-1.1-0.4-2.1-0.5-3.2
		c-0.3-1.9-1.1-3.4-3-4.3c-2.2-1.1-4.2-2.8-5.3-5.2c-2.8-6.6-5.7-13.1-8.3-19.8c-0.7-1.7-0.7-4-0.2-5.7c0.4-1.4,2.2-2.4,3.6-3.8
		c-2.2-8.1-2.5-16.8-1.8-25.5c0.6-7.4,3.6-14,9.9-18.3c4.3-3,9-5.7,13.9-7.7c8.3-3.4,17.2-3.2,26-2.3c6.4,0.6,11.5,4.4,16.4,8.1
		c2.9,2.1,5.2,4.8,6.4,8.4c1.9,5.6,4.1,11.2,6.2,17c0.4,0,1,0.1,1.6,0.1c4.3,0.2,5.9,1.7,6.3,5.9c0.1,1.1,0.2,2.2,0.1,3.3
		c-0.4,5.4-1,10.8-1.2,16.2c-0.2,3.9-1.5,6.7-4.9,8.9c-1.5,1-2.2,3.4-2.9,5.3c-0.3,0.8,0.5,2,0.7,2.9c0.3,0.9,0.6,1.9,0.8,2.8
		c0.5,3,0.6,6.1,1.4,9c0.6,2.3,1.8,4.4,2.8,6.6c0.4,0,0.7-0.1,1.1-0.1c-0.1-3.1,1.3-6.1-0.1-9.3c-1.5-3.6-1.6-7.2,0.1-10.7
		c2.3-4.8,5.8-8.5,10.7-10.5c3.9-1.6,8-2.9,12.1-3.8c2.5-0.5,5.3-0.6,7.7,0.1c7.1,2.1,13,6,16.7,12.6c1.1,1.9,1.9,3.9,4.6,4.1
		c1,0.1,2.3,1,3,1.9c4.2,5.4,9.4,10.5,7.6,17.8c2.5,3,4.7,5.5,6.9,8.1c0.3-0.1,0.5-0.2,0.8-0.3c-0.2-1.7-0.3-3.3-0.5-5
		c-0.3-1.7-0.7-3.4-1-5.1c-0.7-3.5-1.2-7.1-2.2-10.5c-1.2-4.1-2-8.2-1.7-12.5c0.1-1-0.1-2-0.2-2.9c-0.7-5.6-1.6-11.2-2.2-16.8
		c-0.7-6.3-2.5-12.1-6.8-16.9c-4.1-4.7-7.7-10-14.3-11.8c-3.5-0.9-4.9-3.8-5.2-7.2c-0.3-3.5-0.7-6.9-0.9-10.4c-0.1-2.1-1-3.7-2.6-5
		c-6.5-5.2-11.9-11.4-16.4-18.4c-7.7-11.8-16.7-22.4-26.9-32.1c-1.8-1.7-3.8-3.2-5.4-5.1c-3.1-3.7-5.9-7.8-9.1-11.5
		c-8.8-10.3-16.9-21.2-23.8-32.9c-5.4-9.1-11.4-17.9-17.2-26.8c-1-1.6-2-3.3-4-4.6c-0.2,4.7-0.9,9,0.2,13.3c2.3,8.7,4.8,17.3,7,26.1
		c1.1,4.3,2.4,8.6,1.9,13.1c-0.1,0.6,0,1.3,0.2,1.9c1.5,4.6,3.1,9.2,4,13.9c0.1,0.4,0.2,0.9,0.5,1.2c1.8,1.8,1.5,4.2,1.2,6.2
		c-0.4,2.2-1.2,5-2.8,6.3c-3.5,3-7.1,6.1-11.6,7.5c-1.9,0.6-3.3,1.8-4.1,3.5c-0.8,1.6-2,2.8-3.5,3.7c-1.1,0.7-2,1.7-3.1,2.4
		c-2.3,1.5-4.4,3.4-7.2,4.2c-4.6,1.5-9.5,2.6-13.8,4.7c-3,1.5-6.4,1.1-9.3,2.5c-0.5,0.3-1.7,0-2.1-0.5c-1.8-1.9-3.8-3.8-3.9-6.5
		c-0.1-4.1,0-8.3,0.3-12.4c0.4-5,1.6-9.9,1.5-14.9c-0.1-6.4,0.5-12.8,1.5-19.1c0.6-4.2,1.3-8.4,1.9-12.5c0.3-2.3,0.3-4.6,0.9-6.8
		c1.6-6.3,3.5-12.5,5.1-18.8c0.6-2.3,1-4.6,1.5-6.9c0.8-3.5,1.8-6.9,2.5-10.3c0.7-3.4,1.1-6.9,1.9-10.2c1.2-4.5,2.7-8.9,4.1-13.3
		c0.1-0.5,0.1-1.2-0.1-1.6c-1-1.6-0.6-3-0.1-4.6c0.4-1.4,0.5-3,0.5-4.5c0.1-7.6,0-15.2,0.1-22.8c0-1.2,0.1-2.4,0.4-3.5
		c1.2-5.4,5.1-8.5,10-10.3c4.1-1.5,8.3-2.6,12.4-3.7c5.7-1.6,11.6-2.8,17.3-4.5c3.4-1,7.2-0.5,10.1-3.1c0.3-0.3,1-0.1,1.6-0.1
		c3-0.1,6.1,0.2,9-0.4c4.2-0.9,8.4-0.9,12.6-1.1c4.2-0.3,8.4-0.8,12.4-2.4c1.7-0.7,3.5-1.3,5.3-1.3c4.4,0.1,8.6-0.7,12.9-1.3
		c4.2-0.6,8.4-0.4,12.7-0.5c4-0.1,8.1,0,12-0.4c7.4-0.7,14.8-1.6,22.2-2.5c2.2-0.3,4.5-0.7,6.7-1.2c5.9-1.3,11.5-3.9,17.8-3.4
		c1.5,0.1,3-0.4,4.5-0.5c2.7-0.3,5.4-0.8,8.1-0.7c13,0.3,25.8-0.5,38.7-2.1c9.8-1.2,19.7-2.1,29.5-3.1c1.7-0.2,3.4-0.5,5.1-0.8
		c2.9-0.5,5.7-1.6,8.6-1.5c9.3,0.2,18.4-1.1,27.6-2.1c3.1-0.3,6.3-0.5,9.4-0.9c2.1-0.3,4.2-0.9,6.4-1.1c7.9-0.8,15.8-1.5,23.6-2.2
		c0.8-0.1,1.7-0.4,2.5-0.7c3.6-1.3,7.3-2,11.2-1.9c4.6,0,9.1,0,13.7,0c1.5,0,3-0.3,4.5-0.4c2.1-0.2,4.3-0.8,6.4-0.5
		c4.1,0.5,8,2,12.2,2.3c3.5,0.2,7,1.3,10.4,2.3c2.5,0.7,4.7,2.4,7.2,3c6.2,1.5,11.4,4.7,16.5,8.3c0.6,0.4,1.3,1,1.5,1.7
		c0.8,2.2,1.5,4.5,2.2,6.8c0.4,1.3,0.5,2.9,1.1,4c1.8,3.2,2.5,6.6,3.4,10.1c0.7,3,2,5.9,2.7,9c1.9,8.5,3.7,17,5.5,25.4
		c0.9,4.2,1.9,8.5,2.8,12.7c0.6,2.8,1,5.5,1.7,8.3c1.3,5.4,2.8,10.7,4,16.1c1.2,5.3,2.1,10.6,3,15.9c1.4,8.3,2.7,16.7,4,25
		c0.8,5.3,1.1,10.6-0.8,15.8c-0.3,0.9-0.4,2-0.1,2.9c1.1,2.8,2.4,5.5,3.7,8.2c1.4,2.8,3.2,5.4,4.3,8.3c1.8,4.6,3.2,9.4,4.7,14.2
		c0,0.1-0.2,0.4-0.3,0.6c-0.3,0-0.6,0.1-0.9,0.1c-4.8-1.3-9.6-2.5-14.4-3.9c-1.2-0.3-2.4-1.3-3.6-1.4c-3.9-0.2-7-2.2-10.2-3.9
		c-3.7-2-7.5-3.7-11.7-3.7c-5.8,0-9.6-4-14-6.8c-0.3-0.2-0.5-0.7-0.8-1c-1.2-1.5-2.5-3-3.6-4.5c-0.4-0.5-0.6-1.1-0.6-1
		c0.9-2.8,1.9-5,2.1-7.3c0.3-3.4,1.4-6.3,3.4-9c0.5-0.7,0.8-1.8,0.8-2.7c-0.1-2-0.6-4.1-0.7-6.1c-0.3-3.7-0.8-7.4-0.7-11
		c0.1-7,0.6-14.1,1-21.1c0.1-2.4-0.6-4.6-2.3-6.6c-0.4,0.8-0.8,1.3-1.1,1.9c-3.8,9.9-7.5,19.9-11.4,29.8c-0.8,2.1-1.7,4.3-2.9,6.2
		c-2.9,4.4-6.3,8.6-9.1,13.1c-3.2,5.2-6.2,10.5-8.7,16c-1.9,4.2-3,8.8-4.4,13.3c-1.7,5.5-4,10.8-7.7,15.3c-3.1,3.8-6.2,7.6-9.1,11.4
		c-1.4,1.9-3,3.9-3.7,6c-1.4,4.3-2.8,8.7-3,13.3c-0.2,3.3-2,6-4.4,8.1s-5.1,3.7-7.5,5.7c-1.2,0.9-2.4,1.9-3.2,3.2
		c-3,5.2-5.5,10.5-5.8,16.7c-0.2,4.1-0.9,8.2-1.8,12.2c-0.6,3.1-1,6.2-0.8,9.3c0.3,3.9,0.4,7.8,0.3,11.7c-0.4,9.4-1,18.9-1.5,28.3
		c-0.1,1.5,0,3,0.1,4.5c0.2,2.4,0.3,4.7,0.6,7.1c0.3,3.2,0.7,6.4,1,9.6c3.4-1.1,6.4-2.5,9.4-2.8c3.9-0.4,7-1.8,10.1-4
		c1.3-1,2.1-2.1,2.5-3.6c1-4.3,1.2-8.6,0.5-13c-0.8-5.4-1.8-10.7-2.7-16.1c-1-5.8-1.1-11.7,0.2-17.5c1.9-8.3,6.8-14.7,12.7-20.5
		c4.8-4.7,10.5-7.5,17.1-7.6c4.8-0.1,9.5,0.2,14.3,0.7c2.3,0.2,4.2,0,6.2-1.1c3.3-1.9,6.8-3.5,10.7-3.7c5.1-0.3,8.8,1.9,10.9,6.6
		c3.1,6.8,2.3,13.3-1.2,19.6c-2,3.6-4.7,6.5-8.1,8.8c0.2,1,0.4,1.8,0.6,2.6c2.8,10.3,5,20.8,6.4,31.5c0.6,4.9,2.9,7.4,7.8,8.1
		c2.2,0.3,4.5,0.3,6.8,0.1c3.6-0.2,7.2-0.3,10.6,1c8.7,3.4,17.8,5.7,26.9,7.7c0.6,0.1,1.3,0,2.3,0c-2.4-3.5-4.6-6.6-6.6-9.7
		c-5.1-8.1-10.3-16.1-16.8-23.2c-1.3-1.4-2.6-2.4-4.5-2.9c-6-1.6-11.9-3.7-16.7-7.7c-5.3-4.4-5.9-4.2-2.9-10.9
		c4-9.1,9.3-17.3,19.7-20.3c1.2-0.4,2.4-1,3.5-1.7s2.2-1.5,3-2.5c5.2-6.3,10.4-12.6,15.3-19.1c3.2-4.2,6.3-8.6,8.7-13.3
		c2.2-4.2,3.6-8.8,5.3-13.3c0.6-1.5,0.2-2.8-0.3-4.4c-0.8-2.3-1.5-4.8-1.5-7.3c0-3.9,0.6-7.8,0.8-11.7c0.1-1.3,0.7-1.9,1.9-2.2
		c6.2-1.4,12.4-1.2,18.3,1.1c8.1,3.2,15.2,7.9,20.8,14.7c3.4,4.2,7.1,8.2,10.6,12.4c3.4,4.2,5.3,8.9,5.4,14.4
		c0.1,7,0.5,13.9,0.5,20.9c0,10-0.9,19.9-4.1,29.6c-2.3,7.2-6,13.5-11.8,18.4c-3.9,3.3-7.9,6.5-11.8,9.7c-0.6,0.5-1.1,1-1.7,1.5
		c1.2,1.9,2.5,3.5,3.5,5.3c4.2,7.3,8.3,14.7,12.6,22.1c2,3.5,3.6,7.2,4.7,11.1c1.7,6,3.5,11.9,4.7,17.9c1.4,7,2.2,14.2,3.2,21.3
		c0.4,2.8-0.7,5-2.6,7c-2.4,2.4-5.3,3.8-8.7,4c-5.7,0.3-11.5,0.7-17.3,0.5c-10.4-0.2-20.8-1.2-31-4c-2.2-0.6-4.5-1-7.2-1.5
		c0.4,1.8,0.6,3.2,1.1,4.5c1.6,4.7,3,9.6,4.9,14.2c4.6,11,9.6,21.9,14.1,32.9c2.9,7,5.3,14.2,7.6,21.5c1.2,3.8,1.7,7.7,2.6,11.9
		c0.6-0.5,1.1-0.8,1.5-1.2c4.5-5,9.2-9.8,13.5-15c6.1-7.2,12.1-14.5,17.9-22c11.6-15,21.7-30.9,30.8-47.6
		c5.9-10.8,11.2-21.8,16.1-33.1c12.8-29.7,21.7-60.4,26.9-92.3c3.1-19.3,5-38.8,5.1-58.4c0-1.2,0-2.3,0-3.9h-3.8h-36.9
		c-13.7,0-27.4,0-41.1,0c-1.9,0-3.4-0.4-4.5-2c-0.5-0.7-1.2-1.3-1.7-2c-4.4-5.7-10-10-16.1-13.5c-6.3-3.7-13.3-5.2-20.6-4.8
		c-3.1,0.2-6.2,0.1-8.8,1.7c-1.7,1-3.2,0.9-5.3,0.6c-0.7-1.9-1.5-3.8-2.1-5.9c-0.9-2.8-1.4-5.7-2.4-8.4c-0.9-2.4-1.9-5-3.4-7
		c-1.5-1.9-2.6-3.9-3.7-6.1c-0.9-1.8-1-3.4-0.4-5.3c0.5-1.5,0.7-3.2,0.8-4.8c0.5-6.9-1-13.6-1.7-20.4c-0.5-4.6-1.4-9.2-2.2-13.7
		c-0.3-1.8-0.9-3.6-1.3-5.3c-0.5-2.2-0.9-4.4-1.2-6.7c-0.2-1.2-0.3-2.4-0.5-3.5c-1.6-8.9-5-17.5-6.1-26.5c-0.3-2.8-1.4-5.4-2-8.2
		c-0.7-3.2-1.1-6.4-1.8-9.6c-1.2-5.6-2.6-11.2-3.8-16.7c-0.4-1.8-0.7-3.6-1.1-5.4c-1-3.7-2-7.3-3.1-10.9c-0.5-1.8-1.1-3.5-1.7-5.3
		c-0.7-1.9-1.6-3.8-2.1-5.7c-1.1-4.6-2-9.2-7-11.4c-0.4-0.2-0.6-0.6-1-0.9c-4.3-2.6-8.5-5.6-13.6-6.8c-1.4-0.3-2.7-0.8-4-1.3
		c-4-1.5-7.9-3.7-12.4-3.4c-0.6,0-1.2-0.4-1.9-0.5c-1.4-0.2-2.8-0.4-4.2-0.7c-1.2-0.2-2.3-0.4-3.4-0.7c-4-1.1-8-1.8-12.2-0.9
		c-2,0.5-4,0.8-6.1,0.9c-3.5,0.2-7,0-10.4,0c-2.4,0-4.8-0.1-7.2,0.2c-4.8,0.5-9.4,2.5-14.3,2.7c-5,0.2-9.9,1-14.8,1.6
		c-2.9,0.3-5.8,0.6-8.7,0.9c-0.9,0.1-1.7,0.3-2.6,0.3c-5.7,0.5-11.5,0.4-17.1,1.5c-5.4,1-10.8,0.9-16.2,1c-1.7,0.1-3.4,0.3-5.1,0.7
		c-3.2,0.6-6.3,1.7-9.5,2.1c-8.3,1-16.5,1.8-24.8,2.6c-1.4,0.1-2.7,0-4.2,0V87.5c1.3-0.1,2.4-0.2,3.4-0.2c3.2,0,6.3,0,9.5,0
		c2.3,0,4.3-0.3,5.2-3.5c1.3,3.3,3.7,4,6.2,4.3c5.7,0.7,11.4,1.4,17.1,2.1c3,0.4,5.8,0.2,7.6-2c2.7,1.7,5,3.6,7.6,4.8
		c2.6,1.2,5.5,1.6,8.3,0.8c2.7-0.8,5.3-2.1,8.1-3.3c-0.2,2.4,0.2,4.6,2.4,6s4.4,0.5,6.6-0.1c3,3.3,7,4.3,11.1,5.3
		c8.9,2.2,17.1,0.9,23.3-6.1c6.1-6.9,7.4-15,3.5-23.7c-0.2-0.5-0.3-1-0.5-1.5c3.6-1.4,4.5-2.4,5.6-5.9c0.6-2.2,1.2-4.4,1.8-6.6
		c0.6-2.3,1.3-4.6,1.6-7c0.6-4.4-2.6-7.2-6.7-6.1c-1.3,0.3-2.3,0.3-3.3-0.5c-4.1-3.2-9-4.3-13.9-4.8c-6.4-0.7-12.6,0.9-16.9,5.9
		c-5.6,6.4-7.7,14-5,22.5c0.2,0.7,0.4,1.4,0.7,2.4c-5.8,0.1-6,4.9-7.4,8.8c-1.5-0.8-2.7-1.5-4.2-2.3c1-5.4,0.3-10.4-4.1-14.3
		c2.6-1.9,4.6-3.9,5.7-6.5c4.4-10.4,0.1-21.7-11.1-24.6c-2-0.5-4-1-6.1-1.3c-4.7-0.7-9.5-1.2-14.2-1.8c-3.8-0.5-7.5-1-11.3-1.3
		c-2.5-0.2-4.8,0.5-6,3c-1.1,2.1-0.5,5.1,1.4,6.9c1,1,1.2,1.9,1.1,3.1c-0.5,4-0.9,8-1.4,12c-0.9,7.5-1.8,15.1-2.7,22.6
		c-0.1,0.8-0.4,1.8-1,2.3c-1.2,1.1-2.6,1.9-3.9,2.8c0-0.1-0.1-0.2-0.1-0.3c0-3,0-6.1,0-9.1c0-5.1-1.4-6.5-6.5-6.9
		c-0.2,0-0.3-0.2-0.5-0.3V49.6c5.3-0.7,6.4-1.9,6.4-6.9c0-3.4,0-6.7,0-10.1c0-6.1-0.6-6.7-6.7-6.7c-3.5,0-6.9,0-10.6,0
		c-0.1-3-0.3-5.6-0.4-8.2c-3.7,0-7.1-0.1-10.4,0c-19.3,0.7-38.5,2.5-57.5,6.6c-15.4,3.3-30.8,6.6-45.6,11.9
		c-10.2,3.7-20.6,6.9-30.4,11.7c-8,3.9-16.1,7.5-24,11.6C217.5,63.1,210.7,67,204,71c-6.2,3.7-12.3,7.8-18.3,11.8
		c-10.5,7-20.4,14.7-30,22.9c-8.8,7.5-17.4,15.1-25.3,23.5c-7,7.4-13.9,15-20.6,22.6c-9.7,11-18.3,22.9-26.4,35.1
		c-7.3,11-14.1,22.4-20.3,34.2c-11.7,22.2-21.1,45.2-28.4,69.2c-5.4,17.8-9.6,35.9-12.3,54.3c-1.5,10.3-2.7,20.7-3.6,31.1
		c-0.7,8.2-0.7,16.5-1,24.7c0,0.9,0.2,1.9,0.3,3.1h15.2h15.3h15h15h15.3h15c5.1,0,10.2,0,15.3,0c5,0,9.9-0.1,14.9,0.1
		c0.1,1.1,0.2,1.8,0.2,2.4c-0.3,2.8,0.6,5.1,2.4,7.2c0.4,0.4,0.7,0.9,0.9,1.3c2.1,3.3,5.2,4.4,8.9,3c0.9-0.3,1.8-0.5,2.8-0.8
		c1.8-0.5,3.7-0.7,5.2-1.5c4-2.3,8.4-3.3,12.8-4.5c3.4-0.9,7-1.3,9.4-4.5c1.7-2.3,4.1-2.7,6.9-2.7c22.4,0.1,44.8,0.1,67.2,0.1
		c6.2,0,6.2,0,9.9,5c0.2,0.3,0.4,0.5,0.6,0.8c2.8,4.1,5.7,8.2,8.5,12.3c2.9,4.1,5.8,8.1,9.6,11.4c2,1.7,3.8,3.6,5.6,5.5
		c0.5,0.6,1,1.4,1.1,2.2c0.3,2.6,0.3,5.2,0.7,7.7c0.4,2.6,0.8,5.4,1.8,7.8c1.3,2.9,4.2,4.3,7,5.5c3.5,1.4,6.5,3.4,8.7,6.6
		c0.4,0.6,1,1.1,1.5,1.7c2.8,3.5,5.6,6.9,6.4,11.5c0.4,2.3,1,4.7,1.3,7c0.4,2.7,0.4,5.4,0.8,8.1c0.9,5.2,1.9,10.4,1.6,15.8
		c-0.1,1.2,0.1,2.5,0.2,3.7c-0.2-0.1-0.4-0.2-0.5-0.4c-2.4-3.3-4.8-6.5-9-7.7c-0.4-0.1-0.9-0.7-1.1-1.1c-2.5-4.6-6.2-8-10.3-11.1
		c-4.4-3.3-9.3-5.1-14.5-4.7c-6.2,0.4-12.3,1.6-17.7,5c-1.3,0.8-2.7,1.6-4.2,2.4c0-0.6,0-0.9,0-1.2c0.5-6.8,1-13.6,1.5-20.4
		c0.1-1.7-0.1-3.5-0.4-5.2c-0.4-2.6-1.9-4.6-4.5-5.6c-1.4-0.5-2.8-1-4-1.4c-2.1-5.5-4-10.8-6.1-16c-0.6-1.5-1.3-3.1-2.4-4.2
		c-3.2-2.9-6.4-5.8-10-8.3c-8.5-5.9-18.3-5.6-28-5c-9.8,0.7-18.4,4.6-26.3,10.3c-7.3,5.3-11,12.5-11.7,21.2
		c-0.6,7.5-0.7,15,1.1,22.4c0.3,1.3,0.1,2.3-1,3.2c-2,1.7-2.5,4-2.3,6.5c0.2,1.7,0.4,3.5,1,5.1c2.3,5.9,4.8,11.6,7.2,17.5
		c1.3,3.2,3.3,5.7,6.1,7.4c2.3,1.4,3,3.2,3.3,5.5c0.4,4,2,7.5,5,10.3c0.7,0.7,1.3,1.5,2,2.1c1.4,1.4,2,3,1.5,5.2
		c-3.8,1.2-7,3.5-9.5,6.9c-0.5,0.6-1.6,1-2.5,1c-2.6,0-5.2-0.3-7.8-0.5c-5-0.2-10,0.4-14.7,2.1c-5.2,1.9-9.3,5.4-13.4,9
		c-4.8,4.3-8.1,9.3-10,15.3c-0.7,2.3-1.6,3.9-4.1,4.4c-0.9,0.2-1.8,0.8-2.6,1.2c-1.6,0.8-3.3,1.6-5.4,2.6c0.5-2.6,0.8-4.6,1.2-6.6
		c0.3-2,1.1-3.6,2.9-4.8c1-0.7,1.8-1.9,2.2-3.1c0.5-1.6,1.5-2.4,2.8-3.3c2-1.5,4.2-3,5.4-5.1c1.6-2.7,3.9-3.6,6.6-4.1
		c1.4-0.3,2.9-0.3,4.1-0.9c4.6-2.1,8.4-5.3,11.4-9.4c1.4-1.8,2.6-3.1,5-3.6c4.7-1,7.2-4.3,7.2-9.1c0-1.7-0.3-3.5-0.4-5.2
		c-0.3-3.6-1.4-6.6-5-7.8c-0.1-0.3-0.2-0.4-0.2-0.5c0-1.6,0-3.3-0.1-4.9c-0.1-1.4-0.1-2.8-0.5-4.2c-2.8-9.8-9.1-15.8-19.3-17.4
		c-4.8-0.8-9.6-0.5-14.3,0.2c-4.9,0.8-9.3,3-13.2,6.1c-6.1,4.8-10.7,11-15.4,17.2c-5.8,7.7-8.2,16.4-8.5,25.8
		c-0.1,3.1-0.7,5.7-2.5,8.2c-1.5,2-1.8,4.4-1.2,6.8c0.3,1,0.6,2.1,0.8,2.9c-10.6,15.5-15.9,32.9-21,51c-1-1.5-1.7-2.5-2.3-3.5
		c-5.4-9.7-10.9-19.3-16-29.1c-9.6-18.7-17.3-38.1-23.7-58.2c-7.9-24.8-13.2-50.2-16.1-76c-2-17.7-2.8-35.5-2.4-53.4
		c0.4-15.2,1.4-30.4,3.4-45.5c2.9-22.6,7.8-44.7,14.5-66.4c7.3-23.6,16.8-46.3,28.3-68.2c8.5-16.1,18.1-31.4,28.7-46.2
		c8.6-12,17.9-23.5,27.9-34.4c7.3-7.9,14.8-15.6,22.7-22.9c8.6-7.9,17.6-15.5,26.8-22.8c10.5-8.4,21.7-15.9,33.1-23
		c6.4-4,12.9-7.7,19.5-11.2c7.6-4,15.2-7.9,23.1-11.4c9-4,18.1-8,27.5-11.1c12.9-4.4,26-8.4,39.3-11.8c20.4-5.1,41.2-7.9,62.1-9.3
		c20.6-1.3,41.3-1.1,61.9,1c18.8,1.9,37.5,4.7,55.7,9.8c13.1,3.6,26.2,7,38.8,12.3c8.9,3.8,17.9,7.3,26.6,11.3
		c7.7,3.5,15.1,7.5,22.6,11.5c12.9,6.8,25.1,14.7,36.9,23.2c10.1,7.2,19.8,14.9,29.1,23c8.4,7.4,16.7,14.9,24.3,23.2
		c6.9,7.5,13.7,15.1,20.4,22.9c9.4,11,17.8,22.8,25.7,34.9c7.3,11.1,13.9,22.6,20,34.3c10.6,20.3,19.2,41.3,26.1,63.1
		c7.6,24.1,12.8,48.7,15.8,73.8c1.9,16,2.9,32,2.8,48.1C775.6,421.9,774.7,437.7,772.8,453.5z M101.6,288.7c0.7,2.1-0.5,3.2-2.6,2.6
		c-2-0.6-3.8-1.6-5.7-2.5c-2.3-1.1-4.6-2.4-6.9-3.6c-0.7-0.3-1.5-0.6-1.9-1.2c-0.5-0.6-1.1-1.7-0.8-2.2c0.3-0.8,1.3-1.5,2.1-1.7
		c0.9-0.2,1.9,0.1,2.9,0.3c3.8,0.7,7.6,0.5,11.2-1.2c1.7-0.8,3.2-2.2,5.1-3.6c0.9,0.6,1.8,1.2,2.9,1.9c-0.8,2.4-2.4,4.1-4.1,5.5
		C101.7,284.6,100.7,286.1,101.6,288.7z M105.6,272.6c0-1.2,0.1-2.3,0-3.5c-0.2-2.4-1.2-4.4-3.5-5.5c-2.4-1.1-4.5-0.2-6.4,1.2
		c-1.6,1.2-3.1,2.7-4.6,4.1c-3.2,2.9-6.6,5.6-10.5,7.6c-4.2,2.1-8.3,2.1-12.4,0c-0.4-0.2-0.8-0.4-1.2-0.6
		c-9.1-4.8-12.4-14.2-8.4-23.8c0.1-0.2,0.3-0.3,0.5-0.6c1,0.5,2.1,0.9,3.2,1.4c0.1,1,0.1,2,0.3,3c0.9,4.4,4.8,6.5,8.5,4.2
		c3-1.8,5.6-4.4,8.2-6.8c3.2-3,6.8-5.5,11.1-6.5c8.9-2,17.9,4,20.1,13.3c1.2,5,0.7,9.9-1.7,14C108,273.7,106.9,273.2,105.6,272.6z
		 M66.6,238.1c-0.6-0.9-0.9-2,0.1-2.6c0.7-0.4,1.9-0.5,2.7-0.2c4,1.7,7.9,3.6,11.8,5.5c1.6,0.8,2.1,2.1,1.7,3.4
		c-0.6,1.6-1.9,1.5-3.2,1.4c-1.9-0.2-3.9-0.6-5.8-0.5c-3.8,0.3-7,2-9.9,5.1c-1.3-0.6-2.3-1.1-3.7-1.8c1-1.4,1.8-2.6,2.8-3.8
		s2-2.3,3-3.4C67,240.2,67.3,239.3,66.6,238.1z M85.1,221.7c-1.9-1.3-3.6-2.4-5.8-0.5c-0.4,0.3-1.7,0.3-2.1-0.1
		c-0.5-0.5-0.8-1.5-0.8-2.2s0.5-1.4,0.9-2c3.2-5,6.4-10.1,9.6-15.1c0.4-0.6,0.8-1.4,1.4-1.8c0.7-0.4,1.7-0.8,2.3-0.5
		c0.6,0.2,1.3,1.5,1.1,2c-0.7,2.6,0.8,3.7,2.6,4.9c5.4,3.5,10.8,7.2,16.2,10.8c3.9,2.6,7.7,5.2,11.6,7.8c2.6,1.8,5.3,2.9,8.5,1.1
		c1.7-1,2.7,0.9,4.1,1.6c-2.9,5.9-6.9,10.1-12.7,12.6c-3.7,1.6-7,1.4-10.4-0.9C102.9,233.3,93.9,227.6,85.1,221.7z M133.3,222.9
		c0.2-1.7,0.3-3.3,0.4-4.9c0.2-3-0.9-5.6-2.9-7.7c-1.3-1.3-2.6-2.6-4.1-3.7c-6.4-4.4-13-8.7-19.5-13c-0.8-0.5-1.7-1-2.6-1.4
		c-2.3-1-4.6-1.4-6.9,0c-1,0.6-2.2,1-2.9-0.1c-0.4-0.7-0.4-2,0-2.7c1.7-3,3.6-5.9,5.4-8.9c0.2-0.3,0.4-0.6,0.6-0.7
		c0.8-0.3,1.6-0.7,2.3-0.5c0.5,0.1,1,1.2,1,1.8c-0.5,4.6,2.3,7.2,5.7,9.4c6.7,4.4,13.4,8.8,20,13.4c5.4,3.7,8.6,8.9,8.1,15.7
		c-0.1,1.7-0.7,3.3-1.2,5.5C135.3,224.1,134.3,223.5,133.3,222.9z M126.1,175.9c-2.3-2.3-4.6-4.6-6.8-7c-1.3-1.4-2.6-2.2-4.6-1.1
		c-0.6,0.3-1.9,0-2.6-0.5c-1.1-0.9-0.5-2.1,0.3-2.9c4.2-4.6,8.5-9.2,13-14c1.1,1,2,1.8,2.8,2.6c9.7,9.6,19.4,19.2,29.1,28.8
		c1.5,1.5,2.9,3,5.3,1.5c0.4-0.3,1.6-0.1,2,0.3c0.5,0.6,0.7,1.6,0.6,2.3c-0.2,0.8-0.8,1.5-1.4,2.1c-3.8,4.1-7.7,8.2-11.6,12.3
		c-0.4,0.5-0.9,0.9-1.4,1.4c-0.9,0.8-1.8,1.7-3.1,0.9c-1.3-0.8-1.2-2-0.6-3.1c0.7-1.4,0.2-2.5-0.7-3.6c-0.4-0.5-0.9-1-1.3-1.4
		C138.7,188.4,132.4,182.1,126.1,175.9z M187.5,122.6c-2.4-3.1-4.7-6.2-7.1-9.3c-1.8-2.3-4-3.7-7.2-2.3c-0.8-1-1.5-1.9-2.5-3
		c5.4-4.6,10.7-8.7,18.4-6.7c9.7,2.5,15.1,15.2,10.2,23.9c-2,3.7-4.9,6.5-8.6,8.9c-0.8-1-1.5-1.9-2.4-3
		C190.9,128,189.6,125.3,187.5,122.6z M173.4,116.9c4.8,6.3,9.6,12.6,14.4,18.9c2.6,3.5,5.2,6.9,7.8,10.4c1.2,1.6,2.3,2.8,4.6,1.8
		c0.6-0.2,1.8,0.2,2.2,0.7c0.4,0.6,0.3,1.7,0.1,2.4c-0.2,0.6-0.9,1.2-1.5,1.6c-4.5,3.6-8.9,7.2-13.4,10.8c-0.4,0.3-0.9,0.7-1.3,1
		c-1,0.8-2.2,1.3-3.3,0.4c-1.2-0.9-0.8-2.1-0.2-3.2c1-1.7,0.4-3-0.7-4.4c-7.1-9.3-14.2-18.6-21.3-27.9c-0.5-0.6-1-1.2-1.3-1.8
		c-1-1.8-2.3-2.9-4.5-2c-1,0.4-2.2,0.2-2.4-0.9c-0.2-0.8,0.3-1.8,0.6-2.6c0.1-0.3,0.4-0.5,0.7-0.7c4.6-3.7,9.3-7.5,14.3-11.5
		C170.1,112.3,171.7,114.6,173.4,116.9z M159.3,158.1c-1,5.3-4.2,9.1-8,13c-1-0.8-1.8-1.6-2.8-2.5c2-4-0.2-6.8-2.9-9.3
		c-2.7-2.6-5.5-5.3-8.3-7.8c-2-1.8-4.1-3-6.6-0.5c-1-1.1-1.9-2-3-3.2c4.1-4.2,8.2-8.2,14.4-8.7C152.1,138.3,161.1,148.4,159.3,158.1
		z M218.6,86.8c5.4,9.9,10.7,19.9,16,29.8c1.3,2.5,2.6,4.6,5.9,4.8c0.9,0.1,1.8,1.8,2.9,3.1c-5.9,2.8-11.5,3.2-17.2,1.2
		c-5.5-1.9-9.7-5.6-13-10.4c-3.7-5.5-6.4-11.4-7-18c-0.8-8.6,2.1-15.8,9-21.2c0.3-0.3,0.7-0.4,1.3-0.7c0.7,1.1,1.3,2.1,1.9,3.3
		C216.2,81.5,217.1,84.1,218.6,86.8z M300.8,72.4c4.3,0.4,6.9,2.9,8.1,6.9c0.6,1.9,1,3.8,1.6,5.6c0.2,0.6,0.5,1.2,0.9,2.1
		c0.6-0.7,1.2-1.1,1.5-1.7c0.6-1,1.3-1.4,2.4-1.1c1.2,0.4,1.7,1.3,1.5,2.5c-0.6,3.4-2,6.4-4.8,8.5c-2.2,1.7-4.8,2.4-7.6,2.6
		c-4,0.3-7.5-1.8-9-5.6c-1.3-3.1-2.3-6.3-3.2-9.5c-0.9-3-2.2-5.5-6.1-5.3c-0.4-1.4-0.7-2.5-1.1-3.6c3.4-1.8,3.2-4.6,2.3-7.6
		c-0.8-2.5-1.7-4.9-2.2-7.5c-0.8-3.4-2.2-5.9-6.3-6.2c-0.4-1.2-0.8-2.4-1.2-3.9c3.7-1,6.9-2.6,10.5-2.8c8.1-0.4,14.4,5.8,14.5,14.1
		c0,4.6-2.7,7.6-5.8,10.5c-0.6,0.6-1.3,1.1-2.1,1.8C296.9,72.4,298.8,72.2,300.8,72.4z M310.9,38.5c3.3-0.5,6.4-1,9.6-1.6
		c1,2.1,1.2,3.8-0.3,5.8c-1.8,2.4-2,5.4-2.1,8.4c0,1.2,0,2.4-0.2,3.6c-0.2,1.3-1,2.2-2.4,2.2c-1.3,0-2-0.9-2.1-2.1
		c-0.6-3.5-1.1-7.1-1.6-10.6C311.4,42.4,311.2,40.6,310.9,38.5z M287.3,93.2c0.6,2.1,1.1,4,3.9,3.9c0.6,0,1.7,1,1.7,1.6
		c0,0.8-0.8,1.6-1.3,2.3c-0.2,0.2-0.6,0.3-0.9,0.4c-5.9,1.9-11.7,3.8-17.6,5.8c-0.3,0.1-0.6,0.2-0.9,0.2c-1.2,0.3-2.4,0.3-3.1-1
		c-0.7-1.2,0-2.2,0.8-2.9c1.8-1.3,1.5-2.8,1-4.6c-3.6-11.8-7.1-23.7-10.6-35.6c-0.6-2.1-1.2-3.9-4-3.9c-0.6,0-1.5-1-1.6-1.6
		c-0.1-0.7,0.4-1.6,0.9-2.2c0.4-0.4,1.1-0.6,1.7-0.8c5.3-1.6,10.6-3.3,15.9-4.9c0.3-0.1,0.6,0,1.1,0c0.4,1,0.8,2,1.1,3
		C279.4,66.4,283.4,79.8,287.3,93.2z M256.2,106.8c-0.8,6.8-4,12.2-9.9,16.3c-1.4-1.6-2.5-2.9-1.2-5.1c1-1.6,0.4-3.3-0.5-4.9
		c-1.9-3.4-3.7-6.9-5.5-10.3c-4-7.4-8.1-14.9-12-22.4c-1.3-2.4-3.3-3.3-5.9-3.2c-0.6-1.1-1.1-2.2-1.7-3.4c7-3.2,13.7-3,20.2,0.5
		c4.3,2.3,7.5,5.8,10.2,9.8C254.5,91,257.1,98.4,256.2,106.8z M348.1,78.7c0.3,2.2,0.7,4,3.3,4.4c0.6,0.1,1.3,1.2,1.3,1.8
		c0,0.7-0.8,1.4-1.4,1.9c-0.5,0.4-1.2,0.4-1.9,0.5c-5.8,0.9-11.6,1.9-17.3,2.8c-0.5,0.1-1.1,0.2-1.6,0.1c-0.8-0.3-1.9-0.7-2.3-1.3
		c-0.6-1,0-2,1-2.4c2.2-1,2.1-2.7,1.8-4.6c-2.3-14.5-4.5-28.9-6.7-43.4c-0.1-0.6,0-1.2,0-2.1c5.5-1,10.9-2,16.5-3.1
		c0.3,1,0.6,1.6,0.7,2.3C343.7,50,346,64.4,348.1,78.7z M344.5,32.9c3.3-0.5,6.4-1,9.9-1.5c0.5,3.1,0.9,5.8,1.4,8.6
		c0.4,2.5,0.8,4.9,1.1,7.4c0.2,2.2-0.3,3.1-1.7,3.3c-1.8,0.3-2.5-0.9-3-2.3c-0.4-1.3-0.7-2.8-1.4-4c-1-1.9-2-4-3.6-5.3
		C345.2,37.4,344.5,35.7,344.5,32.9z M369.2,36.7c0-1.4-0.2-2.6-1.8-3.1c-1.2-0.4-2.3-1-2-2.5c0.3-1.6,1.8-1.8,3.1-1.8
		c5.5,0,11.1,0,16.6,0c0.4,0,0.8,0.2,1.3,0.4v54c-0.7,0.1-1.4,0.4-2.1,0.4c-5,0-10,0-15,0c-0.4,0-0.9,0-1.3,0
		c-1.3-0.1-2.4-0.5-2.7-1.9c-0.3-1.5,0.6-2.3,1.9-2.6c1.7-0.5,1.9-1.8,1.9-3.3C369.2,63,369.2,49.8,369.2,36.7z M406.3,83.9h-16.2
		v-4.2c0.8-0.3,1.6-0.7,2.4-0.9c4.4-1.5,7.3-4.5,8.9-8.8c0.2-0.5,0.3-1,0.5-1.5c0.5-1.2,1.3-2,2.8-1.7c1.3,0.3,1.6,1.3,1.6,2.5
		C406.2,74.1,406.3,78.9,406.3,83.9z M391.7,75.3v-7.8c1.6,1.2,3.3,2.5,5.1,3.8C395.9,73.2,394.3,74.5,391.7,75.3z M401.4,43.9
		c-1.1-3.5-3.1-6.4-6.3-8.4c-1.5-0.9-3.3-1.6-5-2.5v-3.8c2.7-0.1,5.2-0.1,7.8-0.2c2.5,0,4.9,0,7.6,0c0.1,0.8,0.3,1.4,0.3,2
		c0,4,0,8,0,12c0,1.3-0.2,2.4-1.7,2.7C402.5,46,401.8,45.1,401.4,43.9z M396.1,40.9c-1.5,1.1-2.8,2.1-4.4,3.3v-6.1
		C393.9,38.3,395.1,39.4,396.1,40.9z M390.9,53.2c2-1.5,3.2-3.5,3.7-5.9c0.1-0.4,0.2-0.8,0.4-1.2c0.4-1.1,1.2-1.5,2.3-1.4
		c1.2,0.2,1.6,1,1.6,2.1c0,3,0,6.1,0,9.1l0,0c0,2.8,0,5.7,0,8.5c0,1.2-0.2,2.3-1.5,2.5c-1.4,0.3-2.3-0.5-2.7-1.8
		c-0.7-2.7-2-5-4.3-6.7C389.3,57.5,389.6,54.1,390.9,53.2z M569.7,328.6c0.2,4,0.5,8,0.9,12c0.2,2.5,0.3,4.8-0.9,7.2
		c-1.4,2.8-2.4,5.8-2.6,9c-0.1,1.3-0.9,2.6-1.6,3.8c-1.5,2.5-1.3,4.6,0.6,6.8c1.4,1.6,2.7,3.4,4.2,5c1.2,1.2,2.5,2.3,3.9,3.3
		c2,1.5,4,3,6.2,4.1c1.5,0.8,3.2,1.3,4.9,1.4c4.6,0.3,8.9,1.6,13,3.8c3,1.6,6,2.9,9.4,3.5c2.7,0.5,5.3,1.9,7.9,2.9
		c0.2,0.1,0.4,0.3,0.6,0.3c4.5,1,9,2.1,13.6,3c1.5,0.3,3.2,0.3,4.7,0.5v12.5H522.6c1.5-2,2.7-3.9,4.2-5.5
		c6.2-6.8,10.1-14.8,12.3-23.7c1-4,2.6-7.8,4.1-11.6c0.8-2,1.8-3.9,3-5.8c4.3-6.5,8.6-13,12.9-19.4c1.7-2.5,3.2-5.1,4.1-8
		c1.8-5.3,3.9-10.6,5.9-15.8c0.2,0,0.4,0.1,0.6,0.1C569.7,321.5,569.6,325.1,569.7,328.6z M420.4,34.6c-1.1-0.5-1.7-1.4-1.3-2.7
		c0.5-1.4,1.6-1.7,2.9-1.6c4.3,0.5,8.6,1,12.9,1.5c1.7,0.2,3.4,0.5,5.6,0.7c-0.1,1.8-0.2,3.3-0.4,4.8c-1.6,13.6-3.3,27.2-5,40.7
		c-0.3,2.2-0.4,4.1,2.1,5.2c0.6,0.3,1,1.7,0.8,2.5c-0.1,0.6-1.2,1.3-1.9,1.3c-1.6,0.1-3.2-0.1-4.9-0.3c-4.7-0.6-9.5-1.2-14.2-1.8
		c-0.4-0.1-0.9,0-1.3-0.1c-1.3-0.3-2.6-0.8-2.7-2.3c-0.1-1.5,0.9-2.4,2.3-2.6c1.6-0.3,2-1.4,2.2-2.8c0.7-6,1.5-12.1,2.2-18.1
		c0.8-6.8,1.5-13.6,2.4-20.4C422.4,36.8,422.1,35.4,420.4,34.6z M445.4,53.3c0.3-2.5,0.4-5,0.9-7.4c0.8-3.6,0.2-6.5-3.4-8.4
		c0.2-1.7,0.4-2.9,0.7-4.4c6.1,0.2,11.5,1.5,16.2,5.6c5.6,5,5,19.3-5.2,22.2c-1.1,0.3-2.2,0.6-3.8,1.1c1.3,0.6,2.1,1,2.9,1.4
		c5.4,2.4,7.3,5.6,6.6,11.7c-0.3,2.3-0.5,4.7-0.9,7.6c1-0.5,1.5-0.7,1.8-1c0.7-0.8,1.5-1.4,2.5-0.7c1.1,0.7,1.6,1.8,1.2,3.1
		c-0.3,0.8-0.7,1.6-1.3,2.2c-4,4.8-12,5.9-17.2,2.3c-3.5-2.5-4.3-6.1-4-10.1c0.2-2.7,0.7-5.4,1-8.1c0.3-2.9-0.2-5.5-3.4-6.8
		c0.1-1.3,0.2-2.6,0.3-4C444,59,445.1,56.5,445.4,53.3z M441.4,53.9c0.4-3.7,0.9-7.4,1.3-11c0.2,0,0.4,0,0.6,0.1
		c-0.4,3.6-0.9,7.3-1.3,10.9C441.8,53.9,441.6,53.9,441.4,53.9z M440.2,68.7c-0.4,3.6-0.8,7.1-1.2,10.7c-0.2,0-0.4-0.1-0.7-0.1
		c0.4-3.6,0.9-7.1,1.3-10.7L440.2,68.7z M508.4,60.3c-0.6-4.9-2.1-7.6-7.1-11.8c0.3-1.2,0.5-2.5,0.8-4c4.2,0.2,6.2,4,9.7,5.3
		c1.5-0.7,2.7-2.4,4.3-1.1c1.6,1.2,0.6,2.8,0.3,4.2c-0.8,3.3-1.7,6.5-2.5,9.7c-0.2,0.7-0.4,1.5-0.7,2.2c-0.5,1.2-1.2,2.1-2.7,1.9
		c-1.6-0.2-2.1-1.3-2.1-2.8C508.4,62.7,508.5,61.5,508.4,60.3z M505.2,63.5c-3.7-2.4-6.6-4.7-9.1-7.6c-0.9-1-1.6-2.1-0.6-3.4
		s2.8-1.6,4.3-0.6C503.9,54.5,505.3,58.3,505.2,63.5z M498.4,47.6c-1.1,0.4-2.1,0.6-3.1,1.1c-3.4,1.5-4.5,4.8-2.7,8.1
		c1.5,2.8,3.9,4.6,6.4,6.4c3.1,2.3,5.9,4.9,8.3,8.1c7.5,10,1.2,26.8-13.1,28.1c-2.7,0.2-5.4,0.4-8.2-0.8c0.3-1.3,0.6-2.4,1-3.7
		c1-0.2,2-0.4,3-0.7c5-1.1,6.7-6.1,3.3-10c-1.6-1.8-3.4-3.3-5.2-4.9c-2.3-2.1-4.9-4-7-6.3c-6.5-7.2-6.4-17.6,0.2-24.8
		c4.6-5,11.6-6.8,17.9-4.4C498.9,45,498.7,46.3,498.4,47.6z M485.6,90.5c-1.2-0.8-2.4-1.9-3.2-3.1c-1.9-2.8-2.5-6.1-2.1-10.1
		c3.5,2.9,6.4,5.4,9.3,8c2.1,1.8,2.5,3.1,1.6,4.4C490.2,90.9,487.1,91.6,485.6,90.5z M476.9,77.5c0.3,3.1,0.5,6.3,1.6,9.2
		c1.1,2.7,3.2,5,5.4,8.2c-0.2,0.6-0.5,1.8-0.9,3c-4.2-0.4-6.5-3.8-9.7-5.3c-0.9,0.5-1.6,1.1-2.4,1.4c-1.5,0.6-2.6,0-2.8-1.6
		c-0.1-0.9,0-2,0.2-2.9c1-4.1,2.1-8.2,3.2-12.3c0.1-0.2,0.1-0.4,0.2-0.6c0.7-2.1,1.7-2.9,3.1-2.6C476.2,74.2,476.6,75.2,476.9,77.5z
		"/>
	<path class="st2" d="M495.5,371.7c2.1-2.6,3.5-5.7,5.2-8.6c3.8-6.7,7.4-13.4,11.2-20.1c0.8-1.5,2-2.8,3.1-4.2
		c2.6-3.2,5.3-6.3,7.9-9.4c0.5-0.7,1.1-1.4,1.4-2.2c2-5.3,3.7-10.6,5.8-15.8c4.2-10.3,8.6-20.6,12.9-30.9c0.7-1.7,1.3-3.4,2.1-5.4
		c-5.8-1-10.9-1.8-16-2.8c-3.8-0.8-7.6-1.7-11.3-2.8c-2.8-0.8-5.5-1.9-8.3-2.8c-1.3-0.4-2.8-0.6-4-1.3c-2.1-1.2-4.3-1.4-6.6-1.5
		c-6.1-0.2-12.2-0.4-18.2-0.7c-5.6-0.3-11.2-1-16.8-1.3c-3.1-0.1-6.3,0.3-9.4,0.3c-11.8,0-23.6,0.7-35.4,2
		c-6.9,0.7-13.8,1.6-20.7,2.2c-4.2,0.4-8.5,0.2-12.7,0.6c-15.1,1.5-30.2,3.3-45.3,4.7c-14.4,1.4-28.6,3.5-42.8,6.1
		c-6.7,1.2-13.5,2-20.3,2.8c-5.9,0.8-11.9,1.4-17.8,2.2c-6.9,0.9-13.7,2-20.6,3c-5.6,0.8-11,0.1-16.3-1.8c-2.1-0.8-4.1-2.1-6.2-2.9
		c-2.1-0.8-4.3-1.8-6.8-1.5c0,0.4,0,0.7,0.1,0.8c5.2,7.2,10.3,14.5,15.8,21.5c3.7,4.7,8,8.8,12,13.3c7.1,7.8,14.3,15.5,21.1,23.4
		c5.2,6.1,10.2,12.4,13.3,19.9c1.1,2.7,3,5,5.8,6.3c1.7,0.8,3.5,2,4.8,3.3c6.9,7.2,13.9,14.4,20.4,21.9c3,3.4,6.4,6.3,10.2,8.4
		c5.1,2.8,8.3,7.8,13.5,10.4c0.4,0.2,0.6,0.7,0.9,1c0.4,0.4,0.8,0.9,1.3,0.9c5.7,1,11.4,4.1,17.1-0.1c0.4-0.3,1-0.3,1.6-0.4
		c0.9-0.1,1.8,0,2.6-0.3c5.7-2.1,11-1,15.5,2.9c2.4,2.1,5.2,2.4,8.1,2.8c2.9,0.4,4.4-0.7,5.4-3.5c0.3-0.9,0.4-1.9,0.5-2.9
		c0.2-3.6,0-7.2-1.1-10.6c-0.9-2.8-1.5-5.7-2.4-8.5c-1.3-4.1-2.3-8.4-5.4-11.8c-0.4,0.1-0.8,0.1-1.2,0.2c-4,1-5.6,0.5-7.7-2.8
		c-1.1-1.7-2.1-3.6-2.7-5.5c-0.9-2.7-1.3-5.7,0.6-8.1c2.6-3.2,3.5-6.6,2.8-10.6c-0.2-1-0.1-1.9-0.2-2.9c-0.4-6.6,1.1-13,3.2-19.1
		c2.9-8.5,9-15,15.3-21.1c3.2-3.1,7.3-5.4,11.1-7.8c2.2-1.4,4.8-2,7.4-1.7c2.5,0.3,5.1,0.4,7.6,1.2c3.2,0.9,6.5,1.8,9.2,4
		c2,1.6,4,3.4,6.2,4.7c2.3,1.4,3.9,3.3,5.5,5.3c1.8,2.3,3.4,4.7,5.3,6.9c4.1,4.7,6.2,10.2,6.6,16.3c0.3,4.6,0,9.3-0.2,13.9
		c-0.1,1.5,0.2,2.7,1.6,3.6c3.2,2,3.9,5.2,3.2,8.6c-0.9,4.3-2.8,8.2-5.9,11.4c-1.6,1.7-3.5,2.6-5.9,1.9c-0.7-0.2-1.5-0.1-2.4-0.2
		c-0.3,1-0.8,1.9-0.9,2.8c-0.6,4.8-1.3,9.7-1.7,14.5c-0.4,3.6,0.5,7.1,1.7,10.5s3.7,4.6,7.2,3.8c0.7-0.2,1.5-0.6,2.2-0.5
		c2,0.2,3.3-0.8,4.3-2.4c0.6-1,1.3-2,2-3c1.5-2,3.4-3.1,5.9-3.6c4.2-0.7,8.4-1,12.6-0.3c4.3,0.7,7.6-1.5,10.8-3.7
		c1.9-1.2,3.3-3,5.2-4.4c1.4-1,2.2-2.2,3.1-3.6c1.3-2.2,2.9-4.3,4.6-6.2C489.8,377.5,493,374.9,495.5,371.7z M375.6,403.7
		c0,2.2,0,4.2,0,6.3c0,1.1-0.6,2-1.8,1.7c-2.2-0.6-4.6-0.4-6.7-2.1c-3.9-3.3-8.5-4.9-13.6-4c-3.8,0.7-7.8,0.5-11.1,3
		c-0.5,0.4-1.4,0.6-2.1,0.5c-2-0.1-4.1-0.3-6.1-0.5c-1.9-0.2-3.5-0.8-4.9-2.2c-0.9-1-2.2-1.6-3.4-2.5
		C328.3,403.2,370.9,403,375.6,403.7z M482,379.9c-1.5,1.7-2.2,4-4.6,4.7c-0.5,0.2-0.9,0.9-1.2,1.4c-1.8,3.5-4.7,6-8.2,7.8
		c-1.4,0.7-3.1,0.8-4.7,0.7c-4.7-0.2-9.3-0.2-13.9,0.6c-4.5,0.7-6.8,4-9.4,7c-0.3,0.4-0.6,0.9-0.9,1.4c-1.3,0.3-2.4,0.4-3.4,0.7
		c-2.2,0.6-2.5,0.4-3.3-1.8c-1.4-4.1-1.6-8.3-0.9-12.5c0.5-2.9,0.6-5.8,0.9-8.6c0.4-0.2,0.7-0.5,1-0.5c4.2,0.5,6.6-2.2,8.9-5
		c3.9-4.6,5.9-9.8,5.5-15.9c-0.2-2.7-0.9-5.3-3-7c-1.7-1.4-1.7-2.9-1.5-4.6c1.5-9.5-0.5-18.5-4.9-26.9c-0.7-1.4-2.1-2.5-3.1-3.7
		c-2.6-3.3-5.3-6.5-7.9-9.8c-0.1-0.2-0.2-0.4-0.4-0.5c-4.2-3-8.2-6.5-12.7-8.8c-6.7-3.3-14-4.6-21.5-2.7c-0.3,0.1-0.6,0.1-0.9,0.2
		c-0.8-2.4-0.9-22.3-0.2-25.5c4-0.3,7.9-0.6,11.9-1c5.9-0.6,11.8-1.2,17.7-1.8c2.9-0.3,5.8-0.6,8.7-0.7c8.8-0.3,17.6-0.3,26.3-1
		c4.6-0.3,9-0.2,13.6,0.1c9.5,0.7,18.9,2.1,28.5,1.4c0.7,0,1.5,0,2.2,0.2c4.3,1.3,8.6,2.3,12.7,3.9c5.3,2,10.7,3.5,16.3,4.3
		c3.2,0.5,6.2,1.5,9.7,2.4c-0.7,1.3-1.4,2.5-1.9,3.8c-2.2,5.1-4.4,10.1-6.4,15.2c-3.6,9.2-6.9,18.4-10.5,27.6
		c-0.4,1.1-1.1,2.2-1.9,3c-4.1,4.3-7.9,8.8-11,14c-2.6,4.5-5.5,8.8-8.1,13.3c-2.5,4.3-4.6,8.8-7.1,13.1c-0.6,1.1-1.7,1.9-2.6,2.8
		C487.5,374.2,484.6,376.9,482,379.9z"/>
</g>
<path class="st2" d="M677.5,185.8c2.6-5.2,3.5-11,2.1-16.8c-1.1-4.7-2.9-8.9-6.3-12.6c-4.2-4.6-8.8-7.8-15-8.9
	c-3.8-0.7-7.6-0.5-11.3,0.6c-7.9,2.5-14.6,7.1-19.7,13.7c-1.5,1.9-2.8,4-4.2,6.1c-0.6-1.1-1.2-2-1.5-2.7c1.4-2.4,3-4.6,3.8-7
	c0.8-2.5,0.6-5.2,0.8-7.5c2.9-1,6-1.5,8.5-3c8.7-5.4,10.7-17,4.3-25.3c-2.2-2.8-4.8-5.3-7.4-7.7c-4-3.8-8.2-7.4-12.3-11
	c-1.7-1.5-3.4-3.1-5.2-4.4c-2.1-1.5-4.5-1.7-6.7-0.2c-2.1,1.4-2.4,3.5-2,5.8c0.1,0.7,0.3,1.5,0.4,2.1c-3.9,4.6-7.7,9.1-11.4,13.6
	c-3.9,4.6-7.7,9.1-11.6,13.7c-1,1.2-2,2-3.8,1.7c-2.1-0.3-3.9,0.5-4.9,2.5c-1.1,2.2-1.2,4.4,0.3,6.5c0.5,0.7,1.1,1.3,1.8,1.9
	c4.1,3.7,8.3,7.3,12.3,11.1c2.5,2.3,5.1,4,8.6,3c1.6,11.6,12.1,18.8,23.8,13.9c-0.1,1-0.1,1.7-0.2,2.3c-1.4,9.7,1.9,17.9,9.1,24.2
	c7.4,6.6,16.1,8.1,25.5,4.8C665.5,202.5,672.8,195.4,677.5,185.8z M596.7,150.6c-1.1,1.2-1.4,2.4-0.4,3.8c0.6,1,0.7,2.1-0.3,2.9
	c-1.1,1-2.3,0.6-3.3-0.2c-2.3-1.9-4.5-3.8-6.7-5.7c-2.5-2.2-5-4.5-7.4-6.8c-0.6-0.6-1.4-1.2-1.7-1.9c-0.3-0.7-0.3-1.8,0.1-2.4
	c0.4-0.5,1.6-1,2.2-0.8c2.3,1.1,3.5-0.1,4.8-1.8c4.9-6,10-11.8,15-17.6c2.9-3.5,5.8-7,8.8-10.4c1.3-1.5,2.2-2.8,1-4.9
	c-0.4-0.7-0.1-2.3,0.4-2.9c0.9-1,2.3-0.6,3.2,0.2c4.7,4.2,9.3,8.4,14.2,12.7c-0.7,1-1.3,1.9-2,2.7c-8.8,10.4-17.7,20.8-26.6,31.2
	C597.5,149.3,597.2,150,596.7,150.6z M622.3,125.8c-0.4,0.5-0.9,1-1.3,1.4c0.3-0.6,0.5-1.2,0.8-1.7
	C622,125.6,622.2,125.7,622.3,125.8z M620.6,127.9c-0.5,0.7-1,1.4-1.5,2.2c-0.2-0.1-0.3-0.3-0.5-0.4
	C619.3,129.1,619.9,128.5,620.6,127.9z M620.4,160.6c-1.7,2-3.2,4-5.1,6.4c1,0.1,1.7,0.3,2.4,0.3c1.2,0,2,0.6,2,1.7
	c0,0.8-0.6,1.7-1.1,2.5c-0.1,0.2-0.5,0.3-0.8,0.4c-9.5,3.6-18-4.8-17.2-11.6c0.3-2.6,1.4-4.7,3-6.7c1.6-1.9,3.1-3.9,4.7-5.8
	c2.5-3.1,2.6-4,1.3-7.9c0.7-0.9,1.4-2,2.3-3.2c3.5,2.2,5.7,0.2,7.8-2.2c1.6-1.9,3.3-3.8,4.9-5.7c2-2.5,3.6-5,1.3-8.4
	c1.1-1.2,2-2.2,3-3.3c4.7,3.9,9.1,7.6,10.3,13.8c1.8,9.8-7,17.9-16.5,15.2c-1-0.3-2-0.7-3.6-1.2c0.8,1.4,1.4,2.3,2,3.3
	C623.4,152.5,623.7,156.6,620.4,160.6z M628.5,195c-3.9-5.2-5.4-10.4-4.9-16.1c0.4-4.8,2.1-9.3,5-13.2c5-7,11.4-12.3,19.9-14.3
	c8.1-1.9,15.2,0,21.3,5.8c-1.8,2.9-2,3-4.8,2.5c-1.8-0.4-3.1,0.4-4.4,1.5c-7.7,7-15.5,13.9-23.2,20.9c-1.3,1.2-2.5,2.4-3.8,3.6
	c-1.7,1.4-2.8,3-2.3,5.4C631.7,193.1,629.5,193.4,628.5,195z M665.8,165.5c-0.3,0.4-0.8,1.1-1.4,1.6c-5.1,4.6-10.2,9.1-15.3,13.7
	c-3.2,2.8-6.3,5.7-9.4,8.5c-0.6,0.5-1.2,1-1.7,1.5c-1,0.9-2.1,1.4-3.1,0.3c-0.9-1.1-0.2-2,0.7-2.8c1.8-1.6,3.5-3.3,5.2-4.9
	c6.9-6.1,13.8-12.2,20.7-18.4c0.6-0.6,1.3-1.2,2.1-1.5C664.8,163,665.9,163.8,665.8,165.5z M630.7,197.8c1.6-3.3,1.7-3.4,4.8-2.9
	c1.8,0.3,3.2-0.5,4.4-1.6c2.9-2.5,5.8-4.9,8.6-7.5c6-5.4,12-11,18.1-16.4c1.7-1.5,2.9-3.1,2.5-5.6c-0.4-2.1,1.5-2.9,2.9-4.1
	c3.8,5.3,5.5,10.9,4.6,17.2c-0.6,4.3-2.2,8.4-4.8,12c-4.5,6-9.8,11-17,13.6C645.8,205.9,637.8,204.3,630.7,197.8z"/>
<path class="st2" d="M659.8,479.6c3.5,2.2,6.2,5.2,7.6,9.1c1,2.8,2.6,6-0.7,8.6c-0.3,0.2-0.3,0.8-0.3,1.2c0,1.6,0,3.2,0,5.1
	c2.8-0.3,4.7-1.2,6.5-2.8c1.4-1.3,3.2-2.2,4.8-3.4c0.7-0.6,1.4-1.2,2-2c1.3-1.8,2.4-3.9,3.8-5.6c1.2-1.4,1.9-2.8,1.9-4.7
	c-0.1-1.6,0.4-3,1.4-4.2c0.5-0.7,1-1.5,1.2-2.3c1.7-5.3,4.1-10.6,4.9-16.1c0.9-5.8,0.2-11.9,0.2-17.9c-0.5-0.1-0.9-0.2-1.3-0.2
	c-5.9,0.5-11.9,0.9-17.8,1.6c-5.1,0.6-9.8,2.8-14,5.8c-4,2.8-7.8,5.9-11.5,9c-2,1.6-3.9,3.5-5.6,5.4c-1.6,1.8-2.9,3.9-2.9,6.7
	c1.5,0.3,2.9,0.6,4.3,0.9C649.6,474.9,655,476.5,659.8,479.6z"/>
<path class="st2" d="M575.3,132.4c1.5-3,3.2-5.9,4.7-8.9c0.7-1.3,1.4-2.2,3-2.7c2.1-0.6,3-2.4,3.3-4.4c0.3-2.2-0.3-4.1-2-5.4
	c1.7-1.4,3.5-2.4,4.4-3.9c2.8-4.6,5.2-9.5,7.8-14.3c0.3-0.6,0.5-1.2,0.6-1.8c0.8-3.4-1.4-6.7-4.8-6.5c-3,0.2-4.5-1.3-6.2-3.2
	c-3.8-4-8.5-6.7-13.8-8c-7.5-1.8-14.5,0-20.7,4.4c-9.3,6.7-14.4,16.1-15.5,27.5c-1,10.5,1.8,21.6,15.5,28c6.2,2.9,12.7,3.5,19.4,2.3
	C573,135.1,574.4,134.2,575.3,132.4z M578.7,79.8c0.8,0.5,1.5,0.8,2,1.2c2.2,2,4.3,3.9,6.4,6c1,1,1.9,1.6,3.4,0.9
	c1.1-0.5,2.6-0.7,3.2,0.6c0.4,0.8,0.2,2.1-0.3,3c-2.3,4.6-4.8,9.2-7.3,13.8c-0.6,1.1-1.5,1.9-2.9,1.5s-1.8-1.5-1.7-2.8
	c0.1-1,0.3-1.9,0.5-2.9c0.2-1.9,0.6-3.9,0.6-5.8c0-4.7-1.7-8.7-5.9-11.6C577.4,82.3,578,81.1,578.7,79.8z M579.3,96.7
	c0,1-0.2,1.9-0.3,2.9c-0.3,2.5-0.6,5.1-1,8c-2.1-1.3-4.2-2.7-6.4-3.9c-2.3-1.2-4.7-2.2-7.3-3.4c2.4-4.3,4.8-8.9,7.3-13.4
	c0.9-1.6,1.6-1.5,3.2-0.4C578.4,89,579.5,92.6,579.3,96.7z M551.5,117.2c-1.1,2-1.4,3.9-0.7,6.2c0.4,1.3-0.6,3-1.1,5
	c-6.7-4.5-9.9-10.3-10.3-17.5c-0.7-11.3,3.4-20.8,11.8-28.4c5-4.6,10.7-6.8,17.5-6.5c2.5,0.1,4.9,0.8,7.4,2.2
	c-0.6,1.4-1.2,2.6-1.9,3.9c-2.9,0.1-4.8,1.7-6.1,4.1C562.5,96.5,557,106.9,551.5,117.2z M561.6,111.2c-1.7,3.3-3.4,6.4-5.1,9.5
	c-0.4,0.8-0.9,1.9-2.2,1.3c-1.2-0.6-0.9-1.6-0.4-2.5c1.8-3.5,3.7-7.1,5.7-10.9C560.5,109.7,561,110.4,561.6,111.2z M570.4,132.2
	c-6.2,1.2-12.3,0.6-18.4-2.4c0.7-1.5,1.2-2.7,1.8-4c3.3,0.3,4.9-1.7,6.2-4.3c1.5-3,3.1-6,4.7-8.9c0.8-1.4,1.1-2.6-0.4-3.7
	c-0.3-0.3-0.8-0.6-0.9-0.9c-0.2-0.8-0.5-1.8-0.1-2.3c0.4-0.6,1.4-0.9,2.2-0.9c0.7,0,1.4,0.4,2.1,0.8c4.5,2.5,8.9,5,13.4,7.4
	c1.2,0.7,2.3,1.3,2.1,2.9s-1.2,2.3-2.7,2.4s-1.9,1.2-2.5,2.3c-1.8,3.2-3.4,6.5-5.3,9.7C572.2,131.1,571.3,132.1,570.4,132.2z"/>
<path class="st2" d="M685.6,249.8c2.3-1.3,4.4-2.8,6.5-4.3c5.1-3.5,10.2-7.1,15.2-10.6c2.1-1.5,4.2-2.4,6.9-0.9
	c2.2,1.2,4.6,0.5,5.9-1.2c1.7-2.1,1.8-4.6,0.6-6.8c-2-3.6-4.3-7-6.7-10.4c-1.6-2.1-4.2-2.6-6.5-1.6s-3.3,2.9-3,5.3
	c0.3,2.6-0.9,4.2-2.7,5.5c-7.2,5-14.5,10-21.7,15c-3.4,2.3-6.7,2.1-10-0.3c-2.5-1.8-2.6-3.4-0.1-5.4c1.3-1,2.7-1.8,4-2.8
	c8.4-5.9,16.9-11.9,25.1-17.6c1.7,0.3,3,0.9,4.4,0.9c4.3-0.2,6.5-4.9,4-9.1c-3.6-5.8-7.4-11.5-11.3-17.2c-1.5-2.2-3.7-3.3-6.5-2.5
	c-2.5,0.7-3.6,2.1-3.8,5.4c-0.1,1.1-0.4,1.8-1.3,2.4c-2.1,1.4-4,2.9-6.1,4.3c-6.9,4.8-13.7,9.5-20.6,14.3c-2.9,2-4.9,4.5-5.5,8.1
	c-0.9,5.9-0.2,11.5,2.6,16.7c1.5,2.8,3.7,5.3,5.3,8.1c2.1,3.8,5.4,5.8,9.5,6.8C675.5,253.7,680.7,252.6,685.6,249.8z M661.8,241.3
	c-4.5-5.5-6.7-11.4-6.3-18.2c0.2-3.4,1.6-6.1,4.6-8.2c8.4-5.6,16.7-11.4,25-17.1c0.7-0.5,1.4-1,2.1-1.5c1.6-1.2,3-2.5,2.2-4.9
	c-0.4-1,0.2-2.1,1.3-2.3c0.8-0.1,2,0.2,2.6,0.8c1.2,1.3,2.2,3,3.2,4.5c2.5,3.7,4.9,7.4,7.3,11.2c0.6,1,1.3,2.1,1.5,3.2
	c0.4,1.9-1.4,3.4-2.9,2.3c-2.3-1.7-3.9-0.7-5.8,0.6c-8.6,6-17.2,11.8-25.8,17.7c-1.2,0.9-2.4,1.9-3.5,2.9c-2.1,1.8-2.5,4.2-2,6.8
	C664,239.9,662.9,240.6,661.8,241.3z M672.8,249.4c-3.7-0.5-6.8-1.9-9.3-5.2c1.4-1,2.4-1.8,3.5-2.7c0.6,0.4,1,0.9,1.5,1.2
	c4.4,3.1,9.6,3,14-0.1c3.8-2.7,7.6-5.4,11.4-8c3.3-2.3,6.6-4.6,9.8-7c2.7-2,4.7-4.5,4.1-8.3c-0.1-0.7,0.7-2,1.3-2.2
	c0.7-0.2,2,0.3,2.5,0.9c2.1,3,4.1,6.1,6.1,9.2c0.3,0.5,0.4,1.3,0.4,1.9c-0.1,1.7-1.5,2.6-2.9,1.6c-3-2.1-5.8-1.3-8.4,0.6
	c-7.1,4.8-14.1,9.7-21.2,14.6C681.8,248.6,677.6,250,672.8,249.4z"/>
<path class="st2" d="M632.7,527.4c-0.6,3.5,0.6,5.4,4.1,6.1c2.9,0.7,5.6-0.2,8-1.9c1.4-1,2.1-2.5,2.1-4.2
	c0.6-11.1-2.6-20.8-10.3-28.9c-3.6-3.8-7.6-7-13.2-8.4c-0.6,1.4-1.4,2.7-1.8,4.1c-0.5,1.8-1.6,2.7-3.3,3.3c-2.4,0.9-4.8,2-7.5,3.1
	c4.4,4.7,6.9,10,8.9,15.7c1.5,0.2,2.9,0.3,4.3,0.5c0.1,0.6,0.3,1,0.2,1.4c-0.3,2.5,0.8,3.7,3.1,4.4c2,0.6,3.9,1.8,5.8,2.7
	C633,526.4,632.8,526.9,632.7,527.4z"/>
<path class="st2" d="M729.2,246.9c-0.3-0.8-0.6-1.6-1.1-2.4c-1.3-2-2.9-3.5-5.5-3.2c-2.3,0.3-4,1.9-4.6,4.7
	c-0.3,1.2-0.8,1.9-1.9,2.3c-2.1,0.8-4.2,1.7-6.3,2.7c-8.2,3.6-16.5,7.2-24.7,10.8c-1.2,0.5-2.2,1.1-3.6,0.1c-2-1.5-4.3-1.3-6.4,0.1
	c-2.1,1.5-2.4,3.8-1.9,6.2c0.2,0.8,0.5,1.7,0.8,2.5c1.2,2.9,2.4,5.8,3.5,8.7c1.2,3,2.5,6,3.8,9c1.2,2.8,3.4,4.1,6.2,3.7
	c2.6-0.4,3.9-1.7,4.5-4.8c0.1-0.5,0.2-1,0.3-1.6c2.8-1.2,5.5-2.3,8.4-3.5c1.1,2.2,2,4.1,2.9,5.9c1.6,3.2,3.8,5.8,6.7,7.8
	c7,4.9,15.6,3.6,22.6-1c3.5-2.3,5.7-5.5,6.8-9.6c1.7-6.1,0.4-11.8-1.8-17.5C735,260.9,732.1,253.9,729.2,246.9z M691,282.6
	c-1.6,0.7-2.5,1.5-2.3,3.4c0.1,1.3-0.2,2.5-1.6,2.8c-1.5,0.3-2.2-0.8-2.7-1.9c-2.6-6.2-5.2-12.4-7.8-18.6c-0.2-0.5-0.4-1.1-0.3-1.6
	c0.2-0.8,0.5-1.9,1.1-2.1c0.7-0.3,2.1-0.1,2.5,0.5c1.3,1.8,2.7,1.7,4.5,0.9c8.3-3.7,16.7-7.3,25-11c3.2-1.4,6.3-2.9,9.5-4.3
	c1.4-0.6,2.3-1.5,2.2-3.2c-0.1-1.2,0.1-2.2,1.5-2.5c1.6-0.4,2.5,0.6,3,1.9c1.6,3.7,3.1,7.4,4.6,11.1c0.8,2,1.6,4,2.6,6.2
	c-1.6,0.8-3,1.7-4.4,2.3c-6.6,2.8-13.2,5.6-19.8,8.4C702.7,277.4,696.9,280.1,691,282.6z M725.6,271.9c-0.9,0.3-1.9,0.5-2.8,0.8
	c0.9-0.5,1.7-1,2.6-1.4C725.5,271.5,725.6,271.7,725.6,271.9z M722.3,272.9c-0.3,0.3-0.6,0.6-1,0.8c-3,1.4-5.9,2.7-9,3.8
	C715.3,275.4,718.7,273.9,722.3,272.9z M734.5,288.8c-6.5,9.8-21.6,9.2-27.3-1.1c-1.3-2.3-2.4-4.6-3.7-7.1c1.5-0.7,2.6-1.2,3.9-1.8
	c2.3,3,5.1,2.8,8.1,1.3c3.3-1.6,6.7-3.1,10.1-4.6c2.9-1.3,5.1-3,4.6-6.7c1.2-0.5,2.3-1,3.3-1.4C737.9,273.3,738.3,283,734.5,288.8z"
	/>
<path class="st2" d="M642.8,538.8c-3.1,1.3-3.5,3.6-0.9,5.7c2.8,2.3,5.7,4.3,8.7,6.3c0.5,0.4,1.2,0.5,2.1,0.9
	c-0.5-5.5-1.5-10.4-4.5-14.9C646.2,537.5,644.5,538,642.8,538.8z"/>
<path class="st2" d="M418.9,841.4c-5.7,3.6-12.1,4.5-18.8,4c-13.2-1-22.2-9.3-24.2-20.8c-0.6-3.4-0.6-6.9-0.2-10.4
	c1.2-13.1,10.1-22.3,22.4-23.8c7-0.9,13.6,0.4,19.3,5c2.5,2,4.2,4.6,5.1,7.5h4c0.7-4.2,0.6-12.4-0.2-14.6c-4.3-1.7-5,2.8-7.5,4.5
	c-1-0.5-2.1-1-3.1-1.6c-4-2.1-8.2-3.5-12.7-3.7c-4.2-0.2-8.5,0-12.7,0.5c-7.6,0.9-14.5,3.4-20.6,8.2c-4.5,3.5-7.9,7.8-9.5,13.3
	c-3.2,10.3-1.2,19.3,6.6,26.9c3.9,3.8,8.3,6.5,13.4,8.4c7.3,2.7,14.9,3.7,22.7,3.5c8-0.3,15.3-2.7,22.1-7c1-0.7,1.9-1.6,3.1-2.6
	c-1.4-0.8-2.4-1.4-3.4-2C422.7,838.4,420.9,840.1,418.9,841.4z"/>
</svg>
