<svg width="16" height="13" viewBox="0 0 16 13" fill="none" xmlns="http://www.w3.org/2000/svg">
<path d="M14.9316 2.65487C14.6409 2.35366 14.2367 2.17154 13.7758 2.17154H11.4643V2.15052C11.4643 1.80729 11.3225 1.47806 11.0885 1.2539C10.8545 1.02274 10.5283 0.882645 10.1809 0.882645H5.99741C5.63579 0.882645 5.31672 1.02274 5.07563 1.2539C4.84164 1.48506 4.69983 1.80729 4.69983 2.15052V2.17854H2.40247C1.94158 2.17854 1.53741 2.36067 1.2467 2.66188C0.955983 2.94908 0.757446 3.36236 0.757446 3.80367V10.6614C0.757446 11.1167 0.941801 11.516 1.2467 11.8032C1.53741 12.0904 1.95576 12.2866 2.40247 12.2866H13.7758C14.2367 12.2866 14.6409 12.1044 14.9316 11.8032C15.2223 11.516 15.4208 11.1027 15.4208 10.6614V3.80367C15.4138 3.34835 15.2365 2.94908 14.9316 2.65487ZM14.6905 10.6544H14.6763C14.6763 10.8996 14.5771 11.1237 14.414 11.2849C14.2438 11.453 14.024 11.544 13.7758 11.544H2.40247C2.1543 11.544 1.9274 11.446 1.76431 11.2849C1.59414 11.1167 1.50196 10.8996 1.50196 10.6544V3.80367C1.50196 3.5585 1.60123 3.33434 1.76431 3.17323C1.93449 3.00512 2.1543 2.91405 2.40247 2.91405H5.08982C5.29544 2.91405 5.46562 2.74594 5.46562 2.5428V2.13651C5.46562 1.98241 5.52234 1.84932 5.62161 1.75125C5.72088 1.65318 5.8556 1.59714 6.0116 1.59714H10.1809C10.3369 1.59714 10.4716 1.65318 10.5709 1.75125C10.663 1.84231 10.7198 1.98241 10.7198 2.13651V2.53579C10.7198 2.73893 10.8899 2.90705 11.0956 2.90705H13.7829C14.0311 2.90705 14.258 3.00512 14.4211 3.16623C14.5912 3.33434 14.6834 3.5515 14.6834 3.79667V10.6544H14.6905Z" fill="#E31823"/>
<path d="M8.08915 3.83869C7.13901 3.83869 6.27395 4.22396 5.66416 4.83338C5.04018 5.44981 4.65729 6.29039 4.65729 7.22904C4.65729 8.16769 5.04727 9.02228 5.66416 9.6247C6.28813 10.2411 7.13901 10.6194 8.08915 10.6194C9.03929 10.6194 9.90435 10.2341 10.5141 9.6247C11.1381 9.00828 11.521 8.16769 11.521 7.22904C11.521 6.29039 11.131 5.4358 10.5141 4.83338C9.89726 4.23096 9.0322 3.83869 8.08915 3.83869ZM9.98235 9.11335C9.49309 9.58267 8.82657 9.88388 8.08915 9.88388C7.35173 9.88388 6.67811 9.58267 6.19595 9.11335C5.7067 8.63001 5.41598 7.97156 5.41598 7.24305C5.41598 6.51455 5.72088 5.84909 6.19595 5.37276C6.6852 4.88942 7.35173 4.60222 8.08915 4.60222C8.82657 4.60222 9.50018 4.90343 9.98235 5.37276C10.4716 5.85609 10.7623 6.51455 10.7623 7.24305C10.7765 7.97156 10.4716 8.63001 9.98235 9.11335Z" fill="#E31823"/>
<path d="M13.0455 5.17662C13.4214 5.17662 13.7262 4.87555 13.7262 4.50415C13.7262 4.13276 13.4214 3.83169 13.0455 3.83169C12.6696 3.83169 12.3648 4.13276 12.3648 4.50415C12.3648 4.87555 12.6696 5.17662 13.0455 5.17662Z" fill="#E31823"/>
</svg>
