<?xml version="1.0" encoding="utf-8"?>
<!-- Generator: Adobe Illustrator 24.0.1, SVG Export Plug-In . SVG Version: 6.00 Build 0)  -->
<svg version="1.1" id="Layer_1" xmlns="http://www.w3.org/2000/svg" xmlns:xlink="http://www.w3.org/1999/xlink" x="0px" y="0px"
	 viewBox="0 0 580.4 351.5" style="enable-background:new 0 0 580.4 351.5;" xml:space="preserve">
<style type="text/css">
	.st0{fill:#020203;}
	.st1{fill:#E51A24;}
</style>
<g>
	<path class="st0" d="M290.2,351.5L0,175.8L290.2,0l290.2,175.7L290.2,351.5z M5.8,175.8L290.1,348l284.4-172.2L290.2,3.5L5.8,175.8
		z"/>
	<path class="st0" d="M233.5,276.1l-1.4-2.6l135.2-73.4c0.6-0.6,3.5-3.7,4.7-7.4c0.8-2.7,0-5.4-2.1-7.2c-2.2-2-5.2-2.4-7.9-1.3
		l-6.5,2.9l-1.2-2.7l6.5-2.9c3.7-1.7,8-1,11.1,1.8c3,2.6,4.1,6.6,3,10.4c-1.5,5-5.4,8.7-5.6,8.9l-0.3,0.2L233.5,276.1z"/>
	<path class="st0" d="M344.5,163.2l-1.1-2.8l9.4-3.9c6.4-2.6,10-9.4,8.3-15.7c-0.6-2.3-4.2-5-9.1-6.9l1.1-2.8
		c2.9,1.1,9.7,4.3,10.9,9c2,7.8-2.3,16.1-10.1,19.2L344.5,163.2z"/>
	<path class="st0" d="M326.3,143.2l-1-2.8l26.7-9.3c6.4-2.2,10.4-8.8,9.2-15.2c-1-5.6-5.3-7.9-13.2-7.1l-53.6,11.7l-0.6-2.9
		l53.8-11.8c12-1.2,15.6,4.5,16.5,9.6c1.4,7.8-3.4,15.8-11.2,18.5L326.3,143.2z"/>
	<path class="st0" d="M307.3,116.5h-3v-8l-21.9-2.5c-0.3-0.1-8.2-1.9-14-14.2l-0.8-1.7l61.8-14.9l11,33.4l-2.8,0.9l-10.1-30.8
		L272,92c4.7,9,10.4,10.7,11,10.8l24.3,2.7V116.5z"/>
	
		<rect x="160.5" y="213.8" transform="matrix(0.8561 -0.5169 0.5169 0.8561 -84.0189 128.9132)" class="st0" width="57.8" height="3"/>
	<path class="st0" d="M234.7,206.1c-12.9,0-25.2-3.1-27.9-12c-3.2-10.5,6.9-17.3,7-17.4l1.6,2.5c-0.3,0.2-8.3,5.6-5.8,14
		c2.7,8.7,19.1,11,34.2,9.4c5-0.5,8.5-2.2,10.3-4.8c2.2-3.3,1.1-7.2,1.1-7.2l2.9-0.8c0.1,0.2,1.5,5.2-1.5,9.7
		c-2.3,3.4-6.5,5.5-12.5,6.2C241,205.9,237.8,206.1,234.7,206.1z"/>
	<path class="st0" d="M249.2,191.6c-6.7,0-14.6-1.9-22.3-5.4c-9.5-4.4-16.3-10.4-18.2-16c-4.4-13.4,5.4-20.3,5.5-20.3l1.7,2.5
		c-0.3,0.2-8,5.7-4.4,16.9c1.6,4.9,7.8,10.2,16.6,14.2c10.8,5,22.5,6.5,29.1,3.7c12.5-5.2,8.3-20.8,8.1-21.5l2.9-0.8
		c0.1,0.2,5.1,18.8-9.9,25.1C256,191.1,252.7,191.6,249.2,191.6z"/>
	<path class="st0" d="M265.2,166.1c-0.5,0-1,0-1.6-0.1c-13.2-1.2-51.6-7.9-54.3-21.9c-2.5-13,7.4-20.6,7.9-20.9l1.8,2.4
		c-0.4,0.3-8.8,6.8-6.7,17.9c2,10.5,34.6,17.8,51.6,19.4c4.5,0.4,7.2-1.2,8.2-5c1.5-5.7-1.5-13.1-2.8-13.6l1.1-2.8
		c3.2,1.3,6.2,10.5,4.7,16.9C274.3,161.5,272.2,166.1,265.2,166.1z"/>
	<path class="st0" d="M269.8,144.6l-52.9-18.9l-0.3-0.6c-0.2-0.4-4.1-10.3,0.1-18c2.2-4.1,6.3-6.7,12.1-7.7l0.4-0.1l42.4,16.7
		c4.6,1.8,8,6,8.9,10.9c1.4,8.4-2.2,14.6-10.3,17.6L269.8,144.6z M219.2,123.3l50.5,18.1c6.4-2.5,9-7.3,7.9-14.1
		c-0.7-3.9-3.3-7.1-7-8.6L229,102.3c-4.6,0.9-7.8,3-9.6,6.1C216.5,113.9,218.5,121.2,219.2,123.3z"/>
	<path class="st0" d="M364,183.2l-2-2.3c0.1-0.1,7.9-7,6.1-14.3c-2.4-9.7-9.2-11.4-9.2-11.4l0.7-2.9c0.4,0.1,8.7,2.1,11.5,13.6
		C373.2,174.9,364.2,182.8,364,183.2z"/>
	<polygon class="st0" points="247.3,109.9 244.7,108.6 259,77.7 304.2,81.5 304,84.5 260.8,80.9 	"/>
	<rect x="391" y="186.4" transform="matrix(0.4522 -0.8919 0.8919 0.4522 20.9108 469.2516)" class="st0" width="3" height="62.5"/>
	
		<rect x="324.8" y="223" transform="matrix(0.4933 -0.8699 0.8699 0.4933 -56.4192 412.9688)" class="st0" width="3" height="63.8"/>
	<g>
		<polygon class="st1" points="116.3,242.8 150,222.5 253.2,285.1 219.2,307 206.5,299.2 		"/>
		<path class="st0" d="M219.3,308.8l-13.5-8.3l-92.2-57.7l36.4-22l106.2,64.3L219.3,308.8z M119.2,242.8l88.1,55.1l11.9,7.3
			l31.2-20.1l-100.5-60.9L119.2,242.8z"/>
	</g>
	<polygon class="st0" points="360.2,306.9 324.2,285.1 430.5,220.7 465.2,241.7 463.7,244.3 430.5,224.2 330,285.1 361.8,304.4 	"/>
</g>
</svg>
