<?xml version="1.0" encoding="utf-8"?>
<!-- Generator: Adobe Illustrator 24.0.1, SVG Export Plug-In . SVG Version: 6.00 Build 0)  -->
<svg version="1.1" id="Layer_1" xmlns="http://www.w3.org/2000/svg" xmlns:xlink="http://www.w3.org/1999/xlink" x="0px" y="0px"
	 viewBox="0 0 580.4 351.4" style="enable-background:new 0 0 580.4 351.4;" xml:space="preserve">
<style type="text/css">
	.st0{fill:#020203;}
	.st1{fill:#E51A24;}
	.st2{fill:#FFFFFF;}
</style>
<g>
	<path class="st0" d="M290.1,351.4l-0.8-0.5L0,175.7L290.2,0l290.2,175.7L290.1,351.4z M5.8,175.7l284.4,172.2l284.4-172.2
		L290.1,3.4L5.8,175.7z"/>
	<path class="st0" d="M383.6,145.4l-10.9-44.8c-0.1-0.4-2.7-10.6-12.8-14.9c-7.7-3.3-32.4-12.6-37.2-14.5h-0.1l-0.1-0.1
		c-0.5-0.4-1-0.6-1.6-0.6h-61.1c-0.1,0-0.2,0-0.2,0h-0.2l-0.2,0.1l-0.2,0.1c-1.2,0.5-30.1,11.4-38.6,15
		c-9.7,4.1-12.5,13.8-12.8,14.9l-10.9,44.8c-0.3,1.2,0.4,2.5,1.6,3l31.4,12.5v106c0,1.4,1.2,2.6,2.6,2.6h115.9
		c1.4,0,2.6-1.2,2.6-2.6v-65.7l0,0v-40.3l31.4-12.5C383.2,147.9,383.9,146.6,383.6,145.4z M229.6,155.3l-27.4-10.9l1.9-7.8
		l25.5,10.7V155.3z M229.6,141.7l-24.3-10.2l7.2-29.7c0,0,0.4-1.7,1.7-3.9l0.5-0.8l14.9,24.7L229.6,141.7L229.6,141.7z M345.5,264.2
		H234.8v-7.7h17.5h4.5h88.7V264.2z M345.5,251.4h-88.7h-4.5h-17.5V121.1c0-0.5-0.1-0.9-0.4-1.3L218.2,93l0.4-0.3
		c1.1-0.9,2.4-1.7,3.7-2.2c6.5-2.8,26.2-10.3,34.3-13.4l0.7-0.3l65.9,0.2l0.7,0.3c8,3.1,27.5,10.5,33.9,13.2
		c1.3,0.6,2.6,1.3,3.7,2.2l0.4,0.3l-16.2,26.8c-0.2,0.4-0.4,0.9-0.4,1.3v72.8l0,0v57.5H345.5z M350.6,121.8l14.9-24.7l0.5,0.8
		c0.8,1.4,1.3,2.7,1.5,3.3l0.1,0.5l7.2,29.8l-24.3,10.2L350.6,121.8z M350.6,155.3v-8l25.5-10.7l1.9,7.8L350.6,155.3z"/>
	<path class="st1" d="M345.5,251.4h-88.7h-4.5h-17.5V121.1c0-0.5-0.1-0.9-0.4-1.3L218.2,93l0.4-0.3c1.1-0.9,2.4-1.7,3.7-2.2
		c6.5-2.8,26.2-10.3,34.3-13.4l0.7-0.3l65.9,0.2l0.7,0.3c8,3.1,27.5,10.5,33.9,13.2c1.3,0.6,2.6,1.3,3.7,2.2l0.4,0.3l-16.2,26.8
		c-0.2,0.4-0.4,0.9-0.4,1.3v72.8l0,0v57.5H345.5z"/>
	<g>
		<path class="st2" d="M313.9,155.8c6.3,0,11.4-5.1,11.4-11.4v-22c0-6.3-5.1-11.4-11.4-11.4h-10.1c-6.3,0-11.4,5.1-11.4,11.4v12.9
			h12.8v-11.5h7.4v19.3h-8.7c-6.3,0-11.4,5.1-11.4,11.4v28.3h32.9V170h-20.1v-14.2H313.9z"/>
		<path class="st2" d="M254.9,111v12.8h18.5l-15.2,59h13.2l16.5-63.8v-8H254.9z"/>
	</g>
</g>
</svg>
