<?xml version="1.0" encoding="utf-8"?>
<!-- Generator: Adobe Illustrator 24.0.1, SVG Export Plug-In . SVG Version: 6.00 Build 0)  -->
<svg version="1.1" id="Layer_1" xmlns="http://www.w3.org/2000/svg" xmlns:xlink="http://www.w3.org/1999/xlink" x="0px" y="0px"
	 viewBox="0 0 580.3 351.5" style="enable-background:new 0 0 580.3 351.5;" xml:space="preserve">
<style type="text/css">
	.st0{fill:#E51924;}
</style>
<g>
	<path d="M290.2,351.5L0,175.7L290.2,0l290.2,175.7L290.2,351.5z M5.8,175.7L290.2,348l284.4-172.2L290.2,3.5L5.8,175.7z"/>
	<path d="M290.2,80c-52.9,0-95.8,42.9-95.8,95.8s42.9,95.8,95.8,95.8s95.8-42.9,95.8-95.8C385.9,122.9,343,80,290.2,80z
		 M364.3,125.9l-6.6,28.2l-35,11.7l-29.4-23.5v-34.6l33.5-13.4C342,101.2,355,112.1,364.3,125.9z M364.8,224.7l-31.7,5L316,207
		l8.8-35.1l34.6-11.5l19.8,23.8C377.8,198.6,372.9,212.6,364.8,224.7z M247.3,229.7l-31.8-5c-8-12.2-12.9-26.1-14.3-40.6l19.8-23.8
		l34.6,11.5l8.8,35.1L247.3,229.7z M200.8,174.6c0.2-14.2,3.8-28.2,10.5-40.8l5.2,22L200.8,174.6z M270.3,204.5l-8.5-33.9l28.3-22.7
		l28.3,22.7l-8.5,33.9H270.3z M363.8,155.8l5.2-22c6.7,12.6,10.3,26.5,10.5,40.8L363.8,155.8z M318.2,90.9l-28,11.2L262,90.9
		C280.2,84.9,299.9,84.9,318.2,90.9z M253.3,94.4l33.7,13.3v34.6l-29.4,23.5l-35-11.7l-6.6-28.2C225.3,112.2,238.2,101.2,253.3,94.4
		z M220.8,232l25.9,4.1l15.7,24.6C246.1,255.3,231.6,245.4,220.8,232z M271.6,263.2l-19-29.8l16.9-22.5h41.5l17.1,22.6l-16.6,29.1
		C298.4,265.8,284.7,266,271.6,263.2L271.6,263.2z M320.3,259.9l13.6-23.8l25.6-4C349.2,244.7,335.7,254.3,320.3,259.9z"/>
	<path class="st0" d="M200.8,174.6c0.2-14.2,3.8-28.2,10.5-40.8l5.2,22L200.8,174.6z"/>
	<polygon class="st0" points="270.3,204.5 261.8,170.6 290.2,147.9 318.5,170.6 310,204.5 	"/>
	<path class="st0" d="M363.8,155.8l5.2-22c6.7,12.6,10.3,26.5,10.5,40.8L363.8,155.8z"/>
	<path class="st0" d="M318.2,90.9l-28,11.2L262,90.9C280.2,84.9,299.9,84.9,318.2,90.9z"/>
	<path class="st0" d="M220.8,232l25.9,4.1l15.7,24.6C246.1,255.3,231.6,245.4,220.8,232z"/>
	<path class="st0" d="M320.3,259.9l13.6-23.8l25.6-4C349.2,244.7,335.7,254.3,320.3,259.9z"/>
</g>
</svg>
