<?xml version="1.0" encoding="utf-8"?>
<!-- Generator: Adobe Illustrator 24.0.1, SVG Export Plug-In . SVG Version: 6.00 Build 0)  -->
<svg version="1.1" id="Layer_1" xmlns="http://www.w3.org/2000/svg" xmlns:xlink="http://www.w3.org/1999/xlink" x="0px" y="0px"
	 viewBox="0 0 580.4 351.5" style="enable-background:new 0 0 580.4 351.5;" xml:space="preserve">
<style type="text/css">
	.st0{fill:#E51924;}
	.st1{fill:#020202;}
	.st2{fill:#FFFFFF;}
</style>
<path class="st0" d="M243.8,183.3l17.4,17.1l28.4-24.6c0,0,14.4-9.1,22.9-0.1c8.5,8.9,3.6,12.9-1.3,17.8
	c-4.9,4.9-26.4,25.4-26.4,25.4l31.3,36.2l96.4-96l16.4-19.2l-74.4-71.5L243.8,183.3z"/>
<path class="st1" d="M290.1,351.5L0,175.7L290.2,0l290.2,175.7L290.1,351.5z M5.8,175.7l284.4,172.2l284.4-172.2L290.2,3.5
	L5.8,175.7z"/>
<polygon class="st2" points="348,225.4 345.2,78.6 335,88.6 335,88.8 326.1,97.5 329,243.5 339.2,234.2 339.2,233.4 "/>
<g>
	<g>
		<polygon class="st1" points="318.3,257.3 293.2,233.3 295.3,231.1 318.2,253.1 426.7,140.1 354.4,70.7 245.9,183.7 262.6,199.7 
			260.5,201.8 241.7,183.8 354.3,66.5 430.9,140 		"/>
		
			<rect x="387.3" y="109.2" transform="matrix(0.6924 -0.7216 0.7216 0.6924 26.4207 320.3145)" class="st1" width="3" height="40"/>
		<rect x="374" y="122.8" transform="matrix(0.6924 -0.7216 0.7216 0.6924 12.358 314.9562)" class="st1" width="3" height="40.3"/>
	</g>
	<path class="st1" d="M159.7,271l-2.2-2l15.5-17.1l7.8-62.8c0.7-5.5,3.3-10.5,7.4-14.2l26.2-25.8c4.5-4.5,10.2-7.4,16.4-8.5
		l64.8-11.2l0.5,3l-64.8,11.2c-5.6,1-10.8,3.6-14.9,7.6l-26.2,25.9c-3.6,3.2-5.9,7.6-6.5,12.4l-7.9,63.8L159.7,271z"/>
	<path class="st1" d="M207.8,301.2l-0.6-2.9c10.5-2.1,44.8-11.5,44-44.6v-0.6l58.3-58.8c1.6-1.7,2.9-3.7,3.5-5.9l1-3.5
		c1.1-3.7,0.1-7.5-2.6-10.2c-2.7-2.7-6.5-3.7-10.2-2.6c-6,1.7-11.5,5-16,9.4l-31.7,31.4c-2,2-4.6,3-7.4,2.9
		c-2.8-0.1-5.3-1.3-7.2-3.4l-7.1-8c-2.1-2.3-3.3-5.3-3.5-8.4l-1.1-15.2c-0.4-6.1,3.3-11.9,9.1-14l34.4-12.5l1,2.8l-34.4,12.5
		c-4.5,1.6-7.5,6.2-7.1,11l1.1,15.2c0.2,2.4,1.2,4.8,2.8,6.6l7.1,8c1.3,1.5,3.1,2.3,5,2.4c1.9,0.1,3.8-0.7,5.2-2l31.7-31.4
		c4.8-4.7,10.8-8.2,17.2-10.1c4.7-1.4,9.7-0.1,13.1,3.4c3.5,3.5,4.7,8.4,3.3,13.2l-1,3.5c-0.8,2.7-2.3,5.2-4.3,7.2L254,254.5
		C254.6,289.1,218.9,299,207.8,301.2z"/>
	<path class="st1" d="M273.8,270.1c-3.2,0-6.4-1.2-8.8-3.6l-11.9-11.9l2.1-2.1l11.9,11.9c1.8,1.8,4.1,2.8,6.7,2.8
		c2.5,0,4.9-1,6.7-2.8s2.8-4.1,2.8-6.7c0-2.5-1-4.9-2.8-6.7l-11.9-11.9l2.1-2.1l11.9,11.9c4.8,4.8,4.8,12.7,0,17.6
		C280.2,268.9,277,270.1,273.8,270.1z"/>
	<path class="st1" d="M294,259.1c-3.2,0-6.4-1.2-8.8-3.6l-11.9-11.9l2.1-2.1l11.9,11.9c3.7,3.7,9.7,3.7,13.3,0
		c3.6-3.7,3.7-9.7,0-13.3L284,223.2l2.1-2.1l16.6,16.9c4.8,4.8,4.8,12.7,0,17.6C300.3,257.9,297.2,259.1,294,259.1z"/>
</g>
</svg>
