<?xml version="1.0" encoding="utf-8"?>
<!-- Generator: Adobe Illustrator 24.0.1, SVG Export Plug-In . SVG Version: 6.00 Build 0)  -->
<svg version="1.1" id="Layer_1" xmlns="http://www.w3.org/2000/svg" xmlns:xlink="http://www.w3.org/1999/xlink" x="0px" y="0px"
	 viewBox="0 0 580.4 351.5" style="enable-background:new 0 0 580.4 351.5;" xml:space="preserve">
<style type="text/css">
	.st0{fill:#020203;}
	.st1{fill:#E51A24;}
	.st2{fill:#FFFFFF;}
</style>
<g>
	<path class="st0" d="M290.2,351.5L0,175.8L290.2,0l0.8,0.5l289.4,175.3L290.2,351.5z M5.9,175.8L290.2,348l284.4-172.2L290.2,3.5
		L5.9,175.8z"/>
	<path class="st1" d="M345.6,251.5h-88.7h-4.5h-17.5V121.2c0-0.5-0.1-0.9-0.4-1.3l-16.2-26.8l0.4-0.3c1.1-0.9,2.4-1.7,3.7-2.2
		c6.5-2.8,26.2-10.3,34.3-13.4l0.7-0.3l0.1,0.7c2,18.6,16.5,33.2,32.9,33.2s30.8-14.5,32.9-33l0.1-0.7l0.7,0.3
		c8,3.1,27.5,10.5,33.9,13.2c1.3,0.6,2.6,1.3,3.7,2.2l0.4,0.3l-16.2,26.8c-0.2,0.4-0.4,0.9-0.4,1.3V194l0,0v57.5H345.6z"/>
	<rect x="232.7" y="139.5" class="st2" width="115" height="30.5"/>
	<path class="st0" d="M383.7,145.5l-10.9-44.8c-0.1-0.4-2.7-10.6-12.8-14.9c-7.7-3.3-32.4-12.6-37.2-14.5h-0.1l-0.1-0.1
		c-0.5-0.4-1-0.6-1.6-0.6h-61.1c-0.1,0-0.2,0-0.2,0h-0.2l-0.2,0.1l-0.2,0.1c-1.2,0.5-30.1,11.4-38.6,15
		c-9.7,4.1-12.5,13.8-12.8,14.9l-10.9,44.8c-0.3,1.2,0.4,2.5,1.6,3l31.4,12.5v106c0,1.4,1.2,2.6,2.6,2.6h115.9
		c1.4,0,2.6-1.2,2.6-2.6v-65.7l0,0V161l31.4-12.5C383.4,148,384,146.7,383.7,145.5z M318.3,75.8l-0.1,0.6
		c-1.5,18-15.6,29.2-27.8,29.2s-26.3-11.2-27.8-29.2l-0.1-0.6H318.3z M229.7,155.4l-27.4-10.9l1.9-7.8l25.5,10.7V155.4z
		 M229.7,141.8l-24.3-10.2l7.2-29.7c0,0,0.4-1.7,1.7-3.9l0.5-0.8l14.9,24.7L229.7,141.8L229.7,141.8z M345.6,264.3H234.9v-7.7h17.5
		h4.5h88.7V264.3z M345.6,251.5h-88.7h-4.5h-17.5V121.2c0-0.5-0.1-0.9-0.4-1.3l-16.2-26.8l0.4-0.3c1.1-0.9,2.4-1.7,3.7-2.2
		c6.5-2.8,26.2-10.3,34.3-13.4l0.7-0.3l0.1,0.7c2,18.6,16.5,33.2,32.9,33.2s30.8-14.5,32.9-33l0.1-0.7l0.7,0.3
		c8,3.1,27.5,10.5,33.9,13.2c1.3,0.6,2.6,1.3,3.7,2.2l0.4,0.3l-16.2,26.8c-0.2,0.4-0.4,0.9-0.4,1.3V194l0,0v57.5H345.6z
		 M350.8,121.9l14.9-24.7l0.5,0.8c0.8,1.4,1.3,2.7,1.5,3.3l0.1,0.5l7.2,29.8l-24.3,10.2L350.8,121.9z M350.8,155.4v-8l25.5-10.7
		l1.9,7.8L350.8,155.4z"/>
</g>
</svg>
