<?xml version="1.0" encoding="utf-8"?>
<!-- Generator: Adobe Illustrator 24.0.1, SVG Export Plug-In . SVG Version: 6.00 Build 0)  -->
<svg version="1.1" id="Layer_1" xmlns="http://www.w3.org/2000/svg" xmlns:xlink="http://www.w3.org/1999/xlink" x="0px" y="0px"
	 viewBox="0 0 580.4 351.4" style="enable-background:new 0 0 580.4 351.4;" xml:space="preserve">
<style type="text/css">
	.st0{fill:#E51924;}
</style>
<path d="M290.2,351.4L0,175.7L290.2,0l290.2,175.7L290.2,351.4z M5.9,175.7l284.4,172.2l284.4-172.2L290.3,3.5L5.9,175.7z"/>
<path d="M290.2,100.7c-4.4,0-8-3.6-8-8s3.6-8,8-8s8,3.6,8,8S294.6,100.7,290.2,100.7z M290.2,89.3c-1.9,0-3.4,1.5-3.4,3.4
	s1.5,3.4,3.4,3.4s3.4-1.5,3.4-3.4S292.1,89.3,290.2,89.3z"/>
<path d="M250.4,266.6c-4.4,0-8-3.6-8-8c0-3.4,2.1-6.4,5.3-7.5l0.4-0.1v-93.6l-0.4-0.1c-3.2-1.1-5.3-4.1-5.3-7.5s2.2-6.5,5.4-7.6
	l0.3-0.1v-0.4c0.9-10.1,7.8-18.6,17.6-21.6l0.7-0.2l-0.3-0.6c-0.6-1.2-0.9-2.4-0.9-3.7c0-3.4,2.1-6.4,5.3-7.5l0.4-0.1V75.8
	c0-1.3,1-2.3,2.3-2.3h34.2c1.3,0,2.3,1,2.3,2.3V108l0.4,0.1c3.2,1.1,5.3,4.1,5.3,7.5c0,1.3-0.3,2.6-0.9,3.7l-0.3,0.6l0.7,0.2
	c9.7,3,16.6,11.5,17.6,21.6v0.4l0.3,0.1c3.2,1.1,5.4,4.1,5.4,7.6c0,3.4-2.1,6.4-5.3,7.5l-0.4,0.1V251l0.4,0.1
	c3.2,1.1,5.3,4.1,5.3,7.5c0,4.4-3.6,8-8,8H250.4z M250.4,255.2c-1.9,0-3.4,1.5-3.4,3.4c0,1.9,1.5,3.4,3.4,3.4h79.7
	c1.9,0,3.4-1.5,3.4-3.4c0-1.9-1.5-3.4-3.4-3.4H250.4z M256.1,169c-1.9,0-3.4,1.5-3.4,3.4v78.2h75.2v-78.2c0-1.9-1.5-3.4-3.4-3.4
	h-22.8c-1.9,0-3.4,1.5-3.4,3.4v17.1c0,4.4-3.6,8-8,8s-8-3.6-8-8v-17.1c0-1.9-1.5-3.4-3.4-3.4s-3.4,1.5-3.4,3.4v34.2c0,4.4-3.6,8-8,8
	s-8-3.6-8-8v-34.2C259.5,170.6,258,169,256.1,169z M256.1,164.5c4.4,0,8,3.6,8,8v34.2c0,1.9,1.5,3.4,3.4,3.4s3.4-1.5,3.4-3.4v-34.2
	c0-4.4,3.6-8,8-8s8,3.6,8,8v17.1c0,1.9,1.5,3.4,3.4,3.4s3.4-1.5,3.4-3.4v-17.1c0-4.4,3.6-8,8-8h22.8c0.9,0,1.8,0.2,2.7,0.5l0.8,0.3
	v-7.6h-75.2v7.6l0.8-0.3C254.3,164.6,255.2,164.5,256.1,164.5z M273.2,123.5c-11.3,0-20.5,9.2-20.5,20.5c0,1.3-1,2.3-2.3,2.3
	c-1.9,0-3.4,1.5-3.4,3.4s1.5,3.4,3.4,3.4h79.7c1.9,0,3.4-1.5,3.4-3.4s-1.5-3.4-3.4-3.4h-68.3c-1.3,0-2.3-1-2.3-2.3s1-2.3,2.3-2.3
	h65.9l-0.1-0.6c-1.4-10-10.2-17.6-20.3-17.6H273.2z M273.2,112.1c-1.9,0-3.4,1.5-3.4,3.4s1.5,3.4,3.4,3.4h34.2
	c1.9,0,3.4-1.5,3.4-3.4s-1.5-3.4-3.4-3.4H273.2z M275.4,107.5H305V77.9h-29.6V107.5z"/>
<path class="st0" d="M256.1,169c-1.9,0-3.4,1.5-3.4,3.4v78.2h75.2v-78.2c0-1.9-1.5-3.4-3.4-3.4h-22.8c-1.9,0-3.4,1.5-3.4,3.4v17.1
	c0,4.4-3.6,8-8,8s-8-3.6-8-8v-17.1c0-1.9-1.5-3.4-3.4-3.4s-3.4,1.5-3.4,3.4v34.2c0,4.4-3.6,8-8,8s-8-3.6-8-8v-34.2
	C259.5,170.6,258,169,256.1,169z"/>
<path class="st0" d="M256.1,164.5c4.4,0,8,3.6,8,8v34.2c0,1.9,1.5,3.4,3.4,3.4s3.4-1.5,3.4-3.4v-34.2c0-4.4,3.6-8,8-8s8,3.6,8,8
	v17.1c0,1.9,1.5,3.4,3.4,3.4s3.4-1.5,3.4-3.4v-17.1c0-4.4,3.6-8,8-8h22.8c0.9,0,1.8,0.2,2.7,0.5l0.8,0.3v-7.6h-75.2v7.6l0.8-0.3
	C254.3,164.6,255.2,164.5,256.1,164.5z"/>
<path class="st0" d="M273.2,123.5c-11.3,0-20.5,9.2-20.5,20.5c0,1.3-1,2.3-2.3,2.3c-1.9,0-3.4,1.5-3.4,3.4s1.5,3.4,3.4,3.4h79.7
	c1.9,0,3.4-1.5,3.4-3.4s-1.5-3.4-3.4-3.4h-68.3c-1.3,0-2.3-1-2.3-2.3s1-2.3,2.3-2.3h65.9l-0.1-0.6c-1.4-10-10.2-17.6-20.3-17.6
	H273.2z"/>
<path class="st0" d="M273.2,112.1c-1.9,0-3.4,1.5-3.4,3.4s1.5,3.4,3.4,3.4h34.2c1.9,0,3.4-1.5,3.4-3.4s-1.5-3.4-3.4-3.4H273.2z"/>
<path class="st0" d="M250.4,255.2c-1.9,0-3.4,1.5-3.4,3.4c0,1.9,1.5,3.4,3.4,3.4h79.7c1.9,0,3.4-1.5,3.4-3.4c0-1.9-1.5-3.4-3.4-3.4
	H250.4z"/>
</svg>
